<?xml version="1.0" encoding="UTF-8"?>
<svg id="Capa_2" data-name="Capa 2" xmlns="http://www.w3.org/2000/svg" viewBox="0 0 1123.26 872.66">
  <defs>
    <style>
      .cls-1 {
        fill: #ea5518;
      }

      .cls-2, .cls-3, .cls-4, .cls-5, .cls-6, .cls-7 {
        fill: #fff;
      }

      .cls-8 {
        fill: #fafafa;
      }

      .cls-9 {
        stroke: #fff;
      }

      .cls-9, .cls-10, .cls-11, .cls-12, .cls-13, .cls-14, .cls-15, .cls-16, .cls-7 {
        stroke-miterlimit: 10;
      }

      .cls-9, .cls-17, .cls-11, .cls-12 {
        fill: none;
      }

      .cls-3 {
        opacity: .4;
      }

      .cls-10, .cls-18 {
        fill: #e1e1e1;
      }

      .cls-10, .cls-12, .cls-13, .cls-14, .cls-15, .cls-16, .cls-7 {
        stroke: #003188;
      }

      .cls-4, .cls-19 {
        opacity: .3;
      }

      .cls-20, .cls-6 {
        opacity: .2;
      }

      .cls-17 {
        stroke-linecap: round;
        stroke-linejoin: round;
      }

      .cls-17, .cls-11 {
        stroke: #1a2e35;
      }

      .cls-21, .cls-14 {
        fill: #003188;
      }

      .cls-5 {
        opacity: .7;
      }

      .cls-22 {
        fill: #007cff;
      }

      .cls-13, .cls-15 {
        fill: #cae0ff;
      }

      .cls-23 {
        fill: #375a64;
      }

      .cls-19 {
        isolation: isolate;
      }

      .cls-15 {
        opacity: .8;
      }

      .cls-24 {
        fill: #fcb373;
      }

      .cls-16 {
        fill: #f4a487;
      }

      .cls-25 {
        fill: #1a2e35;
      }

      .cls-26 {
        fill: #acceef;
      }

      .cuadro1{
        animation: c1 7s infinite;
        transform: translate(440px, 470px) scale(0.5);
      }
      @keyframes c1{
        10%{transform: translate(0, 0) scale(1);}
        70%{transform: translate(0, 0) scale(1);}
        80%{transform: translate(440px, 470px) scale(0.5);}
      }

      .cuadro2{
        animation: c2 7s infinite 0.3s;
        transform: translate(310px, 470px) scale(0.5);
      }
      @keyframes c2{
        10%{transform: translate(0, 0) scale(1);}
        70%{transform: translate(0, 0) scale(1);}
        80%{transform: translate(310px, 470px) scale(0.5);}
      }

      .circle{
        animation: cl1 4s infinite;
        transform-box: fill-box;
        transform-origin: center;
      }
      @keyframes cl1{
        0%{transform: rotate(0deg);}
        30%{transform: rotate(60deg);}
        60%{transform: rotate(10deg);}
        80%{transform: rotate(80deg);}
        100%{transform: rotate(0deg);}
      }

      .lineas{
        animation: ln1 4s infinite 1.5s;
        transform-box: fill-box;
        transform-origin: center bottom;
        transform: scaleY(0);
      }

      @keyframes ln1{
        0%{transform: scaleY(0);}
        30%{transform: scaleY(0.5);}
        60%{transform: scaleY(0.2);}
        80%{transform: scaleY(1);}
        100%{transform: scaleY(0);}
      }

    </style>
  </defs>
  <g id="Capa_2-2" data-name="Capa 2">
    <g>
      <path class="cls-21" d="M162.12,757.02s-139-80.1-82.59-204.88c56.41-124.78,305.91-48,304.81-152.26-1.09-104.26-208.03-77.84-124.29-243.66s426.94-12.26,543.43,47.49c116.48,59.74,333.54,311.71,203.31,440.03-130.23,128.32-18.42,114.16-18.42,114.16l-826.25-.87Z"/>
      <g>
        <path class="cls-13" d="M981.71,486c22.76-25.47,8.89-71.61,15.99-163.69,7.1-92.08-50.73-104.58-50.73-104.58,0,0-7.94-45.46-50.78-43.28-42.83,2.18-126.57,22.21-127.42,120.89-.85,98.68-14.33,112.34-37.16,132.23-22.83,19.89,24.54,60.17,15.5,79.01,0,0,88.2,38.09,212.14,30.45,0,0-4.46-20.93,22.45-51.03Z"/>
        <path class="cls-13" d="M771.48,535.47s-7.97,9.47-19.8,22.74c-10.59,11.7-57.18,73-71.1,86.59-25.29,24.64-60.54,46.97-71.25,40.56-20.59-12.22-9.15-45.03-9.15-45.03,0,0,109.56-173.37,154.06-193.89,28.49-13.14,33.36-2.21,33.36-2.21,4.64,12.42-16.12,91.23-16.12,91.23Z"/>
        <path class="cls-20" d="M751.68,558.21c-10.59,11.7-22.05,29.71-35.97,43.31,6.34-62.73,34.33-102.45,34.33-102.45,5.49,9.8,5.1,33.13,1.63,59.14Z"/>
        <path class="cls-5" d="M804.67,535.46c59.65-56,134.55-93.8,134.55-93.8-4.42-.51-8.97-.96-13.52-1.35-34.28-2.82-62.34-4.87-92.9-3.14-7.69,.45-15.57,1.09-23.32,1.73v.06c-19.22,44.02-4.81,96.49-4.81,96.49Z"/>
        <g>
          <path class="cls-13" d="M939.21,733.02c4.23-47.6,21.27-134.84,50.61-226.46,9.55-29.79-6.64-63.43-6.64-63.43,0,0-39.94-1.02-43.97-1.47-4.42-.51-8.97-.96-13.52-1.35-34.28-2.82-62.34-4.87-92.9-3.14-7.69,.45-15.57,1.09-23.32,1.73-2.5,.26-30.58,.51-33.01,.77,0,0-38.87,44.46-41.25,80.47-1.28,20.12-4.29,35.3-3.2,83.42,.19,32.67,2.55,75.79,4.73,121.73l202.47,7.73Z"/>
          <path class="cls-15" d="M939.21,733.02c4.23-47.6,21.27-134.84,50.61-226.46,9.55-29.79-6.64-63.43-6.64-63.43,0,0-39.94-1.02-43.97-1.47-4.42-.51-8.97-.96-13.52-1.35-34.28-2.82-62.34-4.87-92.9-3.14-7.69,.45-15.57,1.09-23.32,1.73-2.5,.26-30.58,.51-33.01,.77,0,0-38.87,44.46-41.25,80.47-1.28,20.12-4.29,35.3-3.2,83.42,.19,32.67,2.55,75.79,4.73,121.73l202.47,7.73Z"/>
        </g>
        <g>
          <path class="cls-7" d="M820.8,450.28l11.28,67.27,88.48-77.4c-18.71-20.63-6.92-75.03,2.18-104.69l-25.05,18.77-37.29,27.87c.9,6.21,.06,14.74-1.79,22.94-2.82,11.85-7.88,23-13.45,25.37l-24.35,19.86Z"/>
          <path class="cls-21" d="M858.6,405.05c14.86-3.33,34.34-18.71,37.48-33.89,1.28-6.41,1.86-12.69,1.6-16.91l-37.29,27.87c.9,6.21,.06,14.74-1.79,22.94Z"/>
          <path class="cls-22" d="M916.19,423.15s-37.85,29.25-82.29,90.92c0,0-3.98-61.57,11.26-83.63l-3.18-3.79s-32.52,12.25-58.57,46.44l29.36-9.29,20.04,54.28,60.43-49.86,40.63,7.04s-2.07-40.07-17.69-52.11Z"/>
          <path class="cls-15" d="M916.19,423.15s-37.85,29.25-82.29,90.92c0,0-3.98-61.57,11.26-83.63l-3.18-3.79s-32.52,12.25-58.57,46.44l29.36-9.29,20.04,54.28,60.43-49.86,40.63,7.04s-2.07-40.07-17.69-52.11Z"/>
        </g>
        <g>
          <path class="cls-25" d="M774.83,292.77c-5.66,20,.12,40.12,12.91,44.94,12.79,4.82,27.74-7.49,33.4-27.49,5.66-20-.12-40.12-12.91-44.94-12.79-4.82-27.74,7.49-33.4,27.49Z"/>
          <path class="cls-6" d="M774.83,292.77c-5.66,20,.12,40.12,12.91,44.94,12.79,4.82,27.74-7.49,33.4-27.49,5.66-20-.12-40.12-12.91-44.94-12.79-4.82-27.74,7.49-33.4,27.49Z"/>
          <path class="cls-11" d="M782.19,319.45s-16.4,19.48-18.54,28.6c-2.14,9.12,7.88,12.47,15.6,14.11"/>
          <rect class="cls-25" x="771.36" y="358.55" width="15.79" height="7.22" rx="3.12" ry="3.12" transform="translate(1465.98 878.7) rotate(-167.98)"/>
          <rect class="cls-6" x="771.36" y="358.55" width="15.79" height="7.22" rx="3.12" ry="3.12" transform="translate(1465.98 878.7) rotate(-167.98)"/>
        </g>
        <path class="cls-13" d="M983.16,443.13c27.74,3.35,133.08,235.27,104.44,253.05-46.16,28.65-65.56-35.21-65.56-35.21l-49.31-96.69s-11.11-33.76-8.01-65c3.1-31.25,18.44-56.14,18.44-56.14Z"/>
        <path class="cls-7" d="M824.76,651.91l41.69,11.94,8.73,27.61c-4,22.43-47.14,12.85-47.14,12.85l-8.84,5.57c-7.18,4.52-16.65,.32-18.11-8.03l-4.58-26.1c-.76-4.35,.93-8.76,4.41-11.47l13.21-10.3c3.01-2.35,6.96-3.11,10.62-2.06Z"/>
        <path class="cls-13" d="M1090.74,690.69c-5.07,33.33-218.97,12.77-218.97,12.77l-5.32-39.62,143.19-27.2"/>
        <path class="cls-7" d="M766.14,650.91l-41.69,11.94-8.73,27.61c4,22.43,47.14,12.85,47.14,12.85l8.84,5.57c7.18,4.52,16.65,.32,18.11-8.03l4.58-26.1c.76-4.35-.93-8.76-4.41-11.47l-13.21-10.3c-3.01-2.35-6.96-3.11-10.62-2.06Z"/>
        <path class="cls-13" d="M599.48,677.48c5.07,33.33,119.65,24.99,119.65,24.99l5.32-39.62-43.87-39.42"/>
        <g>
          <path class="cls-7" d="M913.84,363.89c33.54-50.49,11.32-143.58-51.89-139.21-48.01,3.32-61.69,30.09-61.78,79.8-.12,62.13,16.62,105.11,75.73,87.76,5.95-1.75,11.38-4.19,16.3-7.2"/>
          <path class="cls-12" d="M831.01,299.65s-5.79,13-12.59,20.87c0,0,4.56,6.25,13.03,4.56"/>
          <g>
            <path class="cls-14" d="M860.12,293.69c.18,3.95,2.46,7.05,5.1,6.93,2.63-.12,4.62-3.42,4.44-7.37-.18-3.95-2.46-7.05-5.09-6.93-2.63,.12-4.62,3.42-4.44,7.37Z"/>
            <path class="cls-14" d="M865.67,286.47l-8.74-2.98s4.61,7.03,8.74,2.98Z"/>
          </g>
          <g>
            <path class="cls-14" d="M810.98,295.11c.18,3.95,2.46,7.05,5.09,6.93,2.63-.12,4.62-3.42,4.44-7.37-.18-3.95-2.46-7.05-5.09-6.93-2.63,.12-4.62,3.42-4.44,7.37Z"/>
            <path class="cls-14" d="M816.53,287.88l-8.74-2.98s4.61,7.03,8.74,2.98Z"/>
          </g>
          <path class="cls-17" d="M858.32,260.51s13.37-2.69,21.32,5.82"/>
          <path class="cls-17" d="M823.28,260.89s-8.7-2.55-18.86,5.27"/>
          <path class="cls-13" d="M920,301.96s-25.17-37.89-23.88-68.58c0,0-97.82-32.29-95.85,64.6,0,0-15.22-85.1,67.18-92.71,82.26-7.6,90.39,113.15,50.25,152.06,0,0,17.88-31.66,2.29-55.37Z"/>
          <path class="cls-12" d="M864.91,331.68s-6.73,18.33-27.35,14.08"/>
          <g>
            <path class="cls-25" d="M928.31,293.46l-47.91,.08c-.13-1.44-.4-2.89-.87-4.35-3.62-11.28-16.5-18.19-28.72-15.39-9.66,2.21-15.95,9.85-16.42,18.52-2-1.47-3.95-2.16-5.82-1.97-1.08,.1-1.92,.49-2.65,.95-.15-1.11-.33-2.22-.69-3.33-3.62-11.28-16.5-18.19-28.72-15.39-12.22,2.8-19.21,14.26-15.6,25.54,3.62,11.28,16.5,18.19,28.72,15.39,9.6-2.2,15.89-9.76,16.42-18.37,.06-.11,1.06-1.93,2.97-2.15,1.54-.15,3.44,.92,5.51,3.03,.15,1.1,.33,2.21,.68,3.32,3.62,11.29,16.5,18.19,28.72,15.39,9.66-2.21,15.96-9.86,16.43-18.54l48.08-.08c.12,0,.24-.01,.35-.04,.63-.14,1.07-.67,1.04-1.29-.04-.73-.72-1.33-1.52-1.33Zm-119.5,17.47c-10.68,2.45-21.94-3.59-25.1-13.45-3.16-9.86,2.95-19.87,13.63-22.32,10.68-2.45,21.94,3.59,25.1,13.45,3.16,9.86-2.95,19.88-13.63,22.32Zm54.3,1.23c-10.68,2.45-21.94-3.59-25.1-13.45-3.16-9.86,2.95-19.87,13.63-22.32,10.68-2.45,21.94,3.59,25.1,13.45,3.16,9.86-2.95,19.88-13.63,22.32Z"/>
            <g class="cls-19">
              <path class="cls-2" d="M928.31,293.46l-47.91,.08c-.13-1.44-.4-2.89-.87-4.35-3.62-11.28-16.5-18.19-28.72-15.39-9.66,2.21-15.95,9.85-16.42,18.52-2-1.47-3.95-2.16-5.82-1.97-1.08,.1-1.92,.49-2.65,.95-.15-1.11-.33-2.22-.69-3.33-3.62-11.28-16.5-18.19-28.72-15.39-12.22,2.8-19.21,14.26-15.6,25.54,3.62,11.28,16.5,18.19,28.72,15.39,9.6-2.2,15.89-9.76,16.42-18.37,.06-.11,1.06-1.93,2.97-2.15,1.54-.15,3.44,.92,5.51,3.03,.15,1.1,.33,2.21,.68,3.32,3.62,11.29,16.5,18.19,28.72,15.39,9.66-2.21,15.96-9.86,16.43-18.54l48.08-.08c.12,0,.24-.01,.35-.04,.63-.14,1.07-.67,1.04-1.29-.04-.73-.72-1.33-1.52-1.33Zm-119.5,17.47c-10.68,2.45-21.94-3.59-25.1-13.45-3.16-9.86,2.95-19.87,13.63-22.32,10.68-2.45,21.94,3.59,25.1,13.45,3.16,9.86-2.95,19.88-13.63,22.32Zm54.3,1.23c-10.68,2.45-21.94-3.59-25.1-13.45-3.16-9.86,2.95-19.87,13.63-22.32,10.68-2.45,21.94,3.59,25.1,13.45,3.16,9.86-2.95,19.88-13.63,22.32Z"/>
            </g>
          </g>
          <path class="cls-24" d="M912.86,312.64c-.21-7.75,6.86-21.38,21.34-20.81,14.99,.59,24.19,30.65-12.31,40.55-5.24,1.42-8.59-3.56-9.03-19.74Z"/>
        </g>
        <g>
          <path class="cls-25" d="M904.18,308.65c-5.66,20,.12,40.12,12.91,44.94,12.79,4.82,27.74-7.49,33.4-27.49,5.66-20-.12-40.12-12.91-44.94-12.79-4.82-27.74,7.49-33.4,27.49Z"/>
          <path class="cls-6" d="M904.18,308.65c-5.66,20,.12,40.12,12.91,44.94,12.79,4.82,27.74-7.49,33.4-27.49,5.66-20-.12-40.12-12.91-44.94-12.79-4.82-27.74,7.49-33.4,27.49Z"/>
          <path class="cls-25" d="M930.85,300.18s9.49-99.79-40.65-123.63c0,0,6.82-1.33,14.03,1.96,7.21,3.29,50.55,21.29,43.29,120.82l-16.67,.85Z"/>
          <path class="cls-3" d="M931.44,288.46c-.17,7.29-.59,11.74-.59,11.74l16.68-.88c.17-2.14,.29-4.23,.38-6.29,5.03-93.99-36.64-111.3-43.68-114.53-7.21-3.27-14.04-1.93-14.04-1.93,39.53,18.78,42,84.8,41.25,111.89Z"/>
          <path class="cls-20" d="M930.86,300.2l16.68-.88c.17-2.14,.29-4.23,.38-6.29,0,0-4.46-8.23-16.47-4.57-.17,7.29-.59,11.74-.59,11.74Z"/>
          <path class="cls-25" d="M916.88,314.64c-4.25,15.04,.09,30.17,9.71,33.79,9.61,3.62,20.86-5.63,25.11-20.67,4.25-15.04-.09-30.17-9.71-33.79-9.61-3.62-20.86,5.63-25.11,20.67Z"/>
          <path class="cls-3" d="M916.88,314.64c-4.25,15.04,.09,30.17,9.71,33.79,9.61,3.62,20.86-5.63,25.11-20.67,4.25-15.04-.09-30.17-9.71-33.79-9.61-3.62-20.86,5.63-25.11,20.67Z"/>
        </g>
      </g>
      <g>
        <path class="cls-16" d="M599.31,.5h80.62c15.31,0,27.72,12.41,27.72,27.72V61.67c0,15.31-12.41,27.72-27.72,27.72h-13.58l-3.22,19.9-15.43-19.9h-48.39c-15.31,0-27.72-12.41-27.72-27.72V28.22c0-15.31,12.41-27.72,27.72-27.72Z"/>
        <g>
          <path class="cls-2" d="M671.04,43.03c0,3.09,2.51,5.6,5.6,5.6s5.6-2.51,5.6-5.6-2.51-5.6-5.6-5.6-5.6,2.51-5.6,5.6Z"/>
          <path class="cls-2" d="M646.36,43.03c0,3.09,2.51,5.6,5.6,5.6s5.6-2.51,5.6-5.6-2.51-5.6-5.6-5.6-5.6,2.51-5.6,5.6Z"/>
          <path class="cls-2" d="M621.69,43.03c0,3.09,2.51,5.6,5.6,5.6s5.6-2.51,5.6-5.6-2.51-5.6-5.6-5.6-5.6,2.51-5.6,5.6Z"/>
          <path class="cls-2" d="M597.01,43.03c0,3.09,2.51,5.6,5.6,5.6s5.6-2.51,5.6-5.6-2.51-5.6-5.6-5.6-5.6,2.51-5.6,5.6Z"/>
        </g>
      </g>
      <g  class="cuadro2">
        <rect class="cls-22" x="392.02" y="235.8" width="227.35" height="213.6" rx="8.9" ry="8.9"/>
        <rect class="cls-13" x="392.02" y="235.8" width="227.35" height="213.6" rx="8.9" ry="8.9"/>
        <g>
          <g class="circle">
            <circle class="cls-22" cx="505.69" cy="342.6" r="73.72"/>
            <path class="cls-4" d="M505.69,342.6h73.72c0,40.44-33.28,73.72-73.72,73.72s-73.72-33.28-73.72-73.72,33.28-73.72,73.72-73.72c9.3,0,18.51,1.76,27.15,5.18l-27.15,68.54Z"/>
            <path class="cls-4" d="M505.69,342.6l-1.97,73.7c-39.69-1.06-71.76-34-71.76-73.7s33.28-73.72,73.72-73.72c9.3,0,18.51,1.76,27.15,5.18l-27.15,68.54Z"/>
          </g>
          <circle class="cls-2" cx="505.69" cy="342.6" r="45.99"/>
        </g>
        <g>
          <rect class="cls-2" x="414.56" y="260.04" width="33.12" height="17.34"/>
          <line class="cls-9" x1="431.12" y1="268.7" x2="459.71" y2="300.21"/>
          <path class="cls-2" d="M461.94,300.21c0,1.23-1,2.23-2.23,2.23s-2.23-1-2.23-2.23,1-2.23,2.23-2.23,2.23,1,2.23,2.23Z"/>
        </g>
        <g>
          <rect class="cls-2" x="559.43" y="253.67" width="33.12" height="17.34"/>
          <line class="cls-9" x1="575.99" y1="263.71" x2="556.57" y2="305.7"/>
          <circle class="cls-2" cx="556.57" cy="305.7" r="2.23"/>
        </g>
        <g>
          <rect class="cls-2" x="562.86" y="411.28" width="33.12" height="17.34"/>
          <line class="cls-9" x1="579.42" y1="419.95" x2="553.57" y2="381.58"/>
          <path class="cls-2" d="M555.8,381.58c0,1.23-1,2.23-2.23,2.23s-2.23-1-2.23-2.23,1-2.23,2.23-2.23,2.23,1,2.23,2.23Z"/>
        </g>
      </g>
      <g class="cuadro1">
        <rect class="cls-22" x="27.48" y="149.3" width="284.39" height="213.6" rx="8.9" ry="8.9"/>
        <rect class="cls-13" x="27.48" y="149.3" width="284.39" height="213.6" rx="8.9" ry="8.9"/>
        <g class="lineas">
          <rect class="cls-22" x="72.43" y="315.17" width="17.7" height="13.28"/>
          <rect class="cls-22" x="106.69" y="290.65" width="17.7" height="37.8"/>
          <rect class="cls-22" x="140.95" y="263.41" width="17.7" height="65.04"/>
          <rect class="cls-22" x="175.22" y="275.17" width="17.7" height="53.28"/>
          <rect class="cls-22" x="209.48" y="253.79" width="17.7" height="74.67"/>
          <rect class="cls-22" x="243.74" y="201.68" width="17.7" height="126.77"/>
        </g>
        <polyline class="cls-11" points="281.23 328.45 57.18 328.45 57.18 181.82"/>
      </g>
      <g>
        <circle class="cls-22" cx="1023.11" cy="64.3" r="44.51" transform="translate(254.19 742.28) rotate(-45)"/>
        <path class="cls-2" d="M1029.69,54.85c0-3.74-3.21-6.29-8.36-6.29s-8.56,1.87-10.9,5.15l-6.49-4.21c3.74-5.08,9.76-8.16,18.12-8.16,9.83,0,16.38,4.48,16.38,12.17,0,10.9-11.44,11.9-11.44,19.79h-8.49c0-9.9,11.17-11.77,11.17-18.46Zm-12.24,29.22c0-2.87,2.21-5.15,5.35-5.15s5.28,2.27,5.28,5.15-2.21,5.22-5.28,5.22-5.35-2.34-5.35-5.22Z"/>
        <polygon class="cls-22" points="1023.11 96.09 1017.02 104.34 1023.11 122.5 1029.2 104.34 1023.11 96.09"/>
      </g>
      <g>
        <g>
          <g>
            <rect class="cls-8" x="127.03" y="690.58" width="226.62" height="20.34"/>
            <path class="cls-25" d="M127.03,710.93s.03-.48,.05-1.37c.01-.93,.03-2.24,.06-3.94,.03-3.48,.08-8.53,.14-15.03l-.24,.24c37.76,.22,125.03,.37,226.61,.37h.01l-.61-.61c0,6.97,0,13.87,0,20.34l.61-.61c-63.43,.1-119.99,.19-160.74,.26-20.38,.08-36.8,.14-48.19,.18-5.65,.04-10.05,.07-13.08,.09-1.46,.02-2.6,.03-3.42,.04-.77,.01-1.19,.04-1.19,.04,0,0,.36,.03,1.11,.04,.8,.01,1.91,.02,3.34,.04,3.01,.02,7.35,.05,12.94,.09,11.35,.04,27.73,.11,48.05,.18,40.87,.07,97.59,.16,161.19,.26h.61s0-.61,0-.61c0-6.47,0-13.37,0-20.34l-.61-.61h-.01c-101.58,0-188.85,.15-226.61,.37h-.25s0,.24,0,.24c.06,6.56,.11,11.66,.14,15.17,.02,1.67,.04,2.96,.06,3.89,.02,.87,.05,1.29,.05,1.29Z"/>
          </g>
          <g>
            <rect class="cls-8" x="150.44" y="679.25" width="224.01" height="11.33"/>
            <path class="cls-25" d="M150.44,690.58s.02-.25,.03-.71c0-.51,.02-1.2,.04-2.1,.02-1.91,.06-4.71,.1-8.51l-.18,.18c28.43,.25,118.04,.43,223.99,.43h0c-.27-.27,.61,.61-.61-.61h0v.08s0,.09,0,.09v.55s0,.73,0,.73v1.45c0,.96,0,1.92,0,2.87,0,1.9,0,3.76,0,5.56l.61-.61c-62.32,.1-118.22,.19-158.6,.25-20.19,.08-36.49,.14-47.81,.18-5.61,.04-9.98,.07-13.01,.09-1.46,.02-2.59,.03-3.4,.04-.77,.01-1.19,.04-1.19,.04,0,0,.36,.03,1.1,.04,.8,.01,1.9,.02,3.32,.04,2.99,.02,7.32,.05,12.87,.09,11.28,.04,27.54,.11,47.67,.18,40.5,.06,96.56,.15,159.05,.25h.61s0-.61,0-.61c0-1.8,0-3.66,0-5.56,0-.95,0-1.91,0-2.87v-1.45s0-.73,0-.73v-.55s0-.09,0-.09v-.07h0c-1.23-1.24-.34-.35-.62-.62h0c-105.95,0-195.56,.18-223.99,.43h-.18s0,.18,0,.18c.05,3.85,.08,6.69,.1,8.62,.02,.89,.03,1.56,.04,2.06,.01,.45,.02,.66,.03,.65Z"/>
          </g>
          <path class="cls-25" d="M133.36,703.45c0,.34,49.07,.61,109.58,.61,60.53,0,109.59-.27,109.59-.61,0-.34-49.06-.61-109.59-.61-60.51,0-109.58,.27-109.58,.61Z"/>
          <path class="cls-25" d="M127.97,698.05c0,.34,49.07,.61,109.58,.61,60.53,0,109.59-.27,109.59-.61,0-.34-49.06-.61-109.59-.61-60.51,0-109.58,.27-109.58,.61Z"/>
        </g>
        <g>
          <g>
            <rect class="cls-18" x="100.28" y="575.43" width="7.95" height="114.97" transform="translate(45.78 -5.86) rotate(4.12)"/>
            <path class="cls-23" d="M108.14,655.67l-11.31-.82-2.67,37.03c-.23,3.12,2.12,5.84,5.25,6.06h0c3.12,.23,5.84-2.12,6.06-5.25l2.67-37.03Z"/>
            <rect class="cls-23" x="107.63" y="638.61" width="2.2" height="48.17" transform="translate(47.96 -6.11) rotate(4.13)"/>
            <path class="cls-25" d="M96.83,654.85c-.02,.25,4.63,.9,11.39,1.64l-.5-.59c-.2,2.59-.43,5.39-.66,8.34-.39,5.47-.68,10.43-.83,14.02-.15,3.59-.15,5.82,.01,5.83,.17,.01,.48-2.19,.85-5.77,.37-3.58,.79-8.53,1.19-14,.19-2.96,.38-5.76,.54-8.35l.04-.55-.54-.04c-6.78-.54-11.47-.78-11.5-.53Z"/>
          </g>
          <g>
            <rect class="cls-18" x="88.02" y="578.52" width="7.95" height="89.75" transform="translate(184 1246.79) rotate(180)"/>
            <path class="cls-23" d="M86.49,613.58h11.34v-37.12c0-3.13-2.54-5.67-5.67-5.67h0c-3.13,0-5.67,2.54-5.67,5.67v37.12Z"/>
            <rect class="cls-23" x="84.29" y="582.53" width="2.2" height="48.17" transform="translate(170.78 1213.22) rotate(180)"/>
            <path class="cls-25" d="M97.83,613.58c0-.25-4.68-.56-11.48-.81l.54,.56c.02-2.59,.04-5.4,.06-8.37,0-5.49-.07-10.45-.18-14.05-.11-3.59-.26-5.82-.43-5.82s-.32,2.22-.43,5.82c-.11,3.59-.18,8.56-.18,14.05,.02,2.96,.04,5.77,.06,8.37v.55s.54,0,.54,0c6.8,.06,11.5-.05,11.51-.3Z"/>
          </g>
          <g>
            <rect class="cls-18" x="72" y="599.58" width="7.95" height="89.75" transform="translate(151.95 1288.91) rotate(180)"/>
            <path class="cls-23" d="M70.46,634.64h11.34v-37.12c0-3.13-2.54-5.67-5.67-5.67h0c-3.13,0-5.67,2.54-5.67,5.67v37.12Z"/>
            <rect class="cls-23" x="68.26" y="603.59" width="2.2" height="48.17" transform="translate(138.73 1255.35) rotate(180)"/>
            <path class="cls-25" d="M81.8,634.64c0-.25-4.68-.56-11.48-.82l.54,.56c.02-2.59,.04-5.4,.06-8.37,0-5.49-.07-10.45-.18-14.05-.11-3.59-.26-5.82-.43-5.82s-.32,2.22-.43,5.82-.18,8.56-.18,14.05c.02,2.96,.04,5.77,.06,8.37v.55s.54,0,.54,0c6.8,.06,11.5-.05,11.51-.3Z"/>
          </g>
          <g>
            <rect class="cls-18" x="56.89" y="575.23" width="7.95" height="89.75" transform="translate(121.73 1240.21) rotate(180)"/>
            <path class="cls-23" d="M55.35,610.29h11.34v-37.12c0-3.13-2.54-5.67-5.67-5.67h0c-3.13,0-5.67,2.54-5.67,5.67v37.12Z"/>
            <rect class="cls-23" x="53.15" y="579.24" width="2.2" height="48.17" transform="translate(108.51 1206.65) rotate(180)"/>
            <path class="cls-25" d="M66.69,610.29c0-.25-4.68-.56-11.48-.81l.54,.56c.02-2.59,.04-5.4,.06-8.37,0-5.49-.07-10.45-.18-14.05-.11-3.59-.26-5.82-.43-5.82s-.32,2.22-.43,5.82c-.11,3.59-.18,8.56-.18,14.05,.02,2.96,.04,5.77,.06,8.37v.55s.54,0,.54,0c6.8,.06,11.5-.05,11.51-.3Z"/>
          </g>
          <polygon class="cls-16" points="54.15 711.1 105.14 711.1 111.85 636.62 46.85 636.62 54.15 711.1"/>
        </g>
        <rect class="cls-10" x=".5" y="710.73" width="1122.26" height="34.72"/>
        <rect class="cls-10" x=".5" y="710.73" width="583.61" height="34.72"/>
        <rect class="cls-10" x="18.3" y="745.45" width="1086.66" height="126.71"/>
        <rect class="cls-10" x="18.3" y="745.45" width="565.1" height="126.71"/>
      </g>
      <g>
        <polygon class="cls-7" points="670.61 701.04 441.53 701.04 396.33 528.45 625.42 528.45 670.61 701.04"/>
        <polygon class="cls-7" points="670.61 701.04 441.53 701.04 441.91 711.77 670.99 711.77 670.61 701.04"/>
        <polygon class="cls-7" points="670.61 701.04 795.24 701.04 795.62 711.77 670.99 711.77 670.61 701.04"/>
        <circle class="cls-26" cx="516.21" cy="614.74" r="22.82"/>
      </g>
      <g>
        <path class="cls-21" d="M920.8,523.69c-1.12,.24-13.88-3.77-20.68-1.59-6.8,2.18,2.11,6.03,8.06,8.61,0,0-1.13,1.78-3.12,1.78-1.98,0-28.46-9.8-15.71-14.55,9.36-3.49,23.3-1.86,30.04-.74,2.65,.44,4.43,2.25,3.89,4.12-.31,1.07-1.01,2.05-2.48,2.37Z"/>
        <path class="cls-1" d="M892.77,531.87c1.15-.16,13.27,4.73,20.35,3.04,7.08-1.69,.32-3.42-5.23-6.4,0,0,1.39-1.69,3.36-1.55,1.97,.14,25.35,9.03,11.98,12.86-9.82,2.81-23.45,.2-30-1.39-2.57-.62-4.08-2.56-3.27-4.38,.46-1.04,1.3-1.97,2.81-2.18Z"/>
      </g>
    </g>
  </g>
</svg>