<?xml version="1.0" encoding="UTF-8"?>
<svg id="Capa_2" data-name="Capa 2" xmlns="http://www.w3.org/2000/svg" xmlns:xlink="http://www.w3.org/1999/xlink" viewBox="0 0 1209.93 918.59">
  <defs>
    <style>
      .cls-1 {
        fill: url(#linear-gradient-75);
      }

      .cls-2 {
        fill: url(#linear-gradient-2);
      }

      .cls-3 {
        fill: url(#linear-gradient-51);
      }

      .cls-4 {
        fill: #ea5518;
      }

      .cls-5, .cls-6 {
        fill: #fff;
      }

      .cls-7 {
        fill: url(#linear-gradient-17);
      }

      .cls-8 {
        fill: url(#linear-gradient-87);
      }

      .cls-9 {
        fill: url(#linear-gradient-92);
      }

      .cls-10 {
        fill: url(#linear-gradient-80);
      }

      .cls-11 {
        fill: url(#linear-gradient-43);
      }

      .cls-12 {
        fill: url(#linear-gradient-15);
      }

      .cls-13 {
        fill: url(#linear-gradient-58);
      }

      .cls-14 {
        fill: url(#linear-gradient-69);
      }

      .cls-15 {
        fill: url(#linear-gradient-81);
      }

      .cls-16 {
        fill: url(#linear-gradient-18);
      }

      .cls-17 {
        fill: url(#linear-gradient-56);
      }

      .cls-18 {
        fill: url(#linear-gradient-40);
      }

      .cls-19 {
        fill: url(#linear-gradient-52);
      }

      .cls-20 {
        fill: url(#linear-gradient-28);
      }

      .cls-21 {
        fill: url(#linear-gradient-14);
      }

      .cls-22 {
        fill: url(#linear-gradient-36);
      }

      .cls-23 {
        fill: url(#linear-gradient-78);
      }

      .cls-24 {
        fill: url(#linear-gradient-20);
      }

      .cls-25 {
        fill: url(#linear-gradient-6);
      }

      .cls-26 {
        fill: url(#linear-gradient-53);
      }

      .cls-27 {
        fill: url(#linear-gradient-91);
      }

      .cls-28 {
        fill: url(#linear-gradient-60);
      }

      .cls-29 {
        fill: url(#linear-gradient-84);
      }

      .cls-30 {
        fill: url(#linear-gradient-35);
      }

      .cls-31 {
        fill: url(#linear-gradient-48);
      }

      .cls-32 {
        fill: url(#linear-gradient-32);
      }

      .cls-33 {
        fill: url(#linear-gradient-11);
      }

      .cls-34 {
        fill: url(#linear-gradient-50);
      }

      .cls-35 {
        fill: url(#linear-gradient-63);
      }

      .cls-36 {
        fill: url(#linear-gradient-67);
      }

      .cls-37 {
        fill: url(#linear-gradient-86);
      }

      .cls-38 {
        fill: url(#linear-gradient-39);
      }

      .cls-39 {
        fill: url(#linear-gradient-10);
      }

      .cls-40 {
        fill: url(#linear-gradient-59);
      }

      .cls-41 {
        fill: #003188;
      }

      .cls-42 {
        fill: url(#linear-gradient-49);
      }

      .cls-43 {
        fill: url(#linear-gradient-37);
      }

      .cls-44 {
        fill: url(#linear-gradient-82);
      }

      .cls-45 {
        fill: url(#linear-gradient-16);
      }

      .cls-46 {
        fill: url(#linear-gradient-31);
      }

      .cls-47 {
        fill: url(#linear-gradient-85);
      }

      .cls-48 {
        fill: url(#linear-gradient-61);
      }

      .cls-49 {
        fill: url(#linear-gradient-68);
      }

      .cls-50 {
        fill: url(#linear-gradient-62);
      }

      .cls-51 {
        fill: url(#linear-gradient-41);
      }

      .cls-52 {
        fill: url(#linear-gradient-76);
      }

      .cls-53 {
        fill: url(#linear-gradient-21);
      }

      .cls-54 {
        fill: url(#linear-gradient-72);
      }

      .cls-55 {
        fill: url(#linear-gradient-25);
      }

      .cls-56 {
        fill: url(#linear-gradient-89);
      }

      .cls-57 {
        fill: url(#linear-gradient-5);
      }

      .cls-58 {
        fill: url(#linear-gradient-64);
      }

      .cls-59 {
        fill: none;
      }

      .cls-59, .cls-60, .cls-61, .cls-62, .cls-63, .cls-6 {
        stroke: #003188;
        stroke-miterlimit: 10;
      }

      .cls-64 {
        fill: url(#linear-gradient-83);
      }

      .cls-65 {
        fill: url(#linear-gradient-54);
      }

      .cls-60 {
        fill: #cae0ff;
      }

      .cls-66 {
        fill: url(#linear-gradient-45);
      }

      .cls-67 {
        fill: url(#linear-gradient-55);
      }

      .cls-68 {
        fill: url(#linear-gradient-34);
      }

      .cls-69 {
        fill: url(#linear-gradient-65);
      }

      .cls-70 {
        fill: url(#linear-gradient-70);
      }

      .cls-61 {
        fill: #f7c9ba;
      }

      .cls-71 {
        fill: url(#linear-gradient-79);
      }

      .cls-72 {
        fill: url(#linear-gradient-88);
      }

      .cls-73 {
        fill: url(#linear-gradient-7);
      }

      .cls-74 {
        fill: url(#linear-gradient-66);
      }

      .cls-62 {
        fill: #ededef;
      }

      .cls-75 {
        fill: url(#linear-gradient-24);
      }

      .cls-76 {
        fill: url(#linear-gradient-73);
      }

      .cls-77 {
        fill: url(#linear-gradient-9);
      }

      .cls-78 {
        fill: url(#linear-gradient-22);
      }

      .cls-79 {
        fill: url(#linear-gradient-74);
      }

      .cls-80 {
        fill: url(#linear-gradient-42);
      }

      .cls-81 {
        fill: url(#linear-gradient-3);
      }

      .cls-63 {
        fill: #f4a487;
      }

      .cls-82 {
        fill: url(#linear-gradient);
      }

      .cls-83 {
        fill: url(#linear-gradient-27);
      }

      .cls-84 {
        fill: url(#linear-gradient-33);
      }

      .cls-85 {
        fill: url(#linear-gradient-38);
      }

      .cls-86 {
        fill: url(#linear-gradient-29);
      }

      .cls-87 {
        fill: url(#linear-gradient-30);
      }

      .cls-88 {
        fill: url(#linear-gradient-23);
      }

      .cls-89 {
        fill: url(#linear-gradient-19);
      }

      .cls-90 {
        fill: url(#linear-gradient-71);
      }

      .cls-91 {
        fill: url(#linear-gradient-4);
      }

      .cls-92 {
        fill: url(#linear-gradient-77);
      }

      .cls-93 {
        fill: url(#linear-gradient-8);
      }

      .cls-94 {
        fill: #acceef;
      }

      .cls-95 {
        fill: url(#linear-gradient-90);
      }

      .cls-96 {
        fill: url(#linear-gradient-44);
      }

      .cls-97 {
        fill: url(#linear-gradient-57);
      }

      .cls-98 {
        fill: url(#linear-gradient-47);
      }

      .cls-99 {
        fill: url(#linear-gradient-46);
      }

      .cls-100 {
        fill: url(#linear-gradient-12);
      }

      .cls-101 {
        fill: url(#linear-gradient-13);
      }

      .cls-102 {
        fill: url(#linear-gradient-26);
      }

      .d1{
        animation: d1Anim 7s infinite;

      }
      @keyframes d1Anim{
        10%{
          transform: translate(530px, 410px) scale(0.5);
          opacity: 1;
        }
        11%{
          opacity:0;
        }
        60%{
          transform: translate(0, 0) scale(1);
          opacity:0;
        }
        70%{
          opacity:1;
        }
      }

      .d2{
        animation: d2Anim 7s infinite;
      }
      @keyframes d2Anim{
        20%{
          transform: translate(0, 0) scale(1);
        }
        30%{
          transform: translate(640px, 170px) scale(0.5);
          opacity: 1;
        }
        31%{
          opacity:0;
        }
        60%{
          transform: translate(0, 0) scale(1);
          opacity:0;
        }
        70%{
          opacity:1;
        }
      }

      .d3{
        animation: d3Anim 7s infinite;
      }
      @keyframes d3Anim{
        10%{
           transform: translate(0, 0) scale(1);
        }
        20%{
          transform: translate(535px, 46px) scale(0.5);
          opacity: 1;
        }
        21%{
          opacity:0;
        }
        60%{
          transform: translate(0, 0) scale(1);
          opacity:0;
        }
        70%{
          opacity:1;
        }
      }


      .d4{
        animation: d4Anim 7s infinite;
      }
      @keyframes d4Anim{
        30%{
           transform: translate(0, 0) scale(1);
        }
        40%{
          transform: translate(635px, 287px) scale(0.5);
          opacity: 1;
        }
        41%{
          opacity:0;
        }
        60%{
          transform: translate(0, 0) scale(1);
          opacity:0;
        }
        70%{
          opacity:1;
        }
      }

      .carpeta1{
        animation: cp1 7s infinite;
        transform-box: fill-box;
        transform-origin: center;
      }
      @keyframes cp1{
        6%{transform: rotate(0deg)}
        8%{transform: rotate(5deg)}
        10%{transform: rotate(-5deg)}
        12%{transform: rotate(5deg)}
        14%{transform: rotate(0deg)}

        36%{transform: rotate(0deg)}
        38%{transform: rotate(5deg)}
        40%{transform: rotate(-5deg)}
        42%{transform: rotate(5deg)}
        44%{transform: rotate(0deg)}
      }


      .carpeta2{
        animation: cp2 7s infinite;
        transform-box: fill-box;
        transform-origin: center;
      }
      @keyframes cp2{
        16%{transform: rotate(0deg)}
        18%{transform: rotate(5deg)}
        20%{transform: rotate(-5deg)}
        22%{transform: rotate(5deg)}
        24%{transform: rotate(0deg)}

        26%{transform: rotate(0deg)}
        28%{transform: rotate(5deg)}
        30%{transform: rotate(-5deg)}
        32%{transform: rotate(5deg)}
        34%{transform: rotate(0deg)}
      }



    </style>
    <linearGradient id="linear-gradient" x1="499.96" y1="680.02" x2="308.53" y2="705.31" gradientTransform="translate(-160.48 -227.62) rotate(-.14)" gradientUnits="userSpaceOnUse">
      <stop offset="0" stop-color="#6986d9"/>
      <stop offset="1" stop-color="#8fb3ff"/>
    </linearGradient>
    <linearGradient id="linear-gradient-2" x1="500.87" y1="686.86" x2="309.43" y2="712.15" xlink:href="#linear-gradient"/>
    <linearGradient id="linear-gradient-3" x1="501.48" y1="691.49" x2="310.05" y2="716.78" xlink:href="#linear-gradient"/>
    <linearGradient id="linear-gradient-4" x1="502.05" y1="695.8" x2="310.62" y2="721.09" xlink:href="#linear-gradient"/>
    <linearGradient id="linear-gradient-5" x1="505.71" y1="723.54" x2="314.28" y2="748.83" xlink:href="#linear-gradient"/>
    <linearGradient id="linear-gradient-6" x1="506.57" y1="730.02" x2="315.14" y2="755.31" xlink:href="#linear-gradient"/>
    <linearGradient id="linear-gradient-7" x1="507.39" y1="736.21" x2="315.95" y2="761.5" xlink:href="#linear-gradient"/>
    <linearGradient id="linear-gradient-8" x1="508.07" y1="741.41" x2="316.65" y2="766.7" xlink:href="#linear-gradient"/>
    <linearGradient id="linear-gradient-9" x1="507.33" y1="735.76" x2="315.91" y2="761.05" xlink:href="#linear-gradient"/>
    <linearGradient id="linear-gradient-10" x1="510.99" y1="763.48" x2="319.56" y2="788.77" xlink:href="#linear-gradient"/>
    <linearGradient id="linear-gradient-11" x1="512.12" y1="772.05" x2="320.69" y2="797.34" xlink:href="#linear-gradient"/>
    <linearGradient id="linear-gradient-12" x1="512.74" y1="776.69" x2="321.3" y2="801.98" xlink:href="#linear-gradient"/>
    <linearGradient id="linear-gradient-13" x1="511.72" y1="769.01" x2="320.29" y2="794.3" xlink:href="#linear-gradient"/>
    <linearGradient id="linear-gradient-14" x1="516.17" y1="802.72" x2="324.74" y2="828.01" xlink:href="#linear-gradient"/>
    <linearGradient id="linear-gradient-15" x1="517.28" y1="811.08" x2="325.85" y2="836.37" xlink:href="#linear-gradient"/>
    <linearGradient id="linear-gradient-16" x1="518.05" y1="816.85" x2="326.61" y2="842.14" xlink:href="#linear-gradient"/>
    <linearGradient id="linear-gradient-17" x1="518.77" y1="822.37" x2="327.34" y2="847.66" xlink:href="#linear-gradient"/>
    <linearGradient id="linear-gradient-18" x1="516.95" y1="808.56" x2="325.52" y2="833.85" xlink:href="#linear-gradient"/>
    <linearGradient id="linear-gradient-19" x1="518.03" y1="816.73" x2="326.6" y2="842.02" xlink:href="#linear-gradient"/>
    <linearGradient id="linear-gradient-20" x1="351.41" y1="734.58" x2="387.12" y2="734.58" gradientTransform="translate(-160.48 -227.62) rotate(-.14)" xlink:href="#linear-gradient"/>
    <linearGradient id="linear-gradient-21" x1="351.41" y1="686.58" x2="387.12" y2="686.58" gradientTransform="translate(-160.48 -227.62) rotate(-.14)" xlink:href="#linear-gradient"/>
    <linearGradient id="linear-gradient-22" x1="351.42" y1="775.25" x2="387.12" y2="775.25" gradientTransform="translate(-160.48 -227.62) rotate(-.14)" xlink:href="#linear-gradient"/>
    <linearGradient id="linear-gradient-23" x1="351.42" y1="814.98" x2="387.12" y2="814.98" xlink:href="#linear-gradient"/>
    <linearGradient id="linear-gradient-24" x1="710.91" y1="680.52" x2="519.48" y2="705.81" xlink:href="#linear-gradient"/>
    <linearGradient id="linear-gradient-25" x1="711.82" y1="687.36" x2="520.38" y2="712.65" xlink:href="#linear-gradient"/>
    <linearGradient id="linear-gradient-26" x1="712.43" y1="692" x2="521" y2="717.28" xlink:href="#linear-gradient"/>
    <linearGradient id="linear-gradient-27" x1="713" y1="696.3" x2="521.56" y2="721.59" xlink:href="#linear-gradient"/>
    <linearGradient id="linear-gradient-28" x1="716.66" y1="724.04" x2="525.23" y2="749.33" xlink:href="#linear-gradient"/>
    <linearGradient id="linear-gradient-29" x1="717.52" y1="730.52" x2="526.09" y2="755.81" xlink:href="#linear-gradient"/>
    <linearGradient id="linear-gradient-30" x1="718.34" y1="736.71" x2="526.9" y2="762" xlink:href="#linear-gradient"/>
    <linearGradient id="linear-gradient-31" x1="719.02" y1="741.91" x2="527.6" y2="767.2" xlink:href="#linear-gradient"/>
    <linearGradient id="linear-gradient-32" x1="718.28" y1="736.27" x2="526.86" y2="761.55" xlink:href="#linear-gradient"/>
    <linearGradient id="linear-gradient-33" x1="721.94" y1="763.98" x2="530.51" y2="789.27" xlink:href="#linear-gradient"/>
    <linearGradient id="linear-gradient-34" x1="723.07" y1="772.55" x2="531.64" y2="797.84" xlink:href="#linear-gradient"/>
    <linearGradient id="linear-gradient-35" x1="723.69" y1="777.19" x2="532.25" y2="802.48" xlink:href="#linear-gradient"/>
    <linearGradient id="linear-gradient-36" x1="722.67" y1="769.51" x2="531.24" y2="794.8" xlink:href="#linear-gradient"/>
    <linearGradient id="linear-gradient-37" x1="727.12" y1="803.22" x2="535.69" y2="828.51" xlink:href="#linear-gradient"/>
    <linearGradient id="linear-gradient-38" x1="728.23" y1="811.58" x2="536.8" y2="836.87" xlink:href="#linear-gradient"/>
    <linearGradient id="linear-gradient-39" x1="729" y1="817.36" x2="537.56" y2="842.65" xlink:href="#linear-gradient"/>
    <linearGradient id="linear-gradient-40" x1="729.72" y1="822.87" x2="538.29" y2="848.16" xlink:href="#linear-gradient"/>
    <linearGradient id="linear-gradient-41" x1="727.9" y1="809.07" x2="536.46" y2="834.36" xlink:href="#linear-gradient"/>
    <linearGradient id="linear-gradient-42" x1="728.98" y1="817.24" x2="537.55" y2="842.52" xlink:href="#linear-gradient"/>
    <linearGradient id="linear-gradient-43" x1="562.36" y1="735.08" x2="598.07" y2="735.08" gradientTransform="translate(-160.48 -227.62) rotate(-.14)" xlink:href="#linear-gradient"/>
    <linearGradient id="linear-gradient-44" x1="562.36" y1="687.08" x2="598.07" y2="687.08" gradientTransform="translate(-160.48 -227.62) rotate(-.14)" xlink:href="#linear-gradient"/>
    <linearGradient id="linear-gradient-45" x1="562.36" y1="775.75" x2="598.07" y2="775.75" gradientTransform="translate(-160.48 -227.62) rotate(-.14)" xlink:href="#linear-gradient"/>
    <linearGradient id="linear-gradient-46" x1="562.36" y1="815.48" x2="598.07" y2="815.48" xlink:href="#linear-gradient"/>
    <linearGradient id="linear-gradient-47" x1="500.55" y1="431.9" x2="309.12" y2="457.19" xlink:href="#linear-gradient"/>
    <linearGradient id="linear-gradient-48" x1="501.46" y1="438.74" x2="310.02" y2="464.02" xlink:href="#linear-gradient"/>
    <linearGradient id="linear-gradient-49" x1="502.07" y1="443.37" x2="310.64" y2="468.66" xlink:href="#linear-gradient"/>
    <linearGradient id="linear-gradient-50" x1="502.64" y1="447.68" x2="311.21" y2="472.97" xlink:href="#linear-gradient"/>
    <linearGradient id="linear-gradient-51" x1="506.3" y1="475.42" x2="314.87" y2="500.71" xlink:href="#linear-gradient"/>
    <linearGradient id="linear-gradient-52" x1="507.16" y1="481.89" x2="315.73" y2="507.18" xlink:href="#linear-gradient"/>
    <linearGradient id="linear-gradient-53" x1="507.98" y1="488.09" x2="316.54" y2="513.38" xlink:href="#linear-gradient"/>
    <linearGradient id="linear-gradient-54" x1="508.66" y1="493.29" x2="317.24" y2="518.58" xlink:href="#linear-gradient"/>
    <linearGradient id="linear-gradient-55" x1="507.92" y1="487.64" x2="316.5" y2="512.93" xlink:href="#linear-gradient"/>
    <linearGradient id="linear-gradient-56" x1="511.58" y1="515.35" x2="320.15" y2="540.64" xlink:href="#linear-gradient"/>
    <linearGradient id="linear-gradient-57" x1="512.71" y1="523.93" x2="321.28" y2="549.22" xlink:href="#linear-gradient"/>
    <linearGradient id="linear-gradient-58" x1="513.33" y1="528.57" x2="321.89" y2="553.86" xlink:href="#linear-gradient"/>
    <linearGradient id="linear-gradient-59" x1="512.31" y1="520.89" x2="320.88" y2="546.18" xlink:href="#linear-gradient"/>
    <linearGradient id="linear-gradient-60" x1="516.76" y1="554.6" x2="325.33" y2="579.89" xlink:href="#linear-gradient"/>
    <linearGradient id="linear-gradient-61" x1="517.87" y1="562.96" x2="326.44" y2="588.25" xlink:href="#linear-gradient"/>
    <linearGradient id="linear-gradient-62" x1="518.64" y1="568.73" x2="327.2" y2="594.02" xlink:href="#linear-gradient"/>
    <linearGradient id="linear-gradient-63" x1="519.36" y1="574.25" x2="327.93" y2="599.54" xlink:href="#linear-gradient"/>
    <linearGradient id="linear-gradient-64" x1="517.54" y1="560.44" x2="326.11" y2="585.73" xlink:href="#linear-gradient"/>
    <linearGradient id="linear-gradient-65" x1="518.62" y1="568.61" x2="327.19" y2="593.9" xlink:href="#linear-gradient"/>
    <linearGradient id="linear-gradient-66" x1="352" y1="486.46" x2="387.71" y2="486.46" gradientTransform="translate(-160.48 -227.62) rotate(-.14)" xlink:href="#linear-gradient"/>
    <linearGradient id="linear-gradient-67" x1="352" y1="438.46" x2="387.71" y2="438.46" gradientTransform="translate(-160.48 -227.62) rotate(-.14)" xlink:href="#linear-gradient"/>
    <linearGradient id="linear-gradient-68" x1="352.01" y1="527.13" x2="387.71" y2="527.13" gradientTransform="translate(-160.48 -227.62) rotate(-.14)" xlink:href="#linear-gradient"/>
    <linearGradient id="linear-gradient-69" x1="352.01" y1="566.86" x2="387.71" y2="566.86" xlink:href="#linear-gradient"/>
    <linearGradient id="linear-gradient-70" x1="711.5" y1="432.4" x2="520.07" y2="457.69" xlink:href="#linear-gradient"/>
    <linearGradient id="linear-gradient-71" x1="712.41" y1="439.24" x2="520.97" y2="464.53" xlink:href="#linear-gradient"/>
    <linearGradient id="linear-gradient-72" x1="713.02" y1="443.87" x2="521.59" y2="469.16" xlink:href="#linear-gradient"/>
    <linearGradient id="linear-gradient-73" x1="713.59" y1="448.18" x2="522.15" y2="473.47" xlink:href="#linear-gradient"/>
    <linearGradient id="linear-gradient-74" x1="717.25" y1="475.92" x2="525.82" y2="501.21" xlink:href="#linear-gradient"/>
    <linearGradient id="linear-gradient-75" x1="718.11" y1="482.4" x2="526.68" y2="507.69" xlink:href="#linear-gradient"/>
    <linearGradient id="linear-gradient-76" x1="718.93" y1="488.59" x2="527.49" y2="513.88" xlink:href="#linear-gradient"/>
    <linearGradient id="linear-gradient-77" x1="719.61" y1="493.79" x2="528.19" y2="519.08" xlink:href="#linear-gradient"/>
    <linearGradient id="linear-gradient-78" x1="718.87" y1="488.15" x2="527.45" y2="513.43" xlink:href="#linear-gradient"/>
    <linearGradient id="linear-gradient-79" x1="722.53" y1="515.86" x2="531.1" y2="541.15" xlink:href="#linear-gradient"/>
    <linearGradient id="linear-gradient-80" x1="723.66" y1="524.43" x2="532.23" y2="549.72" xlink:href="#linear-gradient"/>
    <linearGradient id="linear-gradient-81" x1="724.28" y1="529.07" x2="532.84" y2="554.36" xlink:href="#linear-gradient"/>
    <linearGradient id="linear-gradient-82" x1="723.26" y1="521.39" x2="531.83" y2="546.68" xlink:href="#linear-gradient"/>
    <linearGradient id="linear-gradient-83" x1="727.71" y1="555.1" x2="536.28" y2="580.39" xlink:href="#linear-gradient"/>
    <linearGradient id="linear-gradient-84" x1="728.82" y1="563.46" x2="537.39" y2="588.75" xlink:href="#linear-gradient"/>
    <linearGradient id="linear-gradient-85" x1="729.59" y1="569.23" x2="538.15" y2="594.52" xlink:href="#linear-gradient"/>
    <linearGradient id="linear-gradient-86" x1="730.31" y1="574.75" x2="538.88" y2="600.04" xlink:href="#linear-gradient"/>
    <linearGradient id="linear-gradient-87" x1="728.49" y1="560.94" x2="537.05" y2="586.23" xlink:href="#linear-gradient"/>
    <linearGradient id="linear-gradient-88" x1="729.57" y1="569.11" x2="538.14" y2="594.4" xlink:href="#linear-gradient"/>
    <linearGradient id="linear-gradient-89" x1="562.95" y1="486.96" x2="598.66" y2="486.96" gradientTransform="translate(-160.48 -227.62) rotate(-.14)" xlink:href="#linear-gradient"/>
    <linearGradient id="linear-gradient-90" x1="562.95" y1="438.96" x2="598.66" y2="438.96" gradientTransform="translate(-160.48 -227.62) rotate(-.14)" xlink:href="#linear-gradient"/>
    <linearGradient id="linear-gradient-91" x1="562.95" y1="527.63" x2="598.66" y2="527.63" gradientTransform="translate(-160.48 -227.62) rotate(-.14)" xlink:href="#linear-gradient"/>
    <linearGradient id="linear-gradient-92" x1="562.95" y1="567.36" x2="598.66" y2="567.36" xlink:href="#linear-gradient"/>
  </defs>
  <g id="Capa_2-2" data-name="Capa 2">
    <g>
      <path class="cls-4" d="M608.93,825.7c99.14,3.18,209.21-4.75,258.89-4.75s143.44,2.23,179.62-37.06c65.98-71.66,170.43-316.11,39.2-542.55C955.42,14.9,709.9-68.94,440.67,62.29,171.45,193.51,68.17,299.6,18.07,490.8c-31.93,121.86-45.27,298.98,170.43,329.69,18.97,2.7,272.29,.47,420.44,5.22Z"/>
      <line class="cls-59" x1="57.37" y1="823.18" x2="1206.38" y2="823.18"/>
      <g>
        <rect class="cls-6" x="445.87" y="722.67" width="174.36" height="85.29"/>
        <rect class="cls-60" x="80.66" y="84.15" width="918.9" height="645.59" rx="46.28" ry="46.28"/>
        <path class="cls-6" d="M136.83,101.53H943.4c19.42,0,35.18,15.76,35.18,35.18V677.02H101.64V136.71c0-19.42,15.76-35.18,35.18-35.18Z"/>
        <rect class="cls-60" x="300.18" y="799.35" width="465.73" height="43.2"/>
        <rect class="cls-63" x="490.63" y="694.19" width="89.53" height="17.28" rx="8.64" ry="8.64"/>
      </g>
      
      <g  class="d4">
        <path class="cls-62" d="M330.48,631.29c0,2.89-2.33,5.23-5.21,5.24l-140.54,.34c-2.88,0-5.23-2.33-5.24-5.22l-.46-190.88c0-2.89,2.33-5.23,5.21-5.24l140.54-.34c2.89,0,5.23,2.33,5.24,5.21l.46,190.88Z"/>
        <g>
          <path class="cls-5" d="M207.14,458.35c5.25-.01,9.53,4.25,9.55,9.5,.01,5.25-4.25,9.53-9.5,9.55-5.25,.01-9.53-4.25-9.55-9.5-.01-5.25,4.25-9.53,9.5-9.55m0-2.09c-6.41,.02-11.6,5.23-11.59,11.64,.02,6.41,5.23,11.6,11.64,11.59,6.42-.01,11.6-5.23,11.59-11.64-.02-6.41-5.23-11.6-11.64-11.59h0Z"/>
          <path class="cls-5" d="M207.25,503.84c5.25-.01,9.53,4.25,9.55,9.5,.01,5.25-4.25,9.54-9.5,9.55-5.25,.01-9.53-4.25-9.55-9.5-.01-5.25,4.25-9.54,9.5-9.55m0-2.09c-6.41,.01-11.6,5.23-11.59,11.64,.02,6.42,5.23,11.6,11.64,11.59,6.42-.01,11.6-5.23,11.59-11.64-.01-6.41-5.23-11.6-11.64-11.59h0Z"/>
          <path class="cls-5" d="M207.38,545.03c5.25-.01,9.53,4.25,9.55,9.5,.01,5.25-4.25,9.54-9.5,9.55-5.25,.01-9.53-4.25-9.55-9.5-.01-5.25,4.25-9.54,9.5-9.55m0-2.09c-6.41,.01-11.6,5.23-11.59,11.64,.02,6.42,5.23,11.6,11.64,11.59,6.41-.02,11.6-5.23,11.59-11.65-.02-6.41-5.23-11.6-11.64-11.58h0Z"/>
          <path class="cls-5" d="M207.44,586.22c5.25-.01,9.53,4.25,9.55,9.5,.01,5.25-4.25,9.54-9.5,9.55-5.25,.01-9.53-4.25-9.55-9.5-.01-5.25,4.25-9.54,9.5-9.55m0-2.09c-6.42,.02-11.6,5.23-11.59,11.64,.02,6.42,5.23,11.6,11.64,11.59,6.41-.01,11.6-5.23,11.59-11.64-.02-6.42-5.23-11.61-11.64-11.59h0Z"/>
        </g>
        <g>
          <path class="cls-82" d="M232.31,461.03l80.34-.19c.29,0,.52-.23,.52-.52,0-.29-.23-.52-.52-.52l-80.34,.19c-.29,0-.52,.24-.52,.52,0,.29,.24,.52,.52,.52Z"/>
          <path class="cls-2" d="M232.33,468.34l75.02-.18c.29,0,.52-.24,.52-.52,0-.29-.24-.52-.53-.52l-75.02,.18c-.29,0-.52,.24-.52,.52,0,.29,.24,.52,.52,.52Z"/>
          <path class="cls-81" d="M232.34,475.65l35.81-.09c.29,0,.52-.24,.52-.52,0-.29-.23-.52-.52-.52l-35.81,.08c-.29,0-.52,.24-.52,.53,0,.29,.24,.52,.52,.52Z"/>
          <path class="cls-91" d="M272.51,474.51c-.29,0-.52,.24-.52,.52,0,.29,.24,.52,.52,.52l21.78-.05c.29,0,.52-.24,.52-.53,0-.29-.23-.52-.52-.52l-21.78,.05Z"/>
          <path class="cls-57" d="M232.42,506.53l61.95-.15c.29,0,.52-.24,.52-.53,0-.29-.23-.52-.52-.52l-61.95,.15c-.29,0-.52,.23-.52,.52,0,.29,.23,.52,.52,.52Z"/>
          <path class="cls-25" d="M232.44,513.83l51.06-.12c.29,0,.52-.24,.52-.52,0-.29-.24-.52-.52-.52l-51.06,.12c-.29,0-.52,.23-.52,.52,0,.29,.23,.52,.52,.52Z"/>
          <path class="cls-73" d="M232.45,521.14l35.81-.08c.29,0,.52-.24,.52-.53,0-.29-.24-.52-.52-.52l-35.81,.09c-.29,0-.52,.23-.52,.52,0,.29,.24,.52,.53,.52Z"/>
          <path class="cls-93" d="M308.78,520.43c0-.29-.23-.52-.52-.52l-35.63,.09c-.29,0-.52,.23-.52,.53,0,.29,.24,.52,.52,.52l35.63-.09c.29,0,.52-.24,.52-.52Z"/>
          <path class="cls-77" d="M287.15,513.18c0,.29,.23,.52,.52,.52l29.15-.07c.29,0,.52-.23,.52-.52,0-.29-.24-.52-.52-.52l-29.15,.07c-.29,0-.52,.23-.52,.52Z"/>
          <path class="cls-39" d="M232.52,547.71l53.55-.13c.29,0,.52-.23,.52-.52,0-.29-.24-.52-.52-.52l-53.55,.13c-.29,0-.52,.23-.52,.52,0,.29,.23,.52,.52,.52Z"/>
          <path class="cls-33" d="M232.54,555.02l75.01-.18c.29,0,.52-.24,.52-.53,0-.29-.24-.52-.52-.52l-75.02,.18c-.29,0-.52,.24-.52,.53,0,.29,.24,.52,.53,.52Z"/>
          <path class="cls-100" d="M232.55,562.32l35.82-.08c.29,0,.52-.24,.52-.52,0-.29-.24-.52-.52-.52l-35.82,.09c-.29,0-.52,.23-.52,.52,0,.29,.24,.52,.52,.52Z"/>
          <path class="cls-101" d="M291.03,547.57l21.83-.05c.29,0,.52-.24,.52-.53,0-.29-.23-.52-.52-.52l-21.83,.05c-.29,0-.52,.23-.52,.52,0,.29,.24,.52,.52,.52Z"/>
          <path class="cls-21" d="M232.62,588.9l34.46-.08c.29,0,.52-.24,.52-.53,0-.29-.24-.52-.52-.52l-34.46,.08c-.29,0-.52,.23-.52,.52,0,.29,.24,.52,.52,.52Z"/>
          <path class="cls-12" d="M232.63,596.2l52.68-.13c.29,0,.52-.23,.52-.52,0-.29-.24-.52-.52-.52l-52.68,.13c-.29,0-.52,.24-.52,.52,0,.29,.24,.52,.52,.52Z"/>
          <path class="cls-45" d="M263.62,602.39l-30.97,.07c-.29,0-.52,.24-.52,.52,0,.29,.24,.52,.52,.52l30.97-.08c.29,0,.52-.23,.52-.52,0-.29-.24-.52-.53-.52Z"/>
          <path class="cls-7" d="M308.45,602.28l-35.63,.08c-.29,0-.52,.24-.52,.53,0,.29,.24,.52,.52,.52l35.63-.09c.29,0,.52-.24,.52-.52,0-.29-.23-.52-.52-.52Z"/>
          <path class="cls-16" d="M317,587.65l-44.22,.11c-.29,0-.52,.23-.52,.52,0,.29,.24,.52,.53,.52l44.22-.11c.29,0,.52-.23,.52-.52,0-.29-.24-.52-.52-.52Z"/>
          <path class="cls-89" d="M317.02,594.95l-29.03,.07c-.29,0-.52,.24-.52,.52,0,.29,.23,.52,.52,.52l29.03-.07c.29,0,.52-.24,.52-.53,0-.29-.24-.52-.52-.52Z"/>
        </g>
        <g>
          <path class="cls-24" d="M207.25,519.6c-.58,0-1.14-.22-1.57-.61l-12.26-11.22c-.94-.86-1.01-2.32-.15-3.26,.86-.94,2.33-1.01,3.27-.15l10.48,9.59,17.24-20.64c.82-.98,2.28-1.11,3.26-.29,.98,.82,1.11,2.28,.29,3.26l-18.79,22.5c-.41,.48-.99,.78-1.62,.82-.05,0-.1,0-.15,0Z"/>
          <path class="cls-53" d="M207.13,471.6c-.58,0-1.14-.21-1.57-.61l-12.26-11.22c-.94-.86-1-2.33-.14-3.27,.86-.94,2.33-1.01,3.27-.15l10.48,9.59,17.24-20.64c.82-.98,2.28-1.11,3.26-.29,.98,.82,1.11,2.28,.29,3.26l-18.8,22.5c-.4,.48-.99,.78-1.62,.82-.05,0-.1,0-.15,0Z"/>
          <path class="cls-78" d="M207.34,560.26c-.58,0-1.14-.21-1.57-.61l-12.26-11.22c-.94-.86-1.01-2.32-.15-3.26,.86-.94,2.32-1.01,3.27-.15l10.48,9.59,17.25-20.64c.82-.98,2.27-1.11,3.26-.29,.98,.82,1.11,2.28,.29,3.26l-18.79,22.5c-.4,.48-.99,.78-1.62,.82-.05,0-.1,0-.15,0Z"/>
          <path class="cls-88" d="M207.44,600c-.58,0-1.14-.22-1.57-.61l-12.26-11.22c-.94-.86-1.01-2.32-.15-3.27,.86-.94,2.33-1,3.27-.15l10.48,9.59,17.24-20.64c.82-.98,2.28-1.11,3.26-.29,.98,.82,1.11,2.27,.29,3.26l-18.8,22.5c-.4,.48-.99,.78-1.62,.82-.05,0-.1,0-.15,0Z"/>
        </g>
      </g>
      <g  class="d3">
        <path class="cls-62" d="M541.42,631.29c0,2.89-2.33,5.23-5.21,5.24l-140.54,.34c-2.88,0-5.23-2.33-5.24-5.22l-.46-190.88c0-2.89,2.33-5.23,5.21-5.24l140.54-.34c2.89,0,5.23,2.33,5.24,5.21l.46,190.88Z"/>
        <g>
          <path class="cls-5" d="M418.08,458.35c5.25-.01,9.53,4.25,9.55,9.5,.01,5.25-4.25,9.53-9.5,9.55-5.25,.01-9.53-4.25-9.55-9.5-.01-5.25,4.25-9.53,9.5-9.55m0-2.09c-6.41,.02-11.6,5.23-11.59,11.64,.02,6.41,5.23,11.6,11.64,11.59,6.42-.01,11.6-5.23,11.59-11.64-.02-6.41-5.23-11.6-11.64-11.59h0Z"/>
          <path class="cls-5" d="M418.19,503.84c5.25-.01,9.53,4.25,9.55,9.5,.01,5.25-4.25,9.54-9.5,9.55-5.25,.01-9.53-4.25-9.55-9.5-.01-5.25,4.25-9.54,9.5-9.55m0-2.09c-6.41,.01-11.6,5.23-11.59,11.64,.02,6.42,5.23,11.6,11.64,11.59,6.42-.01,11.6-5.23,11.59-11.64-.01-6.41-5.23-11.6-11.64-11.59h0Z"/>
          <path class="cls-5" d="M418.32,545.03c5.25-.01,9.53,4.25,9.55,9.5,.01,5.25-4.25,9.54-9.5,9.55-5.25,.01-9.53-4.25-9.55-9.5-.01-5.25,4.25-9.54,9.5-9.55m0-2.09c-6.41,.01-11.6,5.23-11.59,11.64,.02,6.42,5.23,11.6,11.64,11.59,6.41-.02,11.6-5.23,11.59-11.65-.02-6.41-5.23-11.6-11.64-11.58h0Z"/>
          <path class="cls-5" d="M418.38,586.22c5.25-.01,9.53,4.25,9.55,9.5,.01,5.25-4.25,9.54-9.5,9.55-5.25,.01-9.53-4.25-9.55-9.5-.01-5.25,4.25-9.54,9.5-9.55m0-2.09c-6.42,.02-11.6,5.23-11.59,11.64,.02,6.42,5.23,11.6,11.64,11.59,6.41-.01,11.6-5.23,11.59-11.64-.02-6.42-5.23-11.61-11.64-11.59h0Z"/>
        </g>
        <g>
          <path class="cls-75" d="M443.25,461.03l80.34-.19c.29,0,.52-.23,.52-.52,0-.29-.23-.52-.52-.52l-80.34,.19c-.29,0-.52,.24-.52,.52,0,.29,.24,.52,.52,.52Z"/>
          <path class="cls-55" d="M443.27,468.34l75.02-.18c.29,0,.52-.24,.52-.52,0-.29-.24-.52-.53-.52l-75.02,.18c-.29,0-.52,.24-.52,.52,0,.29,.24,.52,.52,.52Z"/>
          <path class="cls-102" d="M443.29,475.65l35.81-.09c.29,0,.52-.24,.52-.52,0-.29-.23-.52-.52-.52l-35.81,.08c-.29,0-.52,.24-.52,.53,0,.29,.24,.52,.52,.52Z"/>
          <path class="cls-83" d="M483.45,474.51c-.29,0-.52,.24-.52,.52,0,.29,.24,.52,.52,.52l21.78-.05c.29,0,.52-.24,.52-.53,0-.29-.23-.52-.52-.52l-21.78,.05Z"/>
          <path class="cls-20" d="M443.36,506.53l61.95-.15c.29,0,.52-.24,.52-.53,0-.29-.23-.52-.52-.52l-61.95,.15c-.29,0-.52,.23-.52,.52,0,.29,.23,.52,.52,.52Z"/>
          <path class="cls-86" d="M443.38,513.83l51.06-.12c.29,0,.52-.24,.52-.52,0-.29-.24-.52-.52-.52l-51.06,.12c-.29,0-.52,.23-.52,.52,0,.29,.23,.52,.52,.52Z"/>
          <path class="cls-87" d="M443.39,521.14l35.81-.08c.29,0,.52-.24,.52-.53,0-.29-.24-.52-.52-.52l-35.81,.09c-.29,0-.52,.23-.52,.52,0,.29,.24,.52,.53,.52Z"/>
          <path class="cls-46" d="M519.72,520.43c0-.29-.23-.52-.52-.52l-35.63,.09c-.29,0-.52,.23-.52,.53,0,.29,.24,.52,.52,.52l35.63-.09c.29,0,.52-.24,.52-.52Z"/>
          <path class="cls-32" d="M498.09,513.18c0,.29,.23,.52,.52,.52l29.15-.07c.29,0,.52-.23,.52-.52,0-.29-.24-.52-.52-.52l-29.15,.07c-.29,0-.52,.23-.52,.52Z"/>
          <path class="cls-84" d="M443.46,547.71l53.55-.13c.29,0,.52-.23,.52-.52,0-.29-.24-.52-.52-.52l-53.55,.13c-.29,0-.52,.23-.52,.52,0,.29,.23,.52,.52,.52Z"/>
          <path class="cls-68" d="M443.48,555.02l75.01-.18c.29,0,.52-.24,.52-.53,0-.29-.24-.52-.52-.52l-75.02,.18c-.29,0-.52,.24-.52,.53,0,.29,.24,.52,.53,.52Z"/>
          <path class="cls-30" d="M443.49,562.32l35.82-.08c.29,0,.52-.24,.52-.52,0-.29-.24-.52-.52-.52l-35.82,.09c-.29,0-.52,.23-.52,.52,0,.29,.24,.52,.52,.52Z"/>
          <path class="cls-22" d="M501.97,547.57l21.83-.05c.29,0,.52-.24,.52-.53,0-.29-.23-.52-.52-.52l-21.83,.05c-.29,0-.52,.23-.52,.52,0,.29,.24,.52,.52,.52Z"/>
          <path class="cls-43" d="M443.56,588.9l34.46-.08c.29,0,.52-.24,.52-.53,0-.29-.24-.52-.52-.52l-34.46,.08c-.29,0-.52,.23-.52,.52,0,.29,.24,.52,.52,.52Z"/>
          <path class="cls-85" d="M443.57,596.2l52.68-.13c.29,0,.52-.23,.52-.52,0-.29-.24-.52-.52-.52l-52.68,.13c-.29,0-.52,.24-.52,.52,0,.29,.24,.52,.52,.52Z"/>
          <path class="cls-38" d="M474.56,602.39l-30.97,.07c-.29,0-.52,.24-.52,.52,0,.29,.24,.52,.52,.52l30.97-.08c.29,0,.52-.23,.52-.52,0-.29-.24-.52-.53-.52Z"/>
          <path class="cls-18" d="M519.39,602.28l-35.63,.08c-.29,0-.52,.24-.52,.53,0,.29,.24,.52,.52,.52l35.63-.09c.29,0,.52-.24,.52-.52,0-.29-.23-.52-.52-.52Z"/>
          <path class="cls-51" d="M527.94,587.65l-44.22,.11c-.29,0-.52,.23-.52,.52,0,.29,.24,.52,.53,.52l44.22-.11c.29,0,.52-.23,.52-.52,0-.29-.24-.52-.52-.52Z"/>
          <path class="cls-80" d="M527.96,594.95l-29.03,.07c-.29,0-.52,.24-.52,.52,0,.29,.23,.52,.52,.52l29.03-.07c.29,0,.52-.24,.52-.53,0-.29-.24-.52-.52-.52Z"/>
        </g>
        <g>
          <path class="cls-11" d="M418.19,519.6c-.58,0-1.14-.22-1.57-.61l-12.26-11.22c-.94-.86-1.01-2.32-.15-3.26,.86-.94,2.33-1.01,3.27-.15l10.48,9.59,17.24-20.64c.82-.98,2.28-1.11,3.26-.29,.98,.82,1.11,2.28,.29,3.26l-18.79,22.5c-.41,.48-.99,.78-1.62,.82-.05,0-.1,0-.15,0Z"/>
          <path class="cls-96" d="M418.07,471.6c-.58,0-1.14-.21-1.57-.61l-12.26-11.22c-.94-.86-1-2.33-.14-3.27,.86-.94,2.33-1.01,3.27-.15l10.48,9.59,17.24-20.64c.82-.98,2.28-1.11,3.26-.29,.98,.82,1.11,2.28,.29,3.26l-18.8,22.5c-.4,.48-.99,.78-1.62,.82-.05,0-.1,0-.15,0Z"/>
          <path class="cls-66" d="M418.28,560.26c-.58,0-1.14-.21-1.57-.61l-12.26-11.22c-.94-.86-1.01-2.32-.15-3.26,.86-.94,2.32-1.01,3.27-.15l10.48,9.59,17.25-20.64c.82-.98,2.27-1.11,3.26-.29,.98,.82,1.11,2.28,.29,3.26l-18.79,22.5c-.4,.48-.99,.78-1.62,.82-.05,0-.1,0-.15,0Z"/>
          <path class="cls-99" d="M418.38,600c-.58,0-1.14-.22-1.57-.61l-12.26-11.22c-.94-.86-1.01-2.32-.15-3.27,.86-.94,2.33-1,3.27-.15l10.48,9.59,17.24-20.64c.82-.98,2.28-1.11,3.26-.29,.98,.82,1.11,2.27,.29,3.26l-18.8,22.5c-.4,.48-.99,.78-1.62,.82-.05,0-.1,0-.15,0Z"/>
        </g>
      </g>
      <g  class="d2">
        <path class="cls-62" d="M330.48,383.18c0,2.89-2.33,5.23-5.21,5.24l-140.54,.34c-2.88,0-5.23-2.33-5.24-5.22l-.46-190.88c0-2.89,2.33-5.23,5.21-5.24l140.54-.34c2.89,0,5.23,2.33,5.24,5.21l.46,190.88Z"/>
        <g>
          <path class="cls-5" d="M207.14,210.24c5.25-.01,9.53,4.25,9.55,9.5,.01,5.25-4.25,9.53-9.5,9.55-5.25,.01-9.53-4.25-9.55-9.5-.01-5.25,4.25-9.53,9.5-9.55m0-2.09c-6.41,.02-11.6,5.23-11.59,11.64,.02,6.41,5.23,11.6,11.64,11.59,6.42-.01,11.6-5.23,11.59-11.64-.02-6.41-5.23-11.6-11.64-11.59h0Z"/>
          <path class="cls-5" d="M207.25,255.73c5.25-.01,9.53,4.25,9.55,9.5,.01,5.25-4.25,9.54-9.5,9.55-5.25,.01-9.53-4.25-9.55-9.5-.01-5.25,4.25-9.54,9.5-9.55m0-2.09c-6.41,.01-11.6,5.23-11.59,11.64,.02,6.42,5.23,11.6,11.64,11.59,6.42-.01,11.6-5.23,11.59-11.64-.01-6.41-5.23-11.6-11.64-11.59h0Z"/>
          <path class="cls-5" d="M207.38,296.92c5.25-.01,9.53,4.25,9.55,9.5,.01,5.25-4.25,9.54-9.5,9.55-5.25,.01-9.53-4.25-9.55-9.5-.01-5.25,4.25-9.54,9.5-9.55m0-2.09c-6.41,.01-11.6,5.23-11.59,11.64,.02,6.42,5.23,11.6,11.64,11.59,6.41-.02,11.6-5.23,11.59-11.65-.02-6.41-5.23-11.6-11.64-11.58h0Z"/>
          <path class="cls-5" d="M207.44,338.1c5.25-.01,9.53,4.25,9.55,9.5,.01,5.25-4.25,9.54-9.5,9.55-5.25,.01-9.53-4.25-9.55-9.5-.01-5.25,4.25-9.54,9.5-9.55m0-2.09c-6.42,.02-11.6,5.23-11.59,11.64,.02,6.42,5.23,11.6,11.64,11.59,6.41-.01,11.6-5.23,11.59-11.64-.02-6.42-5.23-11.61-11.64-11.59h0Z"/>
        </g>
        <g>
          <path class="cls-98" d="M232.31,212.92l80.34-.19c.29,0,.52-.23,.52-.52,0-.29-.23-.52-.52-.52l-80.34,.19c-.29,0-.52,.24-.52,.52,0,.29,.24,.52,.52,.52Z"/>
          <path class="cls-31" d="M232.33,220.23l75.02-.18c.29,0,.52-.24,.52-.52,0-.29-.24-.52-.53-.52l-75.02,.18c-.29,0-.52,.24-.52,.52,0,.29,.24,.52,.52,.52Z"/>
          <path class="cls-42" d="M232.34,227.54l35.81-.09c.29,0,.52-.24,.52-.52,0-.29-.23-.52-.52-.52l-35.81,.08c-.29,0-.52,.24-.52,.53,0,.29,.24,.52,.52,.52Z"/>
          <path class="cls-34" d="M272.51,226.39c-.29,0-.52,.24-.52,.52,0,.29,.24,.52,.52,.52l21.78-.05c.29,0,.52-.24,.52-.53,0-.29-.23-.52-.52-.52l-21.78,.05Z"/>
          <path class="cls-3" d="M232.42,258.42l61.95-.15c.29,0,.52-.24,.52-.53,0-.29-.23-.52-.52-.52l-61.95,.15c-.29,0-.52,.23-.52,.52,0,.29,.23,.52,.52,.52Z"/>
          <path class="cls-19" d="M232.44,265.72l51.06-.12c.29,0,.52-.24,.52-.52,0-.29-.24-.52-.52-.52l-51.06,.12c-.29,0-.52,.23-.52,.52,0,.29,.23,.52,.52,.52Z"/>
          <path class="cls-26" d="M232.45,273.03l35.81-.08c.29,0,.52-.24,.52-.53,0-.29-.24-.52-.52-.52l-35.81,.09c-.29,0-.52,.23-.52,.52,0,.29,.24,.52,.53,.52Z"/>
          <path class="cls-65" d="M308.78,272.32c0-.29-.23-.52-.52-.52l-35.63,.09c-.29,0-.52,.23-.52,.53,0,.29,.24,.52,.52,.52l35.63-.09c.29,0,.52-.24,.52-.52Z"/>
          <path class="cls-67" d="M287.15,265.07c0,.29,.23,.52,.52,.52l29.15-.07c.29,0,.52-.23,.52-.52,0-.29-.24-.52-.52-.52l-29.15,.07c-.29,0-.52,.23-.52,.52Z"/>
          <path class="cls-17" d="M232.52,299.6l53.55-.13c.29,0,.52-.23,.52-.52,0-.29-.24-.52-.52-.52l-53.55,.13c-.29,0-.52,.23-.52,.52,0,.29,.23,.52,.52,.52Z"/>
          <path class="cls-97" d="M232.54,306.91l75.01-.18c.29,0,.52-.24,.52-.53,0-.29-.24-.52-.52-.52l-75.02,.18c-.29,0-.52,.24-.52,.53,0,.29,.24,.52,.53,.52Z"/>
          <path class="cls-13" d="M232.55,314.21l35.82-.08c.29,0,.52-.24,.52-.52,0-.29-.24-.52-.52-.52l-35.82,.09c-.29,0-.52,.23-.52,.52,0,.29,.24,.52,.52,.52Z"/>
          <path class="cls-40" d="M291.03,299.46l21.83-.05c.29,0,.52-.24,.52-.53,0-.29-.23-.52-.52-.52l-21.83,.05c-.29,0-.52,.23-.52,.52,0,.29,.24,.52,.52,.52Z"/>
          <path class="cls-28" d="M232.62,340.78l34.46-.08c.29,0,.52-.24,.52-.53,0-.29-.24-.52-.52-.52l-34.46,.08c-.29,0-.52,.23-.52,.52,0,.29,.24,.52,.52,.52Z"/>
          <path class="cls-48" d="M232.63,348.09l52.68-.13c.29,0,.52-.23,.52-.52,0-.29-.24-.52-.52-.52l-52.68,.13c-.29,0-.52,.24-.52,.52,0,.29,.24,.52,.52,.52Z"/>
          <path class="cls-50" d="M263.62,354.28l-30.97,.07c-.29,0-.52,.24-.52,.52,0,.29,.24,.52,.52,.52l30.97-.08c.29,0,.52-.23,.52-.52,0-.29-.24-.52-.53-.52Z"/>
          <path class="cls-35" d="M308.45,354.17l-35.63,.08c-.29,0-.52,.24-.52,.53,0,.29,.24,.52,.52,.52l35.63-.09c.29,0,.52-.24,.52-.52,0-.29-.23-.52-.52-.52Z"/>
          <path class="cls-58" d="M317,339.54l-44.22,.11c-.29,0-.52,.23-.52,.52,0,.29,.24,.52,.53,.52l44.22-.11c.29,0,.52-.23,.52-.52,0-.29-.24-.52-.52-.52Z"/>
          <path class="cls-69" d="M317.02,346.84l-29.03,.07c-.29,0-.52,.24-.52,.52,0,.29,.23,.52,.52,.52l29.03-.07c.29,0,.52-.24,.52-.53,0-.29-.24-.52-.52-.52Z"/>
        </g>
        <g>
          <path class="cls-74" d="M207.25,271.49c-.58,0-1.14-.22-1.57-.61l-12.26-11.22c-.94-.86-1.01-2.32-.15-3.26,.86-.94,2.33-1.01,3.27-.15l10.48,9.59,17.24-20.64c.82-.98,2.28-1.11,3.26-.29,.98,.82,1.11,2.28,.29,3.26l-18.79,22.5c-.41,.48-.99,.78-1.62,.82-.05,0-.1,0-.15,0Z"/>
          <path class="cls-36" d="M207.13,223.49c-.58,0-1.14-.21-1.57-.61l-12.26-11.22c-.94-.86-1-2.33-.14-3.27,.86-.94,2.33-1.01,3.27-.15l10.48,9.59,17.24-20.64c.82-.98,2.28-1.11,3.26-.29,.98,.82,1.11,2.28,.29,3.26l-18.8,22.5c-.4,.48-.99,.78-1.62,.82-.05,0-.1,0-.15,0Z"/>
          <path class="cls-49" d="M207.34,312.15c-.58,0-1.14-.21-1.57-.61l-12.26-11.22c-.94-.86-1.01-2.32-.15-3.26,.86-.94,2.32-1.01,3.27-.15l10.48,9.59,17.25-20.64c.82-.98,2.27-1.11,3.26-.29,.98,.82,1.11,2.28,.29,3.26l-18.79,22.5c-.4,.48-.99,.78-1.62,.82-.05,0-.1,0-.15,0Z"/>
          <path class="cls-14" d="M207.44,351.89c-.58,0-1.14-.22-1.57-.61l-12.26-11.22c-.94-.86-1.01-2.32-.15-3.27,.86-.94,2.33-1,3.27-.15l10.48,9.59,17.24-20.64c.82-.98,2.28-1.11,3.26-.29,.98,.82,1.11,2.27,.29,3.26l-18.8,22.5c-.4,.48-.99,.78-1.62,.82-.05,0-.1,0-.15,0Z"/>
        </g>
      </g>
      <g class="d1">
        <path class="cls-62" d="M541.42,383.18c0,2.89-2.33,5.23-5.21,5.24l-140.54,.34c-2.88,0-5.23-2.33-5.24-5.22l-.46-190.88c0-2.89,2.33-5.23,5.21-5.24l140.54-.34c2.89,0,5.23,2.33,5.24,5.21l.46,190.88Z"/>
        <g>
          <path class="cls-5" d="M418.08,210.24c5.25-.01,9.53,4.25,9.55,9.5,.01,5.25-4.25,9.53-9.5,9.55-5.25,.01-9.53-4.25-9.55-9.5-.01-5.25,4.25-9.53,9.5-9.55m0-2.09c-6.41,.02-11.6,5.23-11.59,11.64,.02,6.41,5.23,11.6,11.64,11.59,6.42-.01,11.6-5.23,11.59-11.64-.02-6.41-5.23-11.6-11.64-11.59h0Z"/>
          <path class="cls-5" d="M418.19,255.73c5.25-.01,9.53,4.25,9.55,9.5,.01,5.25-4.25,9.54-9.5,9.55-5.25,.01-9.53-4.25-9.55-9.5-.01-5.25,4.25-9.54,9.5-9.55m0-2.09c-6.41,.01-11.6,5.23-11.59,11.64,.02,6.42,5.23,11.6,11.64,11.59,6.42-.01,11.6-5.23,11.59-11.64-.01-6.41-5.23-11.6-11.64-11.59h0Z"/>
          <path class="cls-5" d="M418.32,296.92c5.25-.01,9.53,4.25,9.55,9.5,.01,5.25-4.25,9.54-9.5,9.55-5.25,.01-9.53-4.25-9.55-9.5-.01-5.25,4.25-9.54,9.5-9.55m0-2.09c-6.41,.01-11.6,5.23-11.59,11.64,.02,6.42,5.23,11.6,11.64,11.59,6.41-.02,11.6-5.23,11.59-11.65-.02-6.41-5.23-11.6-11.64-11.58h0Z"/>
          <path class="cls-5" d="M418.38,338.1c5.25-.01,9.53,4.25,9.55,9.5,.01,5.25-4.25,9.54-9.5,9.55-5.25,.01-9.53-4.25-9.55-9.5-.01-5.25,4.25-9.54,9.5-9.55m0-2.09c-6.42,.02-11.6,5.23-11.59,11.64,.02,6.42,5.23,11.6,11.64,11.59,6.41-.01,11.6-5.23,11.59-11.64-.02-6.42-5.23-11.61-11.64-11.59h0Z"/>
        </g>
        <g>
          <path class="cls-70" d="M443.25,212.92l80.34-.19c.29,0,.52-.23,.52-.52,0-.29-.23-.52-.52-.52l-80.34,.19c-.29,0-.52,.24-.52,.52,0,.29,.24,.52,.52,.52Z"/>
          <path class="cls-90" d="M443.27,220.23l75.02-.18c.29,0,.52-.24,.52-.52,0-.29-.24-.52-.53-.52l-75.02,.18c-.29,0-.52,.24-.52,.52,0,.29,.24,.52,.52,.52Z"/>
          <path class="cls-54" d="M443.29,227.54l35.81-.09c.29,0,.52-.24,.52-.52,0-.29-.23-.52-.52-.52l-35.81,.08c-.29,0-.52,.24-.52,.53,0,.29,.24,.52,.52,.52Z"/>
          <path class="cls-76" d="M483.45,226.39c-.29,0-.52,.24-.52,.52,0,.29,.24,.52,.52,.52l21.78-.05c.29,0,.52-.24,.52-.53,0-.29-.23-.52-.52-.52l-21.78,.05Z"/>
          <path class="cls-79" d="M443.36,258.42l61.95-.15c.29,0,.52-.24,.52-.53,0-.29-.23-.52-.52-.52l-61.95,.15c-.29,0-.52,.23-.52,.52,0,.29,.23,.52,.52,.52Z"/>
          <path class="cls-1" d="M443.38,265.72l51.06-.12c.29,0,.52-.24,.52-.52,0-.29-.24-.52-.52-.52l-51.06,.12c-.29,0-.52,.23-.52,.52,0,.29,.23,.52,.52,.52Z"/>
          <path class="cls-52" d="M443.39,273.03l35.81-.08c.29,0,.52-.24,.52-.53,0-.29-.24-.52-.52-.52l-35.81,.09c-.29,0-.52,.23-.52,.52,0,.29,.24,.52,.53,.52Z"/>
          <path class="cls-92" d="M519.72,272.32c0-.29-.23-.52-.52-.52l-35.63,.09c-.29,0-.52,.23-.52,.53,0,.29,.24,.52,.52,.52l35.63-.09c.29,0,.52-.24,.52-.52Z"/>
          <path class="cls-23" d="M498.09,265.07c0,.29,.23,.52,.52,.52l29.15-.07c.29,0,.52-.23,.52-.52,0-.29-.24-.52-.52-.52l-29.15,.07c-.29,0-.52,.23-.52,.52Z"/>
          <path class="cls-71" d="M443.46,299.6l53.55-.13c.29,0,.52-.23,.52-.52,0-.29-.24-.52-.52-.52l-53.55,.13c-.29,0-.52,.23-.52,.52,0,.29,.23,.52,.52,.52Z"/>
          <path class="cls-10" d="M443.48,306.91l75.01-.18c.29,0,.52-.24,.52-.53,0-.29-.24-.52-.52-.52l-75.02,.18c-.29,0-.52,.24-.52,.53,0,.29,.24,.52,.53,.52Z"/>
          <path class="cls-15" d="M443.49,314.21l35.82-.08c.29,0,.52-.24,.52-.52,0-.29-.24-.52-.52-.52l-35.82,.09c-.29,0-.52,.23-.52,.52,0,.29,.24,.52,.52,.52Z"/>
          <path class="cls-44" d="M501.97,299.46l21.83-.05c.29,0,.52-.24,.52-.53,0-.29-.23-.52-.52-.52l-21.83,.05c-.29,0-.52,.23-.52,.52,0,.29,.24,.52,.52,.52Z"/>
          <path class="cls-64" d="M443.56,340.78l34.46-.08c.29,0,.52-.24,.52-.53,0-.29-.24-.52-.52-.52l-34.46,.08c-.29,0-.52,.23-.52,.52,0,.29,.24,.52,.52,.52Z"/>
          <path class="cls-29" d="M443.57,348.09l52.68-.13c.29,0,.52-.23,.52-.52,0-.29-.24-.52-.52-.52l-52.68,.13c-.29,0-.52,.24-.52,.52,0,.29,.24,.52,.52,.52Z"/>
          <path class="cls-47" d="M474.56,354.28l-30.97,.07c-.29,0-.52,.24-.52,.52,0,.29,.24,.52,.52,.52l30.97-.08c.29,0,.52-.23,.52-.52,0-.29-.24-.52-.53-.52Z"/>
          <path class="cls-37" d="M519.39,354.17l-35.63,.08c-.29,0-.52,.24-.52,.53,0,.29,.24,.52,.52,.52l35.63-.09c.29,0,.52-.24,.52-.52,0-.29-.23-.52-.52-.52Z"/>
          <path class="cls-8" d="M527.94,339.54l-44.22,.11c-.29,0-.52,.23-.52,.52,0,.29,.24,.52,.53,.52l44.22-.11c.29,0,.52-.23,.52-.52,0-.29-.24-.52-.52-.52Z"/>
          <path class="cls-72" d="M527.96,346.84l-29.03,.07c-.29,0-.52,.24-.52,.52,0,.29,.23,.52,.52,.52l29.03-.07c.29,0,.52-.24,.52-.53,0-.29-.24-.52-.52-.52Z"/>
        </g>
        <g>
          <path class="cls-56" d="M418.19,271.49c-.58,0-1.14-.22-1.57-.61l-12.26-11.22c-.94-.86-1.01-2.32-.15-3.26,.86-.94,2.33-1.01,3.27-.15l10.48,9.59,17.24-20.64c.82-.98,2.28-1.11,3.26-.29,.98,.82,1.11,2.28,.29,3.26l-18.79,22.5c-.41,.48-.99,.78-1.62,.82-.05,0-.1,0-.15,0Z"/>
          <path class="cls-95" d="M418.07,223.49c-.58,0-1.14-.21-1.57-.61l-12.26-11.22c-.94-.86-1-2.33-.14-3.27,.86-.94,2.33-1.01,3.27-.15l10.48,9.59,17.24-20.64c.82-.98,2.28-1.11,3.26-.29,.98,.82,1.11,2.28,.29,3.26l-18.8,22.5c-.4,.48-.99,.78-1.62,.82-.05,0-.1,0-.15,0Z"/>
          <path class="cls-27" d="M418.28,312.15c-.58,0-1.14-.21-1.57-.61l-12.26-11.22c-.94-.86-1.01-2.32-.15-3.26,.86-.94,2.32-1.01,3.27-.15l10.48,9.59,17.25-20.64c.82-.98,2.27-1.11,3.26-.29,.98,.82,1.11,2.28,.29,3.26l-18.79,22.5c-.4,.48-.99,.78-1.62,.82-.05,0-.1,0-.15,0Z"/>
          <path class="cls-9" d="M418.38,351.89c-.58,0-1.14-.22-1.57-.61l-12.26-11.22c-.94-.86-1.01-2.32-.15-3.27,.86-.94,2.33-1,3.27-.15l10.48,9.59,17.24-20.64c.82-.98,2.28-1.11,3.26-.29,.98,.82,1.11,2.27,.29,3.26l-18.8,22.5c-.4,.48-.99,.78-1.62,.82-.05,0-.1,0-.15,0Z"/>
        </g>
      </g>

      <g class="carpeta1">
        <path class="cls-61" d="M877.68,469.2h-144.08v-20.1c0-3.39-2.37-6.13-5.29-6.13h-75.1c-2.92,0-5.29,2.74-5.29,6.13v167.93c0,3.39,2.37,6.13,5.29,6.13h224.46c2.92,0,5.29-2.74,5.29-6.13v-141.7c0-3.39-2.37-6.13-5.29-6.13Z"/>
        <path class="cls-61" d="M877.68,478.04h-144.08v-20.1c0-3.39-2.37-6.13-5.29-6.13h-75.1c-2.92,0-5.29,2.74-5.29,6.13v167.93c0,3.39,2.37,6.13,5.29,6.13h224.46c2.92,0,5.29-2.74,5.29-6.13v-141.7c0-3.39-2.37-6.13-5.29-6.13Z"/>
      </g>
      <g class="carpeta2">
        <path class="cls-61" d="M877.68,226.55h-144.08v-20.1c0-3.39-2.37-6.13-5.29-6.13h-75.1c-2.92,0-5.29,2.74-5.29,6.13v167.93c0,3.39,2.37,6.13,5.29,6.13h224.46c2.92,0,5.29-2.74,5.29-6.13V232.68c0-3.39-2.37-6.13-5.29-6.13Z"/>
        <path class="cls-61" d="M877.68,235.38h-144.08v-20.1c0-3.39-2.37-6.13-5.29-6.13h-75.1c-2.92,0-5.29,2.74-5.29,6.13v167.93c0,3.39,2.37,6.13,5.29,6.13h224.46c2.92,0,5.29-2.74,5.29-6.13V241.51c0-3.39-2.37-6.13-5.29-6.13Z"/>
      </g>

      <g>
        <g>
          <path class="cls-6" d="M1051.3,408.41s-2.61-19.81,1.78-24.93c4.39-5.12,12.98-13.35,15.72-13.35s22.12,12.8,18.1,14.63c-4.02,1.83-19.04,24.97-21,27.79-1.96,2.82-3.32,4.89-3.32,4.89l-11.28-9.03Z"/>
          <line class="cls-59" x1="1071.72" y1="395" x2="1076.11" y2="385.31"/>
        </g>
        <path class="cls-6" d="M1079.95,322.06s-4.11,4.39-5.48,9.32c-1.37,4.94,1.37,6.86-6.58,12.89-7.95,6.03-12.61,7.95-10.97,9.05s7.13,4.66,8.5,4.94c1.37,.27-.82,25.78,1.37,28.79s18.65,0,18.65,0l-1.37,14.81s33.73-2.19,33.73-3.02-.27-18.1,0-22.21c.27-4.11,15.63-6.03,19.74-26.87,4.11-20.84,.72-27.68-6.03-33.18-7.4-6.03-30.71-16.45-51.55,5.48Z"/>
        <ellipse class="cls-41" cx="1076.11" cy="342.49" rx="1.65" ry="3.43"/>
        <path class="cls-59" d="M1065.9,364.29s5.27,1.37,8.56-2.46"/>
        <path class="cls-6" d="M1149.29,580.93s-5.82,2.31-9.78,8.44c-3.96,6.13-2.26,21.45-2.26,21.45,0,0,16.05-11.47,20.62-19.86l-8.58-10.02Z"/>
        <path class="cls-60" d="M1094.62,350.58c-3.19-.73-3.15-8.78-5.35-12.89s-6.31-8.5-13.16-8.78c-6.86-.27-13.71-11.81-7.13-20.17s17.82-13.84,17.82-10-4.94,7.4,7.82,2.19c12.75-5.21,14.12-5.76,13.57-1.37-.55,4.39,24.41,3.56,32.91,11.79,8.5,8.23,11.24,19.2,4.11,34.55-7.13,15.36-20.19,32.05-27.51,33.16s-15.69,.36-16.78-7.32c-1.1-7.68-3.89-20.64-6.3-21.18Z"/>
        <path class="cls-94" d="M1077.75,307.66c-3.69-.97-6.33,12,0,14.3,6.33,2.3,22.43,5.36,23.32,11.74s-5.08,8.17-3.12,10.21c1.96,2.04,5.28-1.02,6.3,4.09s2.04,25.79,9.96,24.26c7.91-1.53,27.32-31.91,27.83-42.64,.51-10.72-6.13-19.01-18.38-20.87-12.26-1.86-16.49-1.6-23.69-2.37-7.2-.77-18.33,2.3-22.21,1.28Z"/>
        <path class="cls-6" d="M1089.27,352.24s4.41-4.94,9.03-2.21c4.62,2.74-1.05,17.91-9.03,12.44"/>
        <polygon class="cls-60" points="1066.31 417.49 1081.04 401.86 1125.19 397.47 1127.39 413.38 1066.31 417.49"/>
        <path class="cls-60" d="M1045.39,889.7c-3.14,.56-29.62,10.64-32.91,16.29-3.29,5.65,0,4.01,10.97,6.75,10.97,2.74,48.26,5.48,57.04,4.94,0,0,.14-15.46,1.03-20.1"/>
        <path class="cls-60" d="M1121.63,896.28l-20.56,9.71s-4.67,4.01,3.01,6.2,47.71,7.27,52.65,5.56c4.94-1.72,0-17.07,0-17.07"/>
        <path class="cls-60" d="M980.57,510.73s-3.19-13.89,4.13-26.69c7.31-12.8,64.35-76.55,64.35-76.55,0,0,12.59,4.89,17.26,10.01s-1.91,15.36-1.91,15.36l-58.87,81.9"/>
        <path class="cls-41" d="M1037.72,580.93s-.72,125.59-1.18,167.27c-.46,41.68,11.6,129.98,11.6,129.98,0,0-5.58,3.29-5.81,4.94s0,11.52,0,11.52c0,0,10.74,15.36,37.62,9.87,0,0,6.03-23.58,2.74-28.52-3.29-4.94-3.84-8.78-3.84-15.36s1.1-87.66,2.74-117.32c1.65-29.66,10.97-60.37,10.97-60.37,0,0,3.84,38.48,6.58,60.37,2.74,21.89,25.23,134.87,25.23,137.06s-2.74,3.84-2.74,6.58v9.32s10.97,11.69,37.29,9.41c0,0-3.35-5.57-9.63-58.22s-5.73-104.2-5.73-137.11,1.1-124.87,1.1-124.87l-106.95-4.56Z"/>
        <path class="cls-60" d="M1066.31,417.49l-14.34,1.83s-5.85,64.72-9.51,95.06c-3.66,30.35-4.75,55.21-5.85,61.79-1.1,6.58,8.57,13.53,29.69,15.72s77.8-2.93,77.8-2.93c0,0,9.87-63.25,17.92-101.28,8.04-38.03,0-64.35,0-64.35,0,0-25.03-10.61-34.64-9.96-9.61,.65-61.07,4.11-61.07,4.11Z"/>
        <path class="cls-60" d="M1154.35,500.85l17.18,22.67-22.24,57.4,6.89,11.52s50.09-43.69,53.02-60.14-22.67-65.08-28.15-73.86c-5.48-8.78-19.01-35.1-19.01-35.1,0,0-9.41,60.18-7.68,77.51Z"/>
        <path class="cls-60" d="M1051.98,419.32s-5.55,1.03-12.13,11.26c-6.58,10.24-21.51,37.73-32.84,46.87s-17.92,17.55-21.21,20.11c-3.29,2.56-9.51,17.18-.73,24.5,8.78,7.31,17.55,7.31,24.86,4.02,7.31-3.29,61.79-49.36,61.79-49.36"/>
        <path class="cls-59" d="M1085.25,525.72c5.85-3.29,44.24-29.98,44.24-29.98"/>
      </g>
    </g>
  </g>
</svg>