<?xml version="1.0" encoding="UTF-8"?>
<svg id="Capa_2" data-name="Capa 2" xmlns="http://www.w3.org/2000/svg" viewBox="0 0 793.81 643.15">
  <defs>
    <style>
      .cls-1 {
        fill: #ea5518;
      }

      .cls-2, .cls-3 {
        fill: #fff;
      }

      .cls-4, .cls-5 {
        fill: #003188;
      }

      .cls-6, .cls-7, .cls-8, .cls-5, .cls-3 {
        stroke-miterlimit: 10;
      }

      .cls-6, .cls-7, .cls-5, .cls-3 {
        stroke: #003188;
      }

      .cls-6, .cls-8 {
        fill: none;
      }

      .cls-7, .cls-9 {
        fill: #cae0ff;
      }

      .cls-8 {
        stroke: #ea5518;
        stroke-width: 3px;
      }

      .cls-10 {
        fill: #acceef;
      }
    </style>
  </defs>
  <g id="Capa_2-2" data-name="Capa 2">
    <g>
      <g>
        <path class="cls-4" d="M301.74,278.06s-149.06-52.59-196.91-145.35C56.98,39.95,166.44,31.19,296.24,47.79c129.81,16.6,330.96,127.41,370.97,146.91s81.31,53.77,86.48,56.92c5.16,3.15,2.58,13.43-13.77,4.83-16.35-8.6-88.63-44.59-102.83-47.88-14.2-3.3-20.65,1.46,1.72,11.53,22.37,10.07,55.5,28.66,64.11,35.5,8.6,6.83,3.01,14.39-9.03,9.18-12.05-5.21-56.79-23.51-65.61-24.92s-10.11,4.9,4.52,10.83c14.63,5.93,61.52,34.79,77.44,44.3,15.92,9.51,2.15,23.04-13.77,14.39s-76.13-52.78-150.61-85.14c-74.48-32.36-344.02-145.49-368.65-121.27-24.62,24.22,82.06,76.52,185.58,133.2l-61.05,41.9Z"/>
        <path class="cls-4" d="M719.48,265.6c6.59,1.37,16.64,9.02,21.51,14.43,4.88,5.42,0,8.55-5.45,6.83s-18.36-10.15-21.8-12.06-3.16-11.05,5.74-9.2Z"/>
      </g>
      <path class="cls-1" d="M792.6,583.37l-112.82-27.15c5.19-22.42-102.35-85.79-150.1-104.65-1.31-28.55,24.53-78.91,24.53-78.91,0,0,45.32,14.06,138.82,82.74,70.74,51.95,108.16,92.23,99.57,127.97Z"/>
      <path class="cls-9" d="M696.45,429.51c-36.66,21.15-107.17,69.8-107.17,69.8l-38.78-45.83,75.44-68.4s-28.2-28.36-53.59-39.21c0,0-41.6,77.29-44.42,124.53,0,0,.22,50.29,12.87,93.06-86.77,3.37-225.28-32.34-225.28-32.34,0,0,2.42-20.82-6.88-81.17-1.38-8.97-2.52-17.6-3.43-25.88-4.46,6.53-32.75,46.16-66.37,51.97-36.67,6.35-92.37-97.3-92.37-97.3l52.88-50.77s28.61,26,47.64,42.7c1.98-5.37,11.44-31.9,21.46-75.13,11.29-48.66,33.14-57.82,43.3-64.61l77.62-29.13c-.47,.46-.73,.66-.73,.66,0,0-3.77,15.67,33.53,18.8,35.65,3,67-26.08,69.7-28.65,9.49,.84,49.06,4.67,80.48,12.67,35.96,9.17,40.9,16.22,67.69,45.83,26.8,29.62,70.52,98.72,81.09,111.41,10.58,12.69,11.99,45.83-24.68,66.99Z"/>
      <path class="cls-10" d="M560.03,364.77c-2.04,1.36-45.96,72.51-51.06,100.09s-2.75,53.77,.84,62.63,13.23,17.58,13.23,17.58l13.3,3.01s-13.58-46.37-10.6-74.84,34.3-108.47,34.3-108.47Z"/>
      <path class="cls-2" d="M497.05,111.96c-1.27,10.27-5.19,44.46-5.46,80.59,0,0-32.59,31.97-69.88,28.83-37.29-3.13-33.53-18.8-33.53-18.8,0,0,8.18-8.17,13.83-27.96-39.6,4.03-49.02-26.16-46.74-41.61,2.07-13.98,15.24-66.55,19.75-84.37,18.78,7.97,44.28-4.62,60.48-6.51,18.8-2.2,26.01-5.02,36.98,4.07,10.97,9.09,1.88,32.59,2.5,37.29,.63,4.71,13.29-4.23,14.11-4.7,6.67-3.84,14.73-4.07,14.73-4.07,0,0,.01-.03,.02-.1,3.25,.46,6.12,2.09,7.81,5.74,5.25,11.33,1.24,31.67-14.6,31.6Z"/>
      <path class="cls-6" d="M374.7,48.47s-16.92,67.59-19.43,84.51c-2.51,16.92,9.05,51.54,58.92,39.49,41.68-10.07,52.65-21,52.65-21"/>
      <circle class="cls-5" cx="428.76" cy="76.73" r="3.6"/>
      <circle class="cls-5" cx="384.57" cy="76.73" r="3.6"/>
      <path class="cls-6" d="M421.7,59.96s6.27-6.89,15.36-1.88"/>
      <path class="cls-6" d="M392.25,59.96s-6.27-6.89-15.36-1.88"/>
      <path class="cls-6" d="M397.57,80.33c0,.31-7.83,19.12-9.4,22.56s.31,5.95,4.7,6.27"/>
      <path class="cls-6" d="M387.63,127.34s26.87,5.01,51.63-8.15"/>
      <path class="cls-7" d="M489.08,78.76c-.81,.47-13.48,9.4-14.1,4.7s8.46-28.2-2.51-37.29c-10.97-9.09-18.18-6.27-36.98-4.07-18.8,2.19-50.14,18.8-68.94,.94-18.8-17.86,5.64-38.55,5.64-38.55,0,0,.08,19.43,41.25,8.15,41.17-11.28,68.75-21,84.42,1.25,15.67,22.25,5.95,60.8,5.95,60.8,0,0-8.05,.23-14.73,4.07Z"/>
      <path class="cls-10" d="M500.24,69.46c-3.27,1.28-16.3,9.44-17.32,7.27s12-40.4-8.43-42.22-79.4,13.5-92.17,9.42-14.04-18.38-11.74-24.77c0,0-5.65,6.38,39.06,.51s62.04-15.06,79.91-3.83,10.68,53.62,10.68,53.62Z"/>
      <path class="cls-6" d="M486.66,80.33s19.03-12.85,24.98,0c5.95,12.85,0,37.29-21.62,30.4"/>
      <path class="cls-6" d="M497.23,112s-5.33,37.27-5.64,80.52c0,0-32.59,31.96-69.88,28.83-37.29-3.13-33.53-18.8-33.53-18.8,0,0,7.52-5.56,13.16-27.54"/>
      <path class="cls-6" d="M388.17,202.55l-76.89,28.47c-10.15,6.79-32.01,15.95-43.29,64.61-11.28,48.65-21.86,76.15-21.86,76.15"/>
      <path class="cls-6" d="M263.06,384.47c-2.12,0-64.16-56.41-64.16-56.41l-52.88,50.77s55.7,103.65,92.37,97.3c36.67-6.35,66.99-52.88,66.99-52.88"/>
      <path class="cls-6" d="M321.58,261.07s-33.82,56.4-13.4,188.97c9.3,60.35,6.88,81.16,6.88,81.16,0,0,138.51,35.72,225.28,32.35-12.64-42.78-12.86-93.06-12.86-93.06,2.82-47.24,44.42-124.53,44.42-124.53,25.38,10.85,53.59,39.21,53.59,39.21l-75.45,68.4,38.78,45.83s70.51-48.65,107.18-69.81c36.67-21.15,35.26-54.29,24.68-66.99-10.58-12.69-54.29-81.79-81.09-111.41-26.79-29.61-31.73-36.67-67.69-45.83-35.96-9.17-80.3-12.85-80.3-12.85"/>
      <line class="cls-6" x1="625.48" y1="385.17" x2="640.29" y2="371.77"/>
      <path class="cls-6" d="M429.38,224.64s27.75,20.56,34.16,22.12c15.33,3.73,43.25-48.92,43.25-48.92"/>
      <path class="cls-6" d="M409.01,222.4s-18.59,20.5-25.94,20.53c-8.37,.04-11.06-13.59-8.37-31.92"/>
      <path class="cls-4" d="M495.76,289.31c-1.23,.27-15.36-4.17-22.88-1.75s2.33,6.67,8.91,9.52c0,0-1.25,1.97-3.45,1.97s-31.48-10.84-17.37-16.1c10.36-3.86,25.77-2.05,33.23-.82,2.93,.49,4.9,2.49,4.3,4.56-.34,1.18-1.12,2.27-2.75,2.62Z"/>
      <path class="cls-1" d="M464.75,298.36c1.27-.18,14.68,5.23,22.51,3.36,7.83-1.87,.35-3.78-5.79-7.08,0,0,1.53-1.87,3.71-1.72,2.18,.16,28.04,9.99,13.25,14.22-10.86,3.11-25.94,.22-33.18-1.54-2.85-.69-4.51-2.83-3.62-4.84,.51-1.15,1.44-2.18,3.11-2.41Z"/>
      <path class="cls-6" d="M374.7,30.97s5.01,8.81,17.55,11.69"/>
      <path class="cls-6" d="M384.57,29.09s6.98,11.28,28.87,10.81"/>
      <path class="cls-6" d="M397.57,24.39s4.86,14.17,56.1,10.11"/>
      <path class="cls-6" d="M415.38,220.65s-29.24,47.47-31.91,139.14c-2.66,91.66,8.77,171.78,8.77,171.78"/>
      <path class="cls-6" d="M744.62,179.5h-.01"/>
      <g>
        <path class="cls-2" d="M199.35,327.97l-33.94,30.7-13.17-33.96s-8.81-1.7-17.73-17.37c-8.92-15.66-28.9-44.48-32.45-51.19-3.44-6.53-2.9-8.62,2.99-5.86-3.49-7.27-9.24-16.68-7.56-21.61s7.25-3.23,7.25-3.23c-.22-2.2-3.77-11.78,1.87-13.1,5.49-1.29,10.38,6.66,10.62,7.06-1.67-5.97,5.27-9.13,11.95-3,7.41,6.79,30.7,32.56,39.68,39.48-2.46-6.38-5-13.39-5.52-16.14-1.03-5.54,2.51-14.04,5.58-8.79,3.07,5.26,27.27,27.42,30.46,44.69,3.18,17.28-7.63,41.45-7.92,42.31l7.9,9.99Z"/>
        <path class="cls-6" d="M122.21,270.14s-10.36-17.13-16.74-20.27c-6.38-3.14-7.07-1.11-3.53,5.6,3.55,6.71,23.53,35.53,32.45,51.2,8.92,15.66,17.73,17.37,17.73,17.37l12.98,36.45,33.79-32.43-7.56-10.75c.3-.87,11.11-25.04,7.92-42.32-3.19-17.28-27.38-39.44-30.45-44.69s-6.61,3.26-5.58,8.79c1.03,5.53,10.39,28.47,10.39,28.47l-.84,11.05"/>
        <path class="cls-6" d="M119.77,272.55s28.61-16.5,30.35-16.87"/>
        <path class="cls-6" d="M142.76,256.41s-20.76-28.44-24.79-35.64c-4.03-7.2,3.7-11.81,11.1-5.03s30.7,32.56,39.67,39.48"/>
        <path class="cls-6" d="M117.12,218.76s-5-8.4-10.63-7.08c-5.63,1.32-2.09,10.9-1.87,13.1,.22,2.21,24.42,39.59,24.42,39.59"/>
        <path class="cls-6" d="M104.93,249.62c-3.5-7.27-9.24-16.67-7.57-21.61s7.25-3.22,7.25-3.22"/>
        <path class="cls-6" d="M147.54,280.06s14.47,7.33,17.57,19.17"/>
      </g>
      <path class="cls-7" d="M551.13,520.77c.31-4.08-3.78-4.17-3.78-4.17,0,0-17.79,7.41-17.79,8.09s14.13,7.66,14.13,7.66c0,0,7.32-9.98,7.44-11.57Z"/>
      <path class="cls-3" d="M553.73,458.58s-37.24,17.84-46.86,25.35-15.54,16.96-3,36.08c9.38,14.3,7.21,15.04,24.76,18.8,17.55,3.76,13.48,3.76,18.8,0,5.33-3.76,7.52-20.37,2.19-17.86-5.33,2.51-6.89,7.83-6.89,7.83,0,0-7.21-4.39-8.46-4.39s12.22-1.88,15.36-12.22l3.13-10.34,27.76-12.24-26.78-31.01Z"/>
      <path class="cls-1" d="M792.6,583.37c-2.77,11.5-10.21,22.54-22.66,33.35-51.16,44.38-165.48,27.71-287.75-11.97-191.16-62.05-273.62-101.13-283.72-104.65-10.11-3.5-6.08-20.94,8.55-17.54,14.63,3.4,87.15,39.74,103.79,41.98,16.64,2.24,14.27-10.31-6.54-20.29-20.8-9.99-55.2-19.79-68.62-30.15-13.41-10.35-5.09-20.73,16.9-12.03,21.99,8.69,54.69,21.56,61.82,22.59,7.13,1.03,5.94-7.75-10.11-16.38-16.05-8.62-49.06-20.96-59-26.6-9.95-5.65-8.58-17.9,6.69-11.33,0,0,117.11,50.95,219.35,87.68,102.24,36.74,200.51,60.79,208.21,39.09,.1-.29,.19-.59,.26-.9l112.82,27.15Z"/>
      <path class="cls-4" d="M399.22,182.28s21.18-.33,33.89-15.04c0,0-23.68,7.05-31.11,7.39l-2.78,7.66Z"/>
      <g>
        <rect class="cls-7" x=".5" y="10.68" width="257.07" height="154.61" rx="5.78" ry="5.78"/>
        <rect class="cls-2" x="10.21" y="18.72" width="237.64" height="138.53" rx="5.26" ry="5.26"/>
        <line class="cls-3" x1="234.07" y1="18.72" x2="218.75" y2="34.16"/>
        <line class="cls-3" x1="241.73" y1="18.72" x2="226.41" y2="34.16"/>
      </g>
      <path class="cls-6" d="M433.11,409.03c-3.8,1.53-31.89,20.85-56.4,44.38"/>
      <g>
        <path class="cls-3" d="M296.95,574.97H129.76c-.17,0-.33-.02-.5-.07l-80.1-22.59c-2.04-.58-1.63-3.59,.5-3.59H216.85c.17,0,.33,.02,.5,.07l80.1,22.59c2.04,.58,1.63,3.59-.5,3.59Z"/>
        <rect class="cls-3" x="49.66" y="423.38" width="167.92" height="125.36"/>
        <rect class="cls-9" x="56.89" y="428.77" width="153.46" height="114.56"/>
      </g>
      <path class="cls-6" d="M629.61,376.11s20.34-25.04,21.36-27.09"/>
      <path class="cls-6" d="M590.16,220.65s-13.79,11.42-15.83,43.73"/>
      <circle class="cls-9" cx="53.48" cy="31.67" r="5.62"/>
      <circle class="cls-9" cx="38.16" cy="31.67" r="5.62"/>
      <circle class="cls-9" cx="22.84" cy="31.67" r="5.62"/>
      <rect class="cls-9" x="31.27" y="53.11" width="4.09" height="89.87"/>
      <rect class="cls-9" x="129.56" y="42.65" width="4.09" height="196.6" transform="translate(272.55 9.34) rotate(90)"/>
      <rect class="cls-1" x="45.56" y="123.58" width="15.06" height="10.21"/>
      <rect class="cls-1" x="72.88" y="109.03" width="15.06" height="24.77"/>
      <rect class="cls-1" x="101" y="95.75" width="15.06" height="38.04"/>
      <rect class="cls-1" x="129.11" y="75.33" width="15.06" height="58.47"/>
      <rect class="cls-1" x="157.23" y="56.94" width="15.06" height="76.85"/>
      <rect class="cls-1" x="185.35" y="49.03" width="15.06" height="84.77"/>
      <rect class="cls-1" x="213.46" y="42.14" width="15.06" height="91.66"/>
      <g>
        <polyline class="cls-8" points="64.71 516.6 80.42 531.56 104.71 495.6 123.78 510.14 149.7 477.48 172.74 496.35 195.57 470.55"/>
        <polygon class="cls-1" points="198.06 474.5 199.85 465.71 191.34 468.56 198.06 474.5"/>
      </g>
    </g>
  </g>
</svg>