<?xml version="1.0" encoding="UTF-8"?>
<svg id="Capa_2" data-name="Capa 2" xmlns="http://www.w3.org/2000/svg" viewBox="0 0 831.83 756.26">
  <defs>
    <style>
      .cls-1 {
        fill: #ea5518;
      }

      .cls-2, .cls-3 {
        fill: #fff;
      }

      .cls-4, .cls-5 {
        fill: #003188;
      }

      .cls-6, .cls-7, .cls-8, .cls-5, .cls-3 {
        stroke-miterlimit: 10;
      }

      .cls-6, .cls-7, .cls-5, .cls-3 {
        stroke: #003188;
      }

      .cls-6, .cls-8 {
        fill: none;
      }

      .cls-7, .cls-9 {
        fill: #cae0ff;
      }

      .cls-8 {
        stroke: #ea5518;
        stroke-width: 3px;
      }

      .cls-10 {
        fill: #acceef;
      }

      .pantalla1{
        animation: pantalla1 5s infinite;
      }
      @keyframes pantalla1{
      0%{ transform: translate(0, 0); }
      50%{ transform: translate(0, -30px); }
      }

      .col{
      animation: col 7s infinite;
      transform-box: fill-box;
      transform-origin: center bottom;
      transform: scaleY(0);
      }
      @keyframes col{
      0%{transform: scaleY(0)}
      10%{transform: scaleY(1)}
      90%{transform: scaleY(1)}
      100%{transform: scaleY(0)}
      }

      .col-2{
      animation-delay: 1s;
      }

      .col-3{
      animation-delay: 2s;
      }

      .col-4{
      animation-delay: 3s;
      }

      .col-5{
      animation-delay: 4s;
      }

      .col-6{
      animation-delay: 5s;
      }

      .col-7{
      animation-delay: 6s;
      }


      .pantalla2{
        animation: pantalla1 6s infinite;
      }
      @keyframes pantalla1{
      0%{ transform: translate(0, 0); }
      50%{ transform: translate(0, -30px); }
      }

      .cabeza{
        animation: cabeza 6s infinite linear;
        transform-box: fill-box;
        transform-origin:  90% 80%;
      }
      @keyframes cabeza{
      0%{ transform: rotate(0deg); }
      5%{ transform: rotate(5deg); }
      10%{ transform: rotate(0deg); }
      15%{ transform: rotate(5deg); }
      20%{ transform: rotate(0deg); }
      }

      .l-azul{
        animation: lAzul 20s infinite linear;
      }
      @keyframes lAzul{
      0%{
        transform: translateX(0);
      }
      50%{
        transform: translateX(80px);
      }
      }


      .l-naran{
        animation: lNaran 15s infinite linear;
      }
      @keyframes lNaran{
      0%{
        transform: translateX(0);
      }
      50%{
        transform: translateX(-80px);
      }
      }
      
      


    </style>
  </defs>
  <g class="l-azul">
    <path class="cls-4" d="M349.94,357.82s-176.23-79.88-224.08-172.64c-47.85-92.76,61.6-101.52,191.41-84.92,129.81,16.6,330.96,127.41,370.97,146.91,40.01,19.5,81.31,53.77,86.48,56.92s2.58,13.43-13.77,4.83c-16.35-8.6-88.63-44.59-102.83-47.88-14.2-3.3-20.65,1.46,1.72,11.53,22.37,10.07,55.5,28.66,64.11,35.5,8.6,6.83,3.01,14.39-9.03,9.18-12.05-5.21-56.79-23.51-65.61-24.92s-10.11,4.9,4.52,10.83c14.63,5.93,61.52,34.79,77.44,44.3,15.92,9.51,2.15,23.04-13.77,14.39-15.92-8.65-76.13-52.78-150.61-85.14-74.48-32.36-344.02-145.49-368.65-121.27-24.62,24.22,109.23,103.81,212.76,160.49l-61.05,41.9Z"/>
    <path class="cls-4" d="M740.51,318.07c6.59,1.37,16.64,9.02,21.51,14.43s0,8.55-5.45,6.83c-5.45-1.73-18.36-10.15-21.8-12.06-3.44-1.9-3.16-11.05,5.74-9.2Z"/>
  </g>
  <path class="cls-1 l-naran" d="M813.63,635.84l-112.82-27.15c5.19-22.42-102.35-85.79-150.1-104.65-1.31-28.55,24.53-78.91,24.53-78.91,0,0,45.32,14.06,138.82,82.74,70.74,51.95,108.16,92.23,99.57,127.97Z"/>
  <g>
    <path class="cls-9" d="M717.48,481.98c-36.66,21.15-107.17,69.8-107.17,69.8l-38.78-45.83,75.44-68.4s-28.2-28.36-53.59-39.21c0,0-41.6,77.29-44.42,124.53,0,0,.22,50.29,12.87,93.06-86.77,3.37-225.28-32.34-225.28-32.34,0,0,2.42-20.82-6.88-81.17-1.38-8.97-2.52-17.6-3.43-25.88-4.46,6.53-32.75,46.16-66.37,51.97-36.67,6.35-92.37-97.3-92.37-97.3l52.88-50.77s28.61,26,47.64,42.7c1.98-5.37,11.44-31.9,21.46-75.13,11.29-48.66,33.14-57.82,43.3-64.61l77.62-29.13c-.47,.46-.73,.66-.73,.66,0,0-3.77,15.67,33.53,18.8,35.65,3,67-26.08,69.7-28.65,9.49,.84,49.06,4.67,80.48,12.67,35.96,9.17,40.9,16.22,67.69,45.83,26.8,29.62,70.52,98.72,81.09,111.41,10.58,12.69,11.99,45.83-24.68,66.99Z"/>
    <path class="cls-10" d="M581.06,417.24c-2.04,1.36-45.96,72.51-51.06,100.09-5.11,27.57-2.75,53.77,.84,62.63,3.59,8.86,13.23,17.58,13.23,17.58l13.3,3.01s-13.58-46.37-10.6-74.84c2.98-28.47,34.3-108.47,34.3-108.47Z"/>
    <path class="cls-3" d="M422.37,227.48c-5.64,21.98-13.16,27.54-13.16,27.54,0,0-3.76,15.67,33.53,18.8,37.29,3.13,69.88-28.83,69.88-28.83,.31-43.25,5.64-80.52,5.64-80.52,0,0-10.86-22.72-44.73-17.26s-38.98,26.23-40,31.68-11.17,48.59-11.17,48.59Z"/>
    <path class="cls-4" d="M420.25,234.75s36.26-1.55,46.3-29.98c0,0-31.21,5.1-38.64,5.44l-7.66,24.55Z"/>
    <path class="cls-6" d="M409.2,255.02l-76.89,28.47c-10.15,6.79-32.01,15.95-43.29,64.61-11.28,48.65-21.86,76.15-21.86,76.15"/>
    <path class="cls-6" d="M284.09,436.93c-2.12,0-64.16-56.41-64.16-56.41l-52.88,50.77s55.7,103.65,92.37,97.3c36.67-6.35,66.99-52.88,66.99-52.88"/>
    <path class="cls-6" d="M342.61,313.54s-33.82,56.4-13.4,188.97c9.3,60.35,6.88,81.16,6.88,81.16,0,0,138.51,35.72,225.28,32.35-12.64-42.78-12.86-93.06-12.86-93.06,2.82-47.24,44.42-124.53,44.42-124.53,25.38,10.85,53.59,39.21,53.59,39.21l-75.45,68.4,38.78,45.83s70.51-48.65,107.18-69.81c36.67-21.15,35.26-54.29,24.68-66.99s-54.29-81.79-81.09-111.41-31.73-36.67-67.69-45.83c-35.96-9.17-80.3-12.85-80.3-12.85"/>
    <line class="cls-6" x1="646.51" y1="437.64" x2="661.32" y2="424.24"/>
    <path class="cls-6" d="M450.41,277.11s27.75,20.56,34.16,22.12c15.33,3.73,43.25-48.92,43.25-48.92"/>
    <path class="cls-6" d="M430.04,274.87s-18.59,20.5-25.94,20.53c-8.37,.04-11.06-13.59-8.37-31.92"/>
    <path class="cls-4" d="M516.79,341.78c-1.23,.27-15.36-4.17-22.88-1.75s2.33,6.67,8.91,9.52c0,0-1.25,1.97-3.45,1.97s-31.48-10.84-17.37-16.1c10.36-3.86,25.77-2.05,33.23-.82,2.93,.49,4.9,2.49,4.3,4.56-.34,1.18-1.12,2.27-2.75,2.62Z"/>
    <path class="cls-1" d="M485.78,350.83c1.27-.18,14.68,5.23,22.51,3.36,7.83-1.87,.35-3.78-5.79-7.08,0,0,1.53-1.87,3.71-1.72,2.18,.16,28.04,9.99,13.25,14.22-10.86,3.11-25.94,.22-33.18-1.54-2.85-.69-4.51-2.83-3.62-4.84,.51-1.15,1.44-2.18,3.11-2.41Z"/>
    <path class="cls-6" d="M436.41,273.12s-29.24,47.47-31.91,139.14c-2.66,91.66,8.77,171.78,8.77,171.78"/>
    <g>
      <path class="cls-2" d="M220.38,380.44l-33.94,30.7-13.17-33.96s-8.81-1.7-17.73-17.37c-8.92-15.66-28.9-44.48-32.45-51.19-3.44-6.53-2.9-8.62,2.99-5.86-3.49-7.27-9.24-16.68-7.56-21.61s7.25-3.23,7.25-3.23c-.22-2.2-3.77-11.78,1.87-13.1,5.49-1.29,10.38,6.66,10.62,7.06-1.67-5.97,5.27-9.13,11.95-3,7.41,6.79,30.7,32.56,39.68,39.48-2.46-6.38-5-13.39-5.52-16.14-1.03-5.54,2.51-14.04,5.58-8.79,3.07,5.26,27.27,27.42,30.46,44.69,3.18,17.28-7.63,41.45-7.92,42.31l7.9,9.99Z"/>
      <path class="cls-6" d="M143.24,322.61s-10.36-17.13-16.74-20.27c-6.38-3.14-7.07-1.11-3.53,5.6,3.55,6.71,23.53,35.53,32.45,51.2,8.92,15.66,17.73,17.37,17.73,17.37l12.98,36.45,33.79-32.43-7.56-10.75c.3-.87,11.11-25.04,7.92-42.32-3.19-17.28-27.38-39.44-30.45-44.69s-6.61,3.26-5.58,8.79c1.03,5.53,10.39,28.47,10.39,28.47l-.84,11.05"/>
      <path class="cls-6" d="M140.81,325.02s28.61-16.5,30.35-16.87"/>
      <path class="cls-6" d="M163.79,308.88s-20.76-28.44-24.79-35.64c-4.03-7.2,3.7-11.81,11.1-5.03,7.41,6.79,30.7,32.56,39.67,39.48"/>
      <path class="cls-6" d="M138.15,271.23s-5-8.4-10.63-7.08c-5.63,1.32-2.09,10.9-1.87,13.1,.22,2.21,24.42,39.59,24.42,39.59"/>
      <path class="cls-6" d="M125.96,302.08c-3.5-7.27-9.24-16.67-7.57-21.61s7.25-3.22,7.25-3.22"/>
      <path class="cls-6" d="M168.57,332.52s14.47,7.33,17.57,19.17"/>
    </g>
    <path class="cls-7" d="M572.16,573.24c.31-4.08-3.78-4.17-3.78-4.17,0,0-17.79,7.41-17.79,8.09s14.13,7.66,14.13,7.66c0,0,7.32-9.98,7.44-11.57Z"/>
    <path class="cls-3" d="M574.76,511.04s-37.24,17.84-46.86,25.35-15.54,16.96-3,36.08c9.38,14.3,7.21,15.04,24.76,18.8s13.48,3.76,18.8,0c5.33-3.76,7.52-20.37,2.19-17.86-5.33,2.51-6.89,7.83-6.89,7.83,0,0-7.21-4.39-8.46-4.39s12.22-1.88,15.36-12.22l3.13-10.34,27.76-12.24-26.78-31.01Z"/>
    <path class="cls-6" d="M454.14,461.5c-3.8,1.53-31.89,20.85-56.4,44.38"/>
    <path class="cls-6" d="M650.64,428.58s20.34-25.04,21.36-27.09"/>
    <path class="cls-6" d="M611.19,273.12s-13.79,11.42-15.83,43.73"/>
  </g>
  <g class="cabeza">
    <path class="cls-3" d="M487.86,203.94s-10.97,10.92-52.65,21c-49.87,12.05-61.42-22.56-58.92-39.49,2.51-16.92,20.47-89.17,20.47-89.17,0,0,54.79-30.4,88.6-23.51s38.63,41.87,35.91,61.79-4.76,29.85-4.76,29.85"/>
    <circle class="cls-5" cx="449.79" cy="129.2" r="3.6"/>
    <circle class="cls-5" cx="405.6" cy="129.2" r="3.6"/>
    <path class="cls-6" d="M442.73,112.43s6.27-6.89,15.36-1.88"/>
    <path class="cls-6" d="M413.28,112.43s-6.27-6.89-15.36-1.88"/>
    <path class="cls-6" d="M418.6,132.8c0,.31-7.83,19.12-9.4,22.56-1.57,3.45,.31,5.95,4.7,6.27"/>
    <path class="cls-6" d="M408.66,179.81s26.87,5.01,51.63-8.15"/>
    <path class="cls-7" d="M510.11,131.23c-.81,.47-13.48,9.4-14.1,4.7-.63-4.7,8.46-28.2-2.51-37.29-10.97-9.09-18.18-6.27-36.98-4.07-18.8,2.19-50.14,18.8-68.94,.94-18.8-17.86,5.64-38.55,5.64-38.55,0,0,.08,19.43,41.25,8.15,41.17-11.28,68.75-21,84.42,1.25,15.67,22.25,5.95,60.8,5.95,60.8,0,0-8.05,.23-14.73,4.07Z"/>
    <path class="cls-10" d="M521.27,121.92c-3.27,1.28-16.3,9.44-17.32,7.27-1.02-2.17,12-40.4-8.43-42.22-20.43-1.82-79.4,13.5-92.17,9.42s-14.04-18.38-11.74-24.77c0,0-5.65,6.38,39.06,.51,44.72-5.87,62.04-15.06,79.91-3.83,17.87,11.23,10.68,53.62,10.68,53.62Z"/>
    <path class="cls-3" d="M507.69,132.8s19.03-12.85,24.98,0c5.95,12.85,0,37.29-21.62,30.4"/>
    <path class="cls-6" d="M395.73,83.44s5.01,8.81,17.55,11.69"/>
    <path class="cls-6" d="M405.6,81.56s6.98,11.28,28.87,10.81"/>
    <path class="cls-6" d="M418.6,76.86s4.86,14.17,56.1,10.11"/>
  </g>
  <path class="cls-6" d="M765.65,231.97h-.01"/>
  <path class="cls-1 l-naran" d="M813.63,635.84c-2.77,11.5-10.21,22.54-22.66,33.35-51.16,44.38-165.48,27.71-287.75-11.97-191.16-62.05-273.62-101.13-283.72-104.65-10.11-3.5-6.08-20.94,8.55-17.54,14.63,3.4,87.15,39.74,103.79,41.98,16.64,2.24,14.27-10.31-6.54-20.29-20.8-9.99-55.2-19.79-68.62-30.15-13.41-10.35-5.09-20.73,16.9-12.03,21.99,8.69,54.69,21.56,61.82,22.59,7.13,1.03,5.94-7.75-10.11-16.38-16.05-8.62-49.06-20.96-59-26.6-9.95-5.65-8.58-17.9,6.69-11.33,0,0,117.11,50.95,219.35,87.68,102.24,36.74,200.51,60.79,208.21,39.09,.1-.29,.19-.59,.26-.9l112.82,27.15Z"/>
  <g class="pantalla2">
    <path class="cls-3" d="M317.98,627.44H150.79c-.17,0-.33-.02-.5-.07l-80.1-22.59c-2.04-.58-1.63-3.59,.5-3.59H237.88c.17,0,.33,.02,.5,.07l80.1,22.59c2.04,.58,1.63,3.59-.5,3.59Z"/>
    <rect class="cls-3" x="70.69" y="475.84" width="167.92" height="125.36"/>
    <rect class="cls-9" x="77.92" y="481.24" width="153.46" height="114.56"/>
    <g>
      <polyline class="cls-8" points="85.74 569.07 101.45 584.03 125.74 548.07 144.81 562.6 170.73 529.94 193.77 548.82 216.6 523.02"/>
      <polygon class="cls-1" points="219.09 526.97 220.88 518.18 212.37 521.03 219.09 526.97"/>
    </g>
  </g>
  <g class="pantalla1">
    <g>
      <rect class="cls-7" x="21.53" y="63.15" width="257.07" height="154.61" rx="5.78" ry="5.78"/>
      <rect class="cls-2" x="31.24" y="71.19" width="237.64" height="138.53" rx="5.26" ry="5.26"/>
      <line class="cls-3" x1="255.1" y1="71.19" x2="239.78" y2="86.63"/>
      <line class="cls-3" x1="262.76" y1="71.19" x2="247.44" y2="86.63"/>
    </g>
    <circle class="cls-9" cx="74.51" cy="84.14" r="5.62"/>
    <circle class="cls-9" cx="59.19" cy="84.14" r="5.62"/>
    <circle class="cls-9" cx="43.87" cy="84.14" r="5.62"/>
    <rect class="cls-9" x="52.3" y="105.58" width="4.09" height="89.87"/>
    <rect class="cls-9" x="150.59" y="95.12" width="4.09" height="196.6" transform="translate(346.05 40.78) rotate(90)"/>
    <rect class="cls-1 col col-1" x="66.59" y="176.05" width="15.06" height="10.21"/>
    <rect class="cls-1 col col-2" x="93.91" y="161.5" width="15.06" height="24.77"/>
    <rect class="cls-1 col col-3" x="122.03" y="148.22" width="15.06" height="38.04"/>
    <rect class="cls-1 col col-4" x="150.14" y="127.8" width="15.06" height="58.47"/>
    <rect class="cls-1 col col-5" x="178.26" y="109.41" width="15.06" height="76.85"/>
    <rect class="cls-1 col col-6" x="206.38" y="101.5" width="15.06" height="84.77"/>
    <rect class="cls-1 col col-7" x="234.49" y="94.6" width="15.06" height="91.66"/>
  </g>
</svg>