<?xml version="1.0" encoding="utf-8"?>
<!-- Generator: Adobe Illustrator 26.5.0, SVG Export Plug-In . SVG Version: 6.00 Build 0)  -->
<svg version="1.1" id="Capa_2_00000128451069037950361280000015097450120209656991_"
	 xmlns="http://www.w3.org/2000/svg" xmlns:xlink="http://www.w3.org/1999/xlink" x="0px" y="0px" viewBox="0 0 1100.9 774.1"
	 style="enable-background:new 0 0 1100.9 774.1;" xml:space="preserve">
<style type="text/css">
	.st0{fill:#EDEEEF;}
	.st1{fill:#FFFFFF;stroke:#003188;stroke-miterlimit:10;}
	.st2{fill:#F7C9BA;stroke:#003188;stroke-miterlimit:10;}
	.st3{fill:#ECECEC;}
	.st4{fill:#E1E1E1;}
	.st5{fill:#F5F5F5;}
	.st6{fill:#CAE0FF;stroke:#003188;stroke-miterlimit:10;}
	.st7{fill:#003188;}
	.st8{fill:none;stroke:#003188;stroke-miterlimit:10;}
	.st9{fill:#EA5518;}
	.st10{clip-path:url(#SVGID_00000154400167398650693390000016015614564399333025_);}
	.st11{fill:#ACCEEF;}
	.st12{fill:#003188;stroke:#003188;stroke-miterlimit:10;}
	.st13{clip-path:url(#SVGID_00000103231968781598783560000014775487294691214738_);}
	.st14{fill:#F7C9BA;}
</style>
<circle class="st0" cx="520.4" cy="388.5" r="357.3"/>
<g>
	<path class="st1" d="M522.7,142.5c-0.3,0-0.6,0-0.9,0c-136.5,0-247,110.5-247,246.9s110.5,246.9,247,246.9c0.3,0,0.6,0,0.9,0
		C658.8,635.7,769,525.4,769,389.3S658.8,142.9,522.7,142.5L522.7,142.5z"/>
	<path class="st2" d="M752.8,299.8c0,0-9.9,1.5-12.9,0.2c-2.2-1-5.5-4.9-6.5-7.1c-1.2-2.6,1.3-10.1-1.2-11.4
		c-1.7-0.9-5.5,2.1-6.6,3.6c-2.2,2.8-3.6,13.9-3.6,13.9s-8.2-7-9.6-10.2c-0.9-2.2,0.7-7.5-0.4-9.6c-1.3-2.7-7-5.9-9.2-8
		c-0.9-0.8-2.3-2.9-3.4-3.4c-2.5-1-9.2-2.2-10.7,0c-1.5,2.1,1.8,7.6,3.4,9.5c2.4,2.8,10,4.9,12.9,7.2c0.6,0.5,2.4,1.6,2.2,2.4
		c-0.1,0.8-2.4,0.7-2.8,1.4c-1,1.6,1.1,6,0.1,7.6c-0.9,1.4-4.6,2.5-6.3,2.6c-1.4,0.1-4.2-0.4-5.4-1.2c-1.2-0.8-4-3.5-3.3-4.8
		c1.1-1.9,6.7,1.4,8.7,0.5c0.9-0.4,2.5-2.2,2.3-3.2c-1-5.7-15.9-8.3-19.3-13c-0.8-1.2-0.1-5.1-1.5-5.5c-2.5-0.8-5.3,6.4-7.8,7.1
		c-2,0.5-6.1-2.3-8-1.6c-4.7,1.7-12.1,15.7-12.1,15.7s-1.1,5.2-2.4,6.2c-1.6,1.2-5.8,0.6-7.7,0.7c-2.9,0.1-8.7,0.7-11.4,0.1
		c-1.8-0.4-5.7-1.7-6.8-3.2c-2.1-2.8-2.4-10.2-2-13.6c0.2-1.7,2.5-6.5,2.5-6.5s8.7-2.5,11.7-2.5c3.2,0,10,4.3,12.7,2.5
		c1.5-1,2.5-5.5,1.5-7c-0.7-1.2-4.6-0.1-5.4-1.3c-1.5-2.3-0.1-9,1.8-11c2.3-2.3,10-0.3,12.8-2c3.3-2,5.7-10.6,8.9-12.6
		c2-1.2,6.9-1.5,9.2-1.5c2.1,0,6.2,1.1,8.3,1.2c0.8,0.1,2.6,0.6,3.1,0c2-2.3,0.9-10.4-1.7-11.9c-2.4-1.4-7.6,5.2-10.1,4.1
		c-2.2-0.9-1.7-7.4-3.6-8.9c-1.2-0.9-5.9-0.8-5.9-0.8s-1.5-4.6-1.1-6.1c0.5-1.7,3.3-4.2,4.8-5.2c2.5-1.7,9.1-2.5,11.4-4.5
		c1.1-1,2.9-5.2,2.9-5.2C642,165.2,585.1,142,522.8,141.7c-0.2,0-0.4,0-0.6,0c-54.3,0-104.5,17.6-145.3,47.4c0,0,9.5-0.9,12.5-0.1
		c1.5,0.4,4.1,2.5,5.6,3.1c2.5,0.9,8.6,0.4,10.5,2.3c0.7,0.8,0,3.4,0.8,4.1c3.2,2.7,14.3,4,16.7,0.6c0.8-1.2-1.1-4.5-2.3-5.3
		c-3-2.1-13.5,3-14.8-0.4c-0.4-1.1,3.2-2.1,3.5-3.3c0.3-1-0.4-3.3-1.2-3.9c-2.7-2-12.3,3.2-13.4,0c-1.4-4.3,10.3-9.5,14.6-10.9
		c3.3-1.1,10.9-1.6,14,0c2.5,1.3,4.1,7.7,6.6,9c2.4,1.3,8.3,1.6,10.9,0.6c2.1-0.8,4.3-6,6.6-6.4c1.4-0.2,4.7,1.1,5,2.5
		c0.5,3.1-6.1,7.6-9,8.8c-2.8,1.1-12.5,0.2-11.9,0.2s-0.5,7.1,1,8.6c2.8,2.6,12.1,1.8,15.2-0.4c0.9-0.6,0.8-3.5,1.7-4.1
		c2.1-1.5,8.5,1.1,10.5-0.6c1.2-1,2.1-4.9,1.2-6.2s-5.4,0.3-6.2-1c-0.7-1.3,1-4.5,2.1-5.5c0.9-0.9,3.5-1.3,4.7-1.4
		c4.1-0.5,15.1-3.1,16.5,0.8c1,2.9-8.2,5.3-9.1,8.2c-0.5,1.6,0.3,5.2,1.5,6.4c1.8,1.6,7.7,3,9.5,1.4c2.1-1.9-2-9-0.6-11.5
		c1.3-2.2,6.6-4,9-4.7c3.9-1.2,12-2.5,16-1.9c5,0.8,13.9,6.1,18.5,8.2c1.2,0.5,4,1,4.7,2.1c1.2,1.9-1.4,7.1,0,8.8
		c1.2,1.5,6.6,0.1,7.4,1.9c0.8,1.8-2,6-3.7,7c-1.8,1.1-6.3,0-8.4,0c-0.5,0-1.6-0.3-2.1,0c-1.8,1.2-1.2,7-3.1,8
		c-5.5,2.9-23.2,0.5-24-5.6c-0.7-5.3,18.3-4.7,18.8-10c0.2-2.3-4.9-5.4-7.2-6.1c-3.9-1.2-12.6,0.2-16.2,2c-0.5,0.2-0.9,1.4-1.4,1.5
		c0,0,0,0,0,0c-0.1,0-0.2,0.3-0.3,0.4c-1.1,1.3-3.2,4.1-4.7,4.9c-1.8,0.8-6.5-0.9-7.7,0.6c-0.6,0.8,0,3.1,0.6,3.9
		c0.5,0.6,2.3,0.5,2.7,1.1c0.2,0.3,0.1,1-0.1,1.3c-1.1,1.1-5.2-0.2-6.3,0.9c-0.7,0.7,0.2,3-0.5,3.6c-1.1,1-4.8,1.3-6,0.3
		c-1.4-1.2,0.5-6.3-1.1-7.2c-2.4-1.5-8.2,2.1-10.8,3.3c-5.8,2.6-19.6,7-22,12.9c-0.9,2.2,2.5,9.1,2.5,9.1l6.2,4
		c0,0,10.3-0.6,12.3,1.7c2.3,2.6-2.7,11.7,0,14c1.1,0.9,4.5-0.1,5.7-0.9c2.4-1.8,3-9,5.2-11c2.6-2.2,11.1-1.4,13.1-4.2
		c2.5-3.4-1.9-13,0-16.8c1-2,5-5,7.3-5.5c4.4-0.9,15,0.5,17.6,4.2c1.6,2.3-3.1,9-1.2,11.1c0.8,0.9,3.6,0.3,4.7,0
		c3.5-0.8,12.9-6.4,12.9-6.4s-1.2,11.4,0.6,14.6c0.6,1.1,3.2,2,4.3,2.6c1.3,0.8,4.4,1.8,5.1,3.1c1,1.9,0.9,6.9-0.4,8.6
		c-0.8,1-4,0.6-4.7,1.6c-0.9,1.2-0.8,4.8,0,6c1.1,1.7,6.2,1.6,7.2,3.3c0.8,1.3,0.8,4.9-0.2,6c-0.5,0.6-2.6,0.8-3.2,0.3
		c-0.1-0.1,0-0.1,0-0.2c-0.7-0.7-2.8-0.9-3.8-1.2c-2.5-0.8-8.3-1.1-10-3.1c-0.7-0.9,0.3-3.7-0.6-4.4h0c-0.4-1.2,3.5-1.7,4-2.8
		c0.5-0.9,0.6-3.2,0-4c-0.7-0.9-3.3-1.6-4.3-1.1c-0.8,0.5-0.3,3.1-1.1,3.7c-1.4,1.3-5.7,1.3-7.6,1.2c-0.2,0-0.6-0.4-0.8-0.2
		c-0.1,0,0.1,0.3,0,0.4c-0.4,0.5-2,0.7-2.6,0.4c-1.1-0.6-1.3-3.5-2.1-4.3c-0.5-0.5-1.8-1-2.5-1.1c-1.3-0.3-4.1-0.5-5.4,0
		c-0.8,0.3-2.1,1.3-2.5,2c-0.5,1-0.7,3.6,0,4.5c0.7,1,3.4,1.3,4.6,1.5c1.1,0.3,4.4-0.5,4.6,0.6c0,0.3-0.8,0.3-1,0.5
		c-1.3,0.9-2.6,4.7-4.2,4.6c-0.7,0-1.2-1.9-1.8-2.3c-0.9-0.6-3-1.3-4-1.1c-3.6,0.9-11.1,6.5-11,10.3c0,0.5,1.5,0.7,1.4,1.2
		c-0.4,4.6-12.5,6.1-16.2,9c-4.3,3.3-12.8,10.9-15.2,15.8c-0.8,1.6-1,7-1,7s-11.7,7.1-15.3,10c-2.1,1.7-6.6,5.1-7.5,7.6
		c-1.3,3.6,4,13.1,0.8,15.2c-2.4,1.6-10.5-4.9-10.5-4.9s1.7-7.3,0.1-8.9c-5.1-5.2-22.1-1.7-29.2,0c-4.1,1-15.1,7.6-15.1,7.6
		s-5.3,8.9-6.6,12.1c-0.9,2.3-2.8,7.1-2.6,9.6c0.2,2.5,2.2,7.8,4.2,9.3c2.4,1.8,9,2.1,11.9,1.5c5.5-1.3,13.6-14.7,18.9-12.6
		c1.5,0.6,1.8,4.7,1.7,6.3c-0.3,3.1-7.1,8.1-5.8,10.9c1.6,3.3,12-0.3,14.4,2.5c3.7,4.1,1.4,22.2,1.4,22.2s15,5,19.7,3.4
		c4.5-1.6,8-13,12.5-14.5c3.7-1.2,12,1,15.2,3.1c1.9,1.2,3.3,6.5,5.3,7.4c3.3,1.6,12,1.7,14.6-0.9c0.8-0.8-0.5-3.8,0.4-4.3
		c1.9-1.1,6.3,2.4,8,3.9c3.1,2.8,5.4,12.1,9,14.2c3.4,1.9,12.2-1.8,15.6,0.2c2.5,1.5,4.9,7.3,5.8,10.1c0.9,3-1,9.8,0.8,12.3
		c1.8,2.4,8.3,3.2,11.1,4.2c1.5,0.6,4.5,2,6.2,2.3c5.3,1,17-2.5,21.8,0.2c2.7,1.5,4,8.6,6.4,10.5c2,1.6,8.4,0.9,9.7,3.1
		c1.1,1.9-0.9,6.6-1.9,8.6c-1.8,3.9-9,9.5-10.6,13.5c-2.8,6.9,0.5,23.2-3.1,29.8c-1.5,2.7-6.7,6.6-9.5,7.6
		c-3.4,1.1-11.1-2.2-14.2-0.4c-2.1,1.2-4.1,5.9-4.7,8.2c0,0,0,0.1,0,0.1c0.4,3.9,4.4,11.5,3.5,15.4c-0.3,1.4-2.6,3.3-3.5,4.5
		c-3,3.8-9.3,11.2-11.9,15.3c-1.4,2.2-3.1,7.3-4.9,9c-3,2.8-14.7,7.1-14.7,7.1s-8-0.3-9.7,1.5c-0.7,0.8-1,3.2-0.4,4.1
		c1,1.5,5.9,0.5,6.8,2c0.6,1-0.3,3.4-0.8,4.4c-1,1.9-5.9,3.8-6.1,5.8c-0.1,1.5,2.4,4,3.7,4.6c1.6,0.8,6.1-1.2,7.3,0.2
		c1,1-0.1,4.3-0.4,5.7c-0.3,1.4-1.6,4.1-1.9,5.5c-0.3,1.1-1,3.5-0.6,4.5c1.3,3.3,9.8,5.7,10.8,9.1c0.3,1.2-0.4,4-1.4,4.7
		c-3,2.2-11.3,1-14.7-0.3c-4.5-1.8-11.6-9-14.7-12.8c-3.7-4.5-10.2-14.4-11.4-20c-1-4.7,1.6-19.4,1.6-19.4s-7.8-8-8.6-11.5
		c-1.1-4.8,6.1-15.3,3.5-19.5c-0.7-1.1-4.3-0.4-5.1-1.4c-6.4-8.4,0-42.3,0-42.3s-14.4-10.9-15.2-10.9s-6.3-0.4-7.6-1.8
		c-1.4-1.5-0.6-6.2-1.5-8c-3.1-6.8-18.7-23.4-18.7-23.4s1.6-6.3,1.8-8.4c0.5-3.4-1-10.8,0.6-13.8c1.9-3.5,11.3-5.4,12.9-9
		c1.6-3.5,1-12.7-1.8-15.4c-3.4-3.3-14.7,0.7-18.9-1.4c-5-2.5-14.8-16.9-14.8-16.9s-7.8-2.3-10.5-2.9c-1.7-0.4-5.8,0.1-6.8-1.2
		c-0.9-1.2,1.8-4.9,0.8-6.2c-1.3-1.7-7-2.7-8.6-1.2c-0.7,0.6,0.7,3,0,3.5c-4.4,3.4-17-2.1-21.6-5.3c-3.2-2.3-8.5-9.3-8.7-13.3
		c-0.1-1.8,3.6-4.6,3.5-6.4c-0.3-6-11.4-14.3-13.7-19.9c-1.4-3.4,0.5-12.2-2.3-14.6c-1-0.9-4.6-1-5.5,0c-2.4,2.7,0.6,10.8,1.8,14.2
		c1.5,4.1,8.6,10.3,9.5,14.6c0.3,1.4,0.2,4.9-1,5.8c-1.7,1.2-6.3-0.1-8-1.2c-4-2.7-8.6-12.1-9.9-16.8c-1.3-4.7,2.6-15.4,0-19.6
		c-1.5-2.4-10.3-4.9-10.3-4.9v-14.1c-12.7,29.7-19.8,62.5-19.8,96.8c0,136.4,111,247.3,247.3,247.3c0.2,0,0.4,0,0.6,0
		c77.1-0.1,146-35.8,191.3-91.4h-8.2c0,0,1.3-12.5,0-16.4c-1.2-3.8-9.4-12.7-9.4-12.7s1.9-15.2,0-19.8c-1-2.3-6.2-4.9-7.2-7.2
		c-0.9-1.9-1-6.2-0.6-8.2c1-4.8,9.2-17.5,9.2-17.5l-17.4-30.6c0,0,5.4-16.7,2.1-20.8c-2.5-3-12.1,0.1-15.6-1.6
		c-1.8-0.9-3.9-5-5.8-5.8c-2.4-1-8.1-1-10.5,0c-1.7,0.7-3.6,4.3-5.3,4.9c-4.3,1.7-14.7-2.6-18.5,0c-0.4,0.2-0.3,1.4-0.6,1.6
		c-2.1,1.5-10.3,0-10.3,0l-23.6-26.9c0,0-2.8-16.7,0.2-21c0.6-0.9,3.2-0.6,3.9-1.4c1.3-1.6,2.8-6.5,1.5-8c-0.9-1.1-4.4,0.8-5.5,0
		c-1.7-1.3-3-6.4-2.3-8.4c2.8-7.9,23.5-12.2,27.4-19.7c1.6-3.1-1.8-11,0-14c1.9-3.3,9.6-6.7,13.4-7.4c1.3-0.3,4.1,0.5,5.4,0.5
		c2.8,0.1,8.3,0.7,11,0c2.4-0.6,6.3-3.9,8.6-4.6c6.7-2,22.7-6.9,27.8-2.2c2.6,2.4-2.2,11.4,0,14.2c3.5,4.5,16.8,3.2,21.9,5.5
		c1.2,0.6,3.1,2.7,4.3,3.1c0.9,0.3,3.3,0.7,4,0c1.4-1.4-1.3-6.3,0-7.7c2.1-2.4,9.6-2.1,12.6-1.2c3.6,1,8.5,7.8,12,9
		c4.7,1.5,15.1,1.8,19.7,0c0.4-0.2,1.4-1.3,1.4-1.3C757.6,312.7,755.3,306.2,752.8,299.8L752.8,299.8z M643.2,235.8
		c0.3-1,1.4-2.9,2.3-3.5c1.7-1.2,6.4-2.8,8.1-1.6c2.1,1.4,1.1,7.5,2.1,9.9c0.8,1.9,3.1,5.3,4.3,7c0.7,0.9,2,2.7,2.9,3.3
		c1.2,0.8,4.9,0.7,5.2,2c0.5,1.9-3.2,5-4.9,5.9c-2.1,1.1-7.2,0.8-9.6,0.9c-1.8,0.1-6,1.3-7.2,0c-1.4-1.6-0.6-6.9,0.8-8.5
		c1-1.1,5.1,0,6-1.2c0.6-0.8,0-3.1-0.5-4c-0.9-1.4-4.2-2.6-5.6-3.5c-1-0.6-3.3-1.6-3.9-2.7C642.7,238.8,642.9,236.7,643.2,235.8
		L643.2,235.8z M622.6,244.8c0.6-2.2,3.1-6.6,4.9-7.9c1.4-1,5-1.7,6.7-1.5c1.3,0.1,4.1,1,4.8,2.1c0.7,1.1,0.2,4.2-0.4,5.3
		c-1.5,2.7-7.2,6.2-10.2,7.2c-1.4,0.4-4.7,1-5.8,0C621.7,249.1,622.3,246.1,622.6,244.8L622.6,244.8z M488.2,275.2
		c-0.9,0.9-4.2,1.3-5.1,0.4c-0.6-0.6-0.1-2.7,0.3-3.6c0.3-0.9,1.4-2.8,2.3-2.9c1-0.1,2.7,1.5,3.1,2.4
		C489.1,272.5,488.9,274.6,488.2,275.2L488.2,275.2z M506.3,268.9c-0.7,0.5-2.9-0.3-3.5,0.3c-0.7,0.6-0.2,2.7-0.7,3.4
		c-0.5,0.6-2,1.4-2.7,1.7c-1,0.3-3.5,1-4.3,0.4c-0.8-0.6,0.1-1.5-0.2-1.8c-0.3-0.3-1.4,0.3-1.7,0c-0.7-0.6-0.7-3,0-3.7
		c1.2-1.2,5.6,1,7.1,0c0.8-0.6,0.6-3.2,1.5-3.8c0.6-0.4,2.1-0.1,2.8-0.1c0.8,0.1,2.9-0.1,3.2,0.7C508,266.7,507,268.4,506.3,268.9
		L506.3,268.9z"/>
</g>
<g>
	<path class="st1" d="M521.2,22.7h342.5c7.8,0,14.1,6.3,14.1,14.1v213.5c0,7.8-6.3,14.1-14.1,14.1H521.2c-7.8,0-14.1-6.3-14.1-14.1
		V36.8C507,29,513.4,22.7,521.2,22.7z"/>
	<g>
		<rect x="736.2" y="240.1" class="st3" width="114" height="23.5"/>
		<polygon class="st4" points="850.2,263.6 820.5,263.6 820.5,240.2 850.2,240.1 		"/>
	</g>
	<g>
		<path class="st5" d="M534.4,199.3v34.9h-5.8v3.8h5.8v23.3h108.8V240h-8.1v-4.6h8.1v-6.9h3.6v-3.1h-4.2v-26L534.4,199.3
			L534.4,199.3z"/>
		<polygon class="st4" points="614.2,199.4 614.2,260.9 643.1,260.9 643.1,239.7 635.1,239.7 635.1,235.4 643.1,235.6 643.1,228.6 
			646.8,228.6 646.7,225.1 642.5,224.9 642.5,199.3 		"/>
		<path class="st4" d="M616.3,237.4c0,0.2-19.7,0.4-44,0.4s-44-0.2-44-0.4s19.7-0.4,44-0.4S616.3,237.2,616.3,237.4z"/>
		<path class="st4" d="M616.3,233.9c0,0.2-19.7,0.4-44,0.4s-44-0.2-44-0.4s19.7-0.4,44-0.4S616.3,233.7,616.3,233.9z"/>
		<path class="st4" d="M621.9,224.4c0,0.2-19.7,0.4-44,0.4s-44-0.2-44-0.4s19.7-0.4,44-0.4S621.9,224.2,621.9,224.4z"/>
		<path class="st4" d="M622.5,250.3c0,0.2-19.7,0.4-44,0.4s-44-0.2-44-0.4s19.7-0.4,44-0.4C602.8,249.9,622.5,250.1,622.5,250.3z"/>
	</g>
	<g>
		<path class="st6" d="M674.1,172c-2.7,0.6-44.6,9-60.7,15.5s-22.6,31-25.8,76.1H794c0,0-1.1-79-25.8-84.5
			C735.9,172,674.1,172,674.1,172L674.1,172z"/>
		<g>
			<g>
				<path class="st1" d="M729,101l-11.8,73.1c-2.2,13.6-46.5,14.3-47.9,7.6c-1.1-5.7-0.2-12.5,0.8-19.9c0,0-0.1,0.6,0,0
					c0,0-20.1-5.2-18.3-25.7c0.9-9.9,4.3-30.1,7.7-48.3c3.6-19.6,21.6-33.1,41.4-31.1l2,0.2C724,60.2,732.9,80,729,101L729,101z"/>
				<path class="st7" d="M670.1,161.8c0,0,12.8,2,27.4-5.2c0,0-8,15.2-28.2,11.3L670.1,161.8L670.1,161.8z"/>
			</g>
			<g>
				<g>
					<path class="st7" d="M666.4,108.2c-0.2,1.5,0.9,3,2.5,3.2s3.1-0.8,3.3-2.3c0.2-1.5-0.9-3-2.5-3.2
						C668.1,105.6,666.6,106.7,666.4,108.2L666.4,108.2z"/>
					<path class="st7" d="M695.8,110.1c-0.2,1.5,0.9,3,2.5,3.2s3.1-0.8,3.3-2.3c0.2-1.5-0.9-3-2.5-3.2
						C697.5,107.5,696,108.5,695.8,110.1L695.8,110.1z"/>
					<path class="st1" d="M683.9,98c-0.3-0.2-4,6.5-8.2,14.8c-1,2.1-2,4-2.9,5.9c-0.4,0.9-1,1.9-0.7,3.1c0.2,0.6,0.7,1.1,1.2,1.3
						c0.5,0.2,0.9,0.3,1.3,0.3c3.2,0.5,5.1,0.7,5.2,0.5"/>
				</g>
				<path class="st7" d="M694,89.5c0.2,0.9,3.4,0.8,7,1.6c3.7,0.7,6.5,2.1,7.1,1.4c0.2-0.3-0.2-1.2-1.3-2.1
					c-1.1-0.9-2.9-1.9-5.1-2.4c-2.2-0.5-4.2-0.3-5.6,0.1C694.7,88.5,694,89.1,694,89.5L694,89.5z"/>
				<path class="st7" d="M664.9,89.2c0.5,0.8,2.7,0.2,5.3,0.5c2.6,0.1,4.8,1,5.3,0.3c0.3-0.3,0-1.1-0.9-1.9
					c-0.9-0.8-2.4-1.5-4.2-1.6c-1.8-0.1-3.4,0.4-4.4,1C665.1,88.2,664.7,88.9,664.9,89.2L664.9,89.2z"/>
			</g>
			<path class="st8" d="M667.1,132c0,0,8.2,7.8,20.4,0.7"/>
		</g>
		<path class="st6" d="M741.2,76.9c-2.8-7.3-12.2-14.2-18.4-11.9c-0.2-0.3-0.5-0.5-0.7-0.8c-0.8-6.8-5.2-11.1-11.2-14.7
			c-6.4-3.8-14.6-4.1-21.3-1c-4.5,2.1-8.4,5.8-13.3,6.4c-8.1,1-15.8-6.4-23.7-4.6c-4.7,1.1-8.3,5.8-8.1,10.6s4.1,9.2,8.9,10
			c-5.3,0.8-8.3,7.5-6.3,12.4c2,5,6.5,7.8,11.8,7.9c0,0,0.7-3.7,2.1-7c7.4,1.2,15.3-0.4,21.5-4.7c5.4-3.7,9.8-9.4,16.2-10.7
			c4.3-0.9,8.9,0.5,12.5,3c3.6,2.5,6.4,6.1,8.7,9.8c-4.9,9.9-3.5,21.7-1.9,32.6c0,0.4,0.1,0.8,0.2,1c0.2,1,0.5,1.9,1.2,2.6
			c1.5,1.4,4.1,0.7,5.7-0.6c0.2,0.4,0.4,1,0.4,1.8c0.1,0.9,0.3,1.8,1,2.2c1.1,0.6,2.3-0.4,3.1-1.4c8.9-10.6,6.7-7.4,10.9-20.7
			C742.8,91.9,744.1,84.4,741.2,76.9L741.2,76.9z"/>
		<g>
			<path class="st1" d="M724.1,118.1c0.4-0.1,16.5-10.4,14.3,9c-1.6,13.9-15.4,9.2-15.4,8.8"/>
			<path class="st8" d="M730.2,122.4c0,0-0.3-0.3-0.1-0.8c0.1-0.3,0.3-0.6,0.7-0.8c0.4-0.2,0.9-0.3,1.4-0.2c1.1,0.2,1.9,1.3,2.2,2.5
				c0.4,1.2,0.6,2.6,0.3,4c-0.5,2.8-2.2,5.2-4.3,5.5c-1,0.1-1.8-0.3-2.2-0.7c-0.4-0.4-0.4-0.7-0.4-0.7"/>
		</g>
		<path class="st8" d="M647.8,53.3c0,0-0.1,0.3-0.3,0.9c-0.1,0.6-0.2,1.6-0.1,2.7c0.2,2.4,1.6,5.9,5.1,8.5c3.4,2.7,8.8,3.8,14.4,3
			c5.7-0.8,11.3-3.5,17.2-5.9c5.9-2.4,12-4.1,17.4-3.1c5.4,0.9,9.6,4.1,12.4,7.1c2.8,3.1,4.4,6.2,5.3,8.3c0.9,2.2,1.2,3.4,1.3,3.4"
			/>
		<path class="st8" d="M723.3,78.7c0,0.1,1.3-1,3.6-0.4c2.2,0.6,4.7,2.9,6.9,5.7c2.2,2.8,3.6,5.8,4.3,8c0.8,2.2,1,3.7,1.2,3.7"/>
		<path class="st8" d="M719.2,88.2c-0.1,0.1,1.3,0.7,3.3,2c2,1.3,4.6,3.3,6.9,6.1c2.3,2.8,3.8,5.7,4.7,7.9c0.9,2.2,1.2,3.6,1.4,3.6"
			/>
		<g>
			<path class="st7" d="M733.2,241.8c-0.7,0.1-8.8-2.4-13.1-1c-4.3,1.4,1.3,3.8,5.1,5.5c0,0-0.7,1.1-2,1.1c-1.3,0-18-6.2-9.9-9.2
				c5.9-2.2,14.8-1.2,19-0.5c1.7,0.3,2.8,1.4,2.5,2.6C734.6,241,734.2,241.6,733.2,241.8L733.2,241.8z"/>
			<path class="st9" d="M715.5,247c0.7-0.1,8.4,3,12.9,1.9c4.5-1.1,0.2-2.2-3.3-4c0,0,0.9-1.1,2.1-1s16.1,5.7,7.6,8.1
				c-6.2,1.8-14.8,0.1-19-0.9c-1.6-0.4-2.6-1.6-2.1-2.8C714,247.7,714.5,247.1,715.5,247L715.5,247z"/>
		</g>
		<path class="st8" d="M701.6,189.4c0,0,13.8-0.8,23.9,13.5c0,0,7.3-16.1,5.8-25.5"/>
		<path class="st8" d="M678,189.1c0,0-15.5,0.1-21.1,9.5c0,0,0-7.7,5.4-21.2"/>
		<path class="st8" d="M685,190.2c0,0-7.3,17.9-7,71.5"/>
		<path class="st8" d="M611,232.6c0,0-2.8,19.6-2,31"/>
		<line class="st8" x1="747.3" y1="230.3" x2="746.3" y2="263.6"/>
	</g>
</g>
<g>
	<path class="st1" d="M635.2,460.5h397c9,0,16.4,7.3,16.4,16.4v247.5c0,9-7.3,16.4-16.4,16.4h-397c-9,0-16.4-7.3-16.4-16.4V476.9
		C618.8,467.8,626.1,460.5,635.2,460.5z"/>
	<g>
		<defs>
			<path id="SVGID_1_" d="M635.6,460.5h396.3c9,0,16.3,7.3,16.3,16.3v247c0,9-7.3,16.3-16.3,16.3H635.6c-9,0-16.3-7.3-16.3-16.3
				v-247C619.2,467.8,626.5,460.5,635.6,460.5z"/>
		</defs>
		<clipPath id="SVGID_00000083087011866354222620000001558444512675166378_">
			<use xlink:href="#SVGID_1_"  style="overflow:visible;"/>
		</clipPath>
		<g style="clip-path:url(#SVGID_00000083087011866354222620000001558444512675166378_);">
			<g>
				<g>
					<path class="st3" d="M936.2,713.2c-8.6-4.4-18.7-5-28.3-3.4c-5.1,0.8-10.5,2.4-14,6.2s-4.2,10.6-0.1,13.9
						c2.4,2,5.7,2.3,8.8,2.2c7.5-0.1,15.8-1.4,21.7,3.1c3.4,2.6,5.7,6.8,9.7,8.1c4,1.2,8.5-1.1,10.6-4.7s2.2-8.1,1.2-12.1
						C945.9,726.5,944.8,717.6,936.2,713.2L936.2,713.2z"/>
					<path class="st3" d="M955.9,675.2c-5.3,7.5-15.5,5-20.2,0.4s-6.7-11.2-8.6-17.6c-4.2-14.5-8.4-29.7-5.3-44.4
						c0.9-4.4,2.6-8.8,5.7-12.1c3.1-3.3,7.9-5.2,12.2-4.1c5.2,1.4,8.3,6.4,10.7,11.2c6.8,14.1,10.4,29.7,10.4,45.4
						C960.8,661.4,960,669.1,955.9,675.2"/>
					<path class="st3" d="M970.3,685.9c-5.7-6.8-6.8-16.7-4.2-25.1s8.3-15.7,14.9-21.6c7.8-6.9,16.9-12.3,26.7-15.7
						c3.8-1.4,7.9-2.4,12-2c4.1,0.4,8.2,2.5,10.1,6.1c2.8,5.3,0.1,11.8-2.8,17.1c-5.1,9.3-11,18.2-17.5,26.7
						c-5.2,6.8-11.3,13.4-19.3,16.5s-16.3,2.7-20.6-2.8"/>
					<path class="st4" d="M956.2,788.4c-0.1,0-0.3-1.2-0.5-3.4c-0.2-2.5-0.5-5.6-0.9-9.3c-0.4-3.9-1-8.6-2.1-13.7
						c-1.1-5.1-2.8-10.5-5-16.1c-2.3-5.5-5-10.6-8.2-14.6c-3.2-4-6.9-7-10.4-8.7c-3.5-1.7-6.6-2.4-8.8-2.7c-2.2-0.2-3.4-0.4-3.4-0.5
						s1.2-0.1,3.5,0c2.2,0.2,5.5,0.7,9.1,2.4c3.7,1.6,7.6,4.6,11,8.7c3.4,4.1,6.2,9.2,8.5,14.9c2.2,5.7,3.9,11.2,4.9,16.4
						c1,5.2,1.5,9.9,1.8,13.8c0.3,4,0.4,7.2,0.5,9.4C956.4,787.2,956.3,788.4,956.2,788.4L956.2,788.4z"/>
					<path class="st4" d="M955.6,781.2c0,0-0.1-0.5-0.1-1.6c0-1.2,0-2.7,0-4.5c0-3.9,0-9.6-0.2-16.6c-0.3-14-1.6-29.2-3.9-50.5
						c-2.2-20-5.2-43.3-8.3-58.5c-0.7-3.5-1.3-6.5-2-9.3c-0.6-2.7-1.1-5.1-1.6-7c-0.4-1.8-0.8-3.2-1.1-4.4c-0.2-1-0.3-1.5-0.3-1.6
						c0.1,0,0.2,0.5,0.6,1.5c0.3,1.1,0.8,2.6,1.3,4.3c0.6,1.9,1.2,4.2,1.9,6.9c0.7,2.7,1.5,5.8,2.2,9.2c3.1,13.7,6.4,32.9,8.7,54.3
						c2.3,21.3,3.4,40.8,3.5,54.8c0.1,7-0.1,12.7-0.2,16.7c-0.1,1.8-0.2,3.3-0.3,4.5C955.7,780.7,955.6,781.2,955.6,781.2
						L955.6,781.2z"/>
					<path class="st4" d="M955.5,743.8c-0.1,0-0.1-1.7,0-4.7c0.2-3,0.6-7.4,1.4-12.8c0.9-5.4,2.2-11.7,4.2-18.7
						c0.9-3.2,2.9-10.8,7.8-22.1c6.5-15.4,15.3-27.9,22.9-35.7c1.8-2.1,3.8-3.5,5.4-5c0.8-0.7,1.6-1.4,2.3-2c0.8-0.5,1.4-1,2.1-1.4
						c2.5-1.7,3.9-2.6,4-2.5c0.2,0.3-5.6,3.8-13.1,11.6c-7.4,7.9-15.9,20.3-22.3,35.6c-3.6,8.3-6.1,15.6-7.8,21.9
						c-2.1,6.9-3.4,13.2-4.4,18.5c-1,5.3-1.5,9.7-1.9,12.7C955.8,742.1,955.6,743.8,955.5,743.8L955.5,743.8z"/>
				</g>
				<polygon class="st4" points="991.7,809.9 988,861.3 921.9,861.3 918.1,809.9 				"/>
				<rect x="910.2" y="789.6" class="st4" width="87.9" height="20.3"/>
				<polygon class="st3" points="998.1,859.4 998.1,865 994,865 911.7,865 911.7,859.4 				"/>
				<polygon class="st4" points="989.9,874.9 994,865 914.8,865 919.5,874.9 				"/>
				<path class="st5" d="M919.3,826.7c0,0,0.1,0.2,0.3,0.5c0.3,0.3,0.6,0.8,1,1.3c0.9,1.2,2.2,2.8,3.8,4.9l0.2,0.2l0.2-0.2
					c2.4-3.3,5.7-7.8,9.5-13.1h-0.5c2.8,4,5.9,8.4,9.3,13.2l0.3,0.4l0.3-0.4c3.4-4.1,7.2-8.5,11.1-13.1h-0.6
					c0.2,0.2,0.4,0.5,0.6,0.8c3.4,4.3,6.7,8.5,9.9,12.4l0.3,0.4l0.3-0.4c3.3-4.8,6.5-9.2,9.3-13.2l-0.5,0c4.6,5.2,8.5,9.7,11.5,13.1
					l0.2,0.2l0.2-0.3c1.5-2.5,2.7-4.6,3.6-6c0.4-0.7,0.7-1.2,0.9-1.6c0.2-0.4,0.3-0.6,0.3-0.6s-0.2,0.2-0.4,0.5
					c-0.3,0.4-0.6,0.9-1,1.5c-0.9,1.4-2.2,3.4-3.8,5.9l0.4,0c-2.9-3.5-6.8-7.9-11.3-13.2l-0.3-0.3l-0.3,0.4c-2.9,4-6,8.4-9.4,13.1
					l0.6,0c-3.1-3.9-6.4-8.1-9.8-12.4c-0.2-0.3-0.4-0.5-0.6-0.8l-0.3-0.4l-0.3,0.4c-3.9,4.6-7.6,9.1-11,13.2l0.6,0
					c-3.4-4.7-6.6-9.2-9.4-13.1l-0.3-0.4l-0.3,0.4c-3.7,5.3-6.9,9.8-9.3,13.2h0.3c-1.7-2-3-3.6-4-4.8c-0.4-0.5-0.8-0.9-1.1-1.2
					C919.5,826.8,919.4,826.7,919.3,826.7L919.3,826.7z"/>
				<path class="st5" d="M917.2,809.5c0,0.2,16.6,0.4,37,0.4s37-0.2,37-0.4s-16.6-0.4-37-0.4S917.2,809.3,917.2,809.5z"/>
				<path class="st5" d="M913.8,865.5c0,0.2,18,0.4,40.2,0.4s40.2-0.2,40.2-0.4s-18-0.4-40.2-0.4S913.8,865.3,913.8,865.5z"/>
			</g>
			<g>
				<path class="st1" d="M677.6,739.9l-12.9,54.3c0,0,66.8,6.3,66.8,4.5v-53.9L677.6,739.9z"/>
				<path class="st6" d="M748.4,621.7c-23.5,1.8-43.9,33.3-49.2,44.1c-9,18.5-34.5,74.1-34.5,74.1l70.6,28.3l-2.2-49.6"/>
				<path class="st6" d="M722.2,710.8c0,0-7.8,96.5-6.3,128.6h191.9c0,0,27.4-146.1,14.4-188.8c0,0-22.6-13-58.4-21
					c-35.8-8-105.2-7.6-116.5-7.8"/>
				<path class="st11" d="M844.5,836.7l47-104.5l5.1,104.5C896.6,836.7,850.3,836.4,844.5,836.7z"/>
				<polygon class="st6" points="743.9,799.3 785.5,810.8 788.3,800.6 746.7,789 				"/>
				<path class="st1" d="M697.3,783.4l6,1.7l0,0c0.2-0.6,0.8-1,1.4-0.8l40.3,11.1l0.7-2.3l-40.3-11.1c-0.6-0.2-1-0.8-0.8-1.4l0,0
					l-6-1.6L697.3,783.4L697.3,783.4z"/>
				<g>
					<path class="st1" d="M885.7,776.1l-2.3,18c0,0-10.5,0.3-67.6,6.1c0,0-16.3-14.5-31.3-13.7s-32-0.4-30.5,2.2
						c1.4,2.5,5.8,5.1,18.8,7.2c13,2.2,14.4,8.3,5.9,11.2c-8.4,2.9-22.2-3.6-22.2-3.6l-10.3-4c0,0,1.6,7.6,5.2,11.2
						c0,0,6,15.5,12.6,17.3s51.8,1.8,51.8,1.8s43.4-0.2,72,1.4c28.6,1.6,54.9,7,58.2-45"/>
					<path class="st8" d="M765.1,815.4c0,0-7.1-1.5-13.7-4.6"/>
					<line class="st8" x1="898.4" y1="792.6" x2="883.4" y2="794.1"/>
				</g>
				<path class="st6" d="M914.9,646.9c0,0,18.4,6.9,31.3,21.3c23.2,25.7,10.5,130.5,10.5,130.5s-52.4,0.7-72.3-10.8
					c0,0,5.9-51.2,8.1-60.3"/>
				<path class="st1" d="M789.2,503.5c0,0-7.2,5.8-11.2,26.4c-4,20.6-11.2,78.1,11.2,85.3c4.9,1.6,14.8,2.4,14.8,2.4
					c-1.7,11.4-4.8,13.2-4.8,13.2s-4.1,9.9,22,16.1c26,6.3,45.6-16.6,45.6-16.6c-5.8-28.7,4.2-50.1,4.2-50.1s5.1-24.7,5.1-41.9
					s-4.5-30.1-35.9-38.1S789.2,503.5,789.2,503.5L789.2,503.5z"/>
				<path class="st6" d="M868.8,561.8c0,0-10.1,7-11.2-2.9c-1.1-9.9,4.1-37.2,4.1-37.2s-5.9,0.7-10-3.3c-4.1-4-5.2-9.5-5.2-9.5
					s-37.5,14.6-61.1,1c0,0-6.4,10.1-8.5,26c0,0-23.2-13.7-3.3-27c0,0-8-7.5-2.2-15.7c5.8-8.2,14-3.7,14-3.7s-14.6-22.6,14.9-29
					c29.6-6.4,39.8,14,39.8,14s9.2-6.1,29.3,2.4s14.9,29,14.9,29s7.8,2.4,9.2,9.9c1.4,7.5-6.8,11.6-6.8,11.6s7.8,7.2,7,17.7
					c-0.8,10.5-9.4,15.9-9.4,15.9s2.7,10.3,0,17.4s-15.4,13.3-17.4,6.1C865,577.3,868.8,561.8,868.8,561.8L868.8,561.8z"/>
				<path class="st8" d="M804,617.6c18.5,0.7,36.2-6,36.2-6"/>
				<ellipse class="st12" cx="823.3" cy="540.4" rx="2.8" ry="3.1"/>
				<ellipse class="st12" cx="791.9" cy="537.8" rx="2.8" ry="3.1"/>
				<path class="st8" d="M816.8,522.8c0,0,8.2-3.6,16.7,2.5"/>
				<path class="st8" d="M800.4,520.1c0,0-7.8-4.4-16.8,0.8"/>
				<path class="st8" d="M806.4,531c0,0-1.2,17-14.5,24.2c-18.1,9.8,7.2,17,7.2,17"/>
				<path class="st1" d="M863.8,565.3c0,0,12.1-11.8,15.7,3.6c2.4,10.1-14.5,11.8-14.5,11.8"/>
				<path class="st8" d="M827.9,580.7c-1.4,0.5-16.7,5.6-23.9,4.8s-9.6-4.8-9.6-4.8s-0.7,11.6,9.6,12.3
					C814.3,593.7,827.9,580.7,827.9,580.7z"/>
				<path class="st8" d="M879.6,635c0,0,5.5,26.5-24.9,34.7c0,0-12.1-14.9-19.5-17.3"/>
				<path class="st8" d="M813.5,650c0,0-14.9,6.3-21.7,13.5c0,0-15.2-17.6-9.6-33.2"/>
				<g>
					<path class="st7" d="M873.4,712.7c-0.9,0.2-10.9-3-16.2-1.2s1.7,4.7,6.3,6.7c0,0-0.9,1.4-2.4,1.4s-22.3-7.7-12.3-11.4
						c7.3-2.7,18.2-1.5,23.5-0.6c2.1,0.3,3.5,1.8,3,3.2C875.1,711.7,874.6,712.5,873.4,712.7L873.4,712.7z"/>
					<path class="st9" d="M851.5,719.1c0.9-0.1,10.4,3.7,15.9,2.4s0.2-2.7-4.1-5c0,0,1.1-1.3,2.6-1.2c1.5,0.1,19.8,7.1,9.4,10.1
						c-7.7,2.2-18.4,0.2-23.5-1.1c-2-0.5-3.2-2-2.6-3.4C849.6,720,850.3,719.3,851.5,719.1L851.5,719.1z"/>
				</g>
				<path class="st7" d="M822.4,616.2c0,0-9.1,7.7-19.2,7.3l0.8-5.9C804,617.6,815.6,617.6,822.4,616.2z"/>
				<path class="st8" d="M830.7,771.9c0,0-29-13.9-49.7-32"/>
				<path class="st11" d="M895.5,730.6c0,0-6.3,41.5-4.6,42.9s22,5.3,22,5.3S897.6,756.4,895.5,730.6L895.5,730.6z"/>
				<path class="st11" d="M848.7,499c-5.1,1.4-25.2,14.3-40.5,9.9c-15.3-4.4-19.1-12.9-10.9-15.3c0,0-6.5-10.2,0-18.4
					s30.6,6.8,30.6,6.8s27.6-6.7,40.9,4.8s4.3,17.3,4.3,17.3s10,2.4,9.3,9.2c-0.7,6.8-4.8,10.1-4.8,10.1s6.3,6,7.2,14.3
					c1,8.3-11.8,10.6-11.8,10.6s-9.5-10.2-6-17.4l4.8-7.5c0,0-4.5-2.7-4.8-6.8c0,0-5.5,1.7-9.4-4.1C853.8,506.9,848.7,499,848.7,499
					L848.7,499z"/>
			</g>
			<path class="st8" d="M802.2,740.2c0,0-2-36.6,18.4-90.7"/>
		</g>
	</g>
</g>
<g>
	<path class="st1" d="M40.7,296.1h301.3c6.9,0,12.4,5.6,12.4,12.4v187.8c0,6.9-5.6,12.4-12.4,12.4H40.7c-6.9,0-12.4-5.6-12.4-12.4
		V308.6C28.3,301.7,33.8,296.1,40.7,296.1z"/>
	<g>
		<defs>
			<path id="SVGID_00000129183092134793340960000002189974262186979483_" d="M42.9,297.7h296.9c6.8,0,12.2,5.5,12.2,12.2V495
				c0,6.8-5.5,12.2-12.2,12.2H42.9c-6.8,0-12.2-5.5-12.2-12.2V309.9C30.6,303.2,36.1,297.7,42.9,297.7z"/>
		</defs>
		<clipPath id="SVGID_00000081613827785722162510000016602705105900430990_">
			<use xlink:href="#SVGID_00000129183092134793340960000002189974262186979483_"  style="overflow:visible;"/>
		</clipPath>
		<g style="clip-path:url(#SVGID_00000081613827785722162510000016602705105900430990_);">
			<g>
				
					<rect x="23.5" y="441.1" transform="matrix(1 -5.410494e-03 5.410494e-03 1 -2.6064 0.1782)" class="st4" width="16.4" height="81.4"/>
				<g>
					
						<rect x="-118.3" y="441.4" transform="matrix(1 -5.410494e-03 5.410494e-03 1 -2.5112 -0.5188)" class="st3" width="42.4" height="44.9"/>
					
						<rect x="-76.2" y="441.2" transform="matrix(1 -5.410494e-03 5.410494e-03 1 -2.5094 -0.2907)" class="st5" width="42.4" height="44.9"/>
					<path class="st4" d="M-118.4,454c28.1,0.2,56.4,0.1,84.5-0.4c0.6,0,0.6-0.9,0-0.9c-28.1-0.2-56.4,0-84.5,0.5
						C-118.9,453.2-118.9,454-118.4,454L-118.4,454L-118.4,454z"/>
				</g>
				<g>
					
						<rect x="-144.7" y="485.7" transform="matrix(1 -5.410494e-03 5.410494e-03 1 -2.7284 -0.5676)" class="st3" width="76.9" height="36.6"/>
					
						<rect x="-68.2" y="485.3" transform="matrix(1 -5.410494e-03 5.410494e-03 1 -2.725 -0.1533)" class="st5" width="76.9" height="36.6"/>
					<path class="st4" d="M-144.8,496.1c51.1,0.6,102.4,0.1,153.5-0.8c0.6,0,0.6-0.9,0-0.9c-51.1-0.3-102.4-0.2-153.5,0.9
						C-145.3,495.3-145.3,496.1-144.8,496.1L-144.8,496.1z"/>
				</g>
				<g>
					<rect x="-173.6" y="522.5" class="st4" width="298.1" height="13.1"/>
					<rect x="-124.8" y="528.8" class="st4" width="12.1" height="44.8"/>
					<rect x="55.9" y="528.8" class="st4" width="12.1" height="44.8"/>
				</g>
				
					<rect x="39.5" y="410.8" transform="matrix(1 -5.410494e-03 5.410494e-03 1 -2.5246 0.2647)" class="st3" width="16.4" height="111.9"/>
				<g>
					
						<rect x="55.9" y="431.6" transform="matrix(1 -5.410494e-03 5.410494e-03 1 -2.5798 0.3783)" class="st5" width="25.4" height="90.7"/>
					<path class="st4" d="M80.9,449.1c0,0.2-5.7,0.4-12.7,0.4s-12.7-0.2-12.7-0.4s5.7-0.4,12.7-0.4S80.9,448.8,80.9,449.1z"/>
					<path class="st4" d="M80.9,445.3c0,0.2-5.7,0.4-12.7,0.4s-12.7-0.2-12.7-0.4s5.7-0.4,12.7-0.4S80.9,445,80.9,445.3z"/>
					<path class="st4" d="M80.9,508.6c0,0.2-5.7,0.4-12.7,0.4s-12.7-0.2-12.7-0.4s5.7-0.4,12.7-0.4S80.9,508.4,80.9,508.6z"/>
					<path class="st4" d="M80.9,504.8c0,0.2-5.7,0.4-12.7,0.4s-12.7-0.2-12.7-0.4s5.7-0.4,12.7-0.4S80.9,504.6,80.9,504.8z"/>
					<path class="st4" d="M68.6,496.5c-0.2,0-0.4-9.2-0.4-20.4s0.2-20.4,0.4-20.4s0.4,9.2,0.4,20.4S68.8,496.5,68.6,496.5z"/>
				</g>
				<rect x="81.2" y="453.9" class="st3" width="27.7" height="68.5"/>
				<path class="st4" d="M51.8,429.9c0,2.6-2.1,4.7-4.7,4.7s-4.7-2.1-4.7-4.7s2.1-4.7,4.7-4.7S51.8,427.3,51.8,429.9z"/>
				<rect x="45.6" y="442.8" class="st4" width="2.9" height="66.6"/>
			</g>
			<g>
				
					<rect x="420.9" y="457.7" transform="matrix(1 -5.410494e-03 5.410494e-03 1 -2.6903 2.3286)" class="st4" width="16.3" height="81.4"/>
				<g>
					
						<rect x="279.1" y="458" transform="matrix(1 -5.410494e-03 5.410494e-03 1 -2.5951 1.6316)" class="st3" width="42.3" height="44.9"/>
					
						<rect x="321.2" y="457.8" transform="matrix(1 -5.410494e-03 5.410494e-03 1 -2.5933 1.8596)" class="st5" width="42.3" height="44.9"/>
					<path class="st4" d="M279,470.6c28.1,0.2,56.4,0.1,84.5-0.4c0.6,0,0.6-0.9,0-0.9c-28.1-0.2-56.4,0-84.5,0.5
						C278.5,469.8,278.5,470.6,279,470.6L279,470.6L279,470.6z"/>
				</g>
				<g>
					
						<rect x="252.7" y="502.3" transform="matrix(1 -5.410494e-03 5.410494e-03 1 -2.8123 1.5828)" class="st3" width="76.9" height="36.6"/>
					
						<rect x="329.2" y="501.9" transform="matrix(1 -5.410494e-03 5.410494e-03 1 -2.809 1.9971)" class="st5" width="76.9" height="36.6"/>
					<path class="st4" d="M252.6,512.7c51.1,0.6,102.4,0.1,153.5-0.8c0.6,0,0.6-0.9,0-0.9c-51.1-0.3-102.4-0.2-153.5,0.9
						C252.1,511.9,252.1,512.7,252.6,512.7L252.6,512.7z"/>
				</g>
				<g>
					<rect x="223.8" y="539.1" class="st4" width="298.1" height="13.1"/>
					<rect x="272.6" y="545.4" class="st4" width="12.1" height="44.8"/>
					<rect x="453.3" y="545.4" class="st4" width="12.1" height="44.8"/>
				</g>
				
					<rect x="436.9" y="427.4" transform="matrix(1 -5.410494e-03 5.410494e-03 1 -2.6086 2.4151)" class="st3" width="16.3" height="111.9"/>
				<g>
					
						<rect x="453.3" y="448.2" transform="matrix(1 -5.410494e-03 5.410494e-03 1 -2.6637 2.5286)" class="st5" width="25.4" height="90.7"/>
					<path class="st4" d="M478.3,465.7c0,0.2-5.7,0.4-12.7,0.4s-12.7-0.2-12.7-0.4s5.7-0.4,12.7-0.4S478.3,465.4,478.3,465.7z"/>
					<path class="st4" d="M478.3,461.9c0,0.2-5.7,0.4-12.7,0.4s-12.7-0.2-12.7-0.4s5.7-0.4,12.7-0.4S478.3,461.6,478.3,461.9z"/>
					<path class="st4" d="M478.3,525.3c0,0.2-5.7,0.4-12.7,0.4s-12.7-0.2-12.7-0.4s5.7-0.4,12.7-0.4S478.3,525,478.3,525.3z"/>
					<path class="st4" d="M478.3,521.5c0,0.2-5.7,0.4-12.7,0.4s-12.7-0.2-12.7-0.4s5.7-0.4,12.7-0.4S478.3,521.2,478.3,521.5z"/>
					<path class="st4" d="M466,513.1c-0.2,0-0.4-9.1-0.4-20.4s0.2-20.4,0.4-20.4s0.4,9.2,0.4,20.4S466.2,513.1,466,513.1z"/>
				</g>
				<rect x="478.6" y="470.5" class="st3" width="27.7" height="68.5"/>
				<path class="st4" d="M449.2,446.5c0,2.6-2.1,4.7-4.7,4.7s-4.7-2.1-4.7-4.7s2.1-4.7,4.7-4.7S449.2,443.9,449.2,446.5z"/>
				<rect x="443" y="459.4" class="st4" width="2.9" height="66.6"/>
			</g>
			<g>
				<g>
					<path class="st6" d="M203.5,323.5c0.2-3.8,3.4-7,7.1-8.2c3.7-1.1,7.7-0.6,11.3,0.6c8,2.6,14.6,8,21.1,13.3
						c10.1,8.2,19.8,19.5,23.7,31.9c2.9,9.4,3.7,15.5,0.8,25.4c-2.6,8.8-4.7,17.3-4.2,24.7c0.8,11.6,2.2,14.4,5.2,25.8
						c1.9,7.1-4.5,25.8-4.5,25.8l-40.2-15.4c-14.4-6.8-45.3-19.3-45.3-19.3L203.5,323.5L203.5,323.5z"/>
					<g>
						<g>
							<path class="st1" d="M226.1,459.9c-0.1-9.8-0.2-16.6-0.2-16.5c0,0,17.6-4,21.1-29.1c1.8-12.5,2.7-32.3,1.3-48.9
								c-1.2-15-11.5-33.2-26.4-31.4l-46.4,12.6c-4.5,0.6-6,4.4-5.9,9l-0.3,2.1l3.4,71.5l-1.5,30.4c0.6,13.6,14,26,27.6,26.6l0,0
								C214,487,226.2,475,226.1,459.9L226.1,459.9z"/>
							<path class="st12" d="M237.9,385.3c0.1,1.7-1.3,3.2-3,3.3c-1.8,0.1-3.3-1.1-3.3-2.8c-0.1-1.7,1.3-3.2,3-3.3
								C236.3,382.4,237.8,383.6,237.9,385.3L237.9,385.3z"/>
							<path class="st12" d="M205.6,385c0.1,1.7-1.3,3.2-3,3.3c-1.8,0.1-3.3-1.1-3.3-2.8c-0.1-1.7,1.3-3.2,3-3.3
								C204,382,205.5,383.3,205.6,385L205.6,385z"/>
							<path class="st1" d="M220.8,373.9c0.4-0.1,3.8,7.4,7.5,16.9c0.9,2.3,1.8,4.6,2.6,6.7c0.3,1,0.9,2.1,0.5,3.5
								c-0.2,0.7-0.9,1.1-1.4,1.3c-0.6,0.2-1.1,0.2-1.5,0.2c-2.3,0.1-4.1,0.4-5.7,0.1"/>
							<path class="st7" d="M225.7,443c0,0-14.2,1.2-28.3-7c0,0,7.4,14.8,28.4,12.4L225.7,443L225.7,443z"/>
						</g>
						<path class="st7" d="M210.1,364.4c-0.4,0.9-3.8,0.2-7.9,0.4c-4.1,0.1-7.4,1.1-7.9,0.2c-0.2-0.4,0.4-1.3,1.8-2.1
							c1.4-0.8,3.5-1.5,6-1.6c2.4-0.1,4.6,0.4,6.1,1.1C209.6,363.1,210.3,363.9,210.1,364.4L210.1,364.4z"/>
						<path class="st7" d="M243.1,365.9c-0.7,0.8-3.5,0-6.9,0c-3.4-0.1-6.2,0.6-6.9-0.2c-0.3-0.4,0.1-1.2,1.4-2
							c1.2-0.8,3.3-1.4,5.6-1.4s4.3,0.7,5.5,1.5C243,364.7,243.4,365.5,243.1,365.9L243.1,365.9z"/>
					</g>
					<path class="st6" d="M220,338.2l-36.5,21.9c0,0-1.1,16.6-7.8,32.8c-6.7-5.8-10.9,5.3-12.9-3.2c-0.1-0.4,1.8,17.9,8.9,18.5
						l1.2,19.9l-34.8-8.5c0,0,1.9-24.1,7.8-38.8c3.7-9.1,5.6-16.8,9.3-25.9c2.8-6.9,7.7-17.2,11.3-22.2c7.9-10.6,37.2-11,37.2-11
						c12.9,3,4.2,1.6,15.1,9.2l3.7,10"/>
					<path class="st14" d="M222.9,411.1c-1.2-1.1-4.7-1.9-7.3-0.4l0,0c-0.1,0-0.2,0.1-0.2,0.1c-1.3,0.6-2.3,2-2.3,3.4
						c0,1.3,0.9,2.5,2,3.2s2.5,0.8,3.8,0.7c1.7-0.2,3.4-0.9,4.4-2.3C224.2,414.3,224.2,412.2,222.9,411.1L222.9,411.1z"/>
					<path class="st8" d="M226.2,413.1c0.1,0.1-0.6,0.8-2,1.4c-1.4,0.6-3.6,1-6,0.5c-2.3-0.6-4.1-1.9-5.1-3.1
						c-1-1.2-1.3-2.1-1.2-2.2"/>
					<path class="st6" d="M249.1,394.2l5.2-21c4.7-6.4,1-16.9-2.3-24.1c-3.3-7.2-9.6-12.7-16.6-16.5c-7-3.7-14.7-5.8-22.4-7.7
						c2.8,9.3,10,18.4,18.5,23.3c0,0,12.8,8.7,15.1,19C249,378.6,249,394.2,249.1,394.2L249.1,394.2z"/>
					<path class="st1" d="M175.8,392.8c0-5.3-5.6-9.1-10.4-6.7c-2.6,1.3-4.7,4.1-4.8,9.7c-0.2,14.9,11.9,12.5,14,12.2"/>
					<path class="st1" d="M170.2,391.2c-0.1-0.3-0.2-0.6-0.6-0.9c-0.4-0.3-0.9-0.5-1.5-0.4c-1.2,0.1-2.2,1.1-2.8,2.3
						c-0.6,1.2-1,2.6-1,4.1c0.1,3,1.6,5.8,3.8,6.5"/>
					<path class="st1" d="M164.2,408.9c-0.1,2.9,2.2,5.3,5,5.4s5.3-2.1,5.4-5c0.1-2.9-2.2-5.3-5-5.4S164.3,406,164.2,408.9
						L164.2,408.9z"/>
				</g>
				<g>
					<path class="st6" d="M213,465.2c0,0,8.3-5.8,9.4-4.9c2.3,1.9,7.6,5.3,17.9,8.7c15.3,5.1,27.1,4,32.2,36.5v9l-155.6-2l0.4-11.2
						c-4.6-42.4,35.7-39,43.4-46.6c0.2-0.2-0.1,0.2,0,0l7-5.7C167.5,448.9,163.6,434.6,213,465.2L213,465.2z"/>
					<polygon class="st1" points="220.8,490.5 218.4,458.3 172.3,432.5 170.4,443.7 199.2,468.6 					"/>
					<polygon class="st1" points="219.8,489 218.4,458.3 226.2,452.7 231.2,463.9 224.5,473.9 					"/>
				</g>
				<path class="st1" d="M209.2,476.5c14.8-13.2,22.7-17.9,22.7-17.9l2.8,11.9c0,0-6,3.9-17.8,16.9
					C215,483.4,211.6,481.1,209.2,476.5z"/>
				<path class="st1" d="M245.9,537.8c-3.1-13.4-23.7-58.9-37.6-71.4c-14.8-13.2-37.9-29.3-37.9-29.3l-2.8,11.9
					c0,0,20.5,11.7,32.2,24.7s32.6,45.4,40.8,64.1L245.9,537.8L245.9,537.8z"/>
				<path class="st7" d="M257,493.8c-0.6,0.1-7.3-2-10.8-0.8c-3.6,1.1,1.1,3.2,4.2,4.5c0,0-0.6,0.9-1.6,0.9s-14.9-5.1-8.2-7.6
					c4.9-1.8,12.2-1,15.7-0.4c1.4,0.2,2.3,1.2,2,2.2C258.2,493.1,257.8,493.6,257,493.8L257,493.8z"/>
				<path class="st9" d="M242.4,498.1c0.6-0.1,7,2.5,10.7,1.6c3.7-0.9,0.2-1.8-2.7-3.3c0,0,0.7-0.9,1.8-0.8c1,0.1,13.3,4.7,6.3,6.7
					c-5.1,1.5-12.3,0.1-15.7-0.7c-1.3-0.3-2.1-1.3-1.7-2.3C241.1,498.7,241.6,498.2,242.4,498.1L242.4,498.1z"/>
			</g>
		</g>
	</g>
</g>
</svg>
