<?xml version="1.0" encoding="UTF-8"?>
<svg id="Capa_2" data-name="Capa 2" xmlns="http://www.w3.org/2000/svg" xmlns:xlink="http://www.w3.org/1999/xlink" viewBox="0 0 1021.31 723.64">
  <defs>
    <style>
      .cls-1 {
        fill: #ea5518;
      }

      .cls-2 {
        fill: #f5f5f5;
      }

      .cls-3 {
        clip-path: url(#clippath-1);
      }

      .cls-4 {
        fill: #e1e1e1;
      }

      .cls-5, .cls-6 {
        fill: #003188;
      }

      .cls-7, .cls-8, .cls-9, .cls-6, .cls-10 {
        stroke: #003188;
        stroke-miterlimit: 10;
      }

      .cls-7, .cls-11 {
        fill: none;
      }

      .cls-8 {
        fill: #cae0ff;
      }

      .cls-12 {
        clip-path: url(#clippath);
      }

      .cls-9, .cls-13 {
        fill: #f7c9ba;
      }

      .cls-10 {
        fill: #fff;
      }

      .cls-14 {
        fill: #ececec;
      }

      .cls-15 {
        fill: #acceef;
      }

      .circle{
        animation: circleAnim 8s infinite;
        transform-box: fill-box;
        transform-origin: center;
        transform: scale(0.5);
      }
      @keyframes circleAnim{
        5%{ transform: scale(1); }
        45%{ transform: scale(1); }
        50%{ transform: scale(0.5); }
      }

      .circle2{
        animation-delay: 4s;
      }

      .p1{
        animation: p1Anim 8s infinite;
      }
      @keyframes p1Anim{
        50%{transform: translate(10px, 20px)}
      }

      .p3{
        animation: p3Anim 7s infinite 2s;
      }
      @keyframes p3Anim{
        50%{transform: translate(10px, 20px)}
      }

      .p2{
        animation: p2Anim 7s infinite;
      }
      @keyframes p2Anim{
        50%{transform: translate(-20px, 0)}
      }



    </style>
    <clipPath id="clippath">
      <rect class="cls-11" x="591.46" y="438.35" width="428.94" height="279.69" rx="16.34" ry="16.34"/>
    </clipPath>
    <clipPath id="clippath-1">
      <rect class="cls-11" x="2.86" y="275.52" width="321.38" height="209.56" rx="12.24" ry="12.24"/>
    </clipPath>
  </defs>
  <g id="Capa_2-2" data-name="Capa 2">
    <g>
      <circle class="cls-5 circle" cx="492.64" cy="366.3" r="357.34"/>
      <circle class="cls-1 circle circle2" cx="492.64" cy="366.3" r="357.34"/>
      <g>
        <path class="cls-10" d="M494.98,120.3c-.3,0-.6-.01-.9-.01-136.47,0-247,110.53-247,246.89s110.52,246.89,247,246.89c.3,0,.6,0,.9-.01,136.06-.48,246.22-110.82,246.22-246.88s-110.15-246.39-246.22-246.88Z"/>
        <path class="cls-9" d="M725.01,277.63s-9.93,1.49-12.89,.22c-2.2-.95-5.48-4.91-6.47-7.09-1.18-2.61,1.3-10.08-1.24-11.41-1.67-.87-5.46,2.12-6.62,3.62-2.21,2.84-3.56,13.94-3.56,13.94,0,0-8.2-6.96-9.56-10.17-.93-2.22,.66-7.45-.39-9.62-1.33-2.74-6.99-5.88-9.23-7.95-.88-.81-2.3-2.93-3.41-3.38-2.48-1.02-9.17-2.19-10.71,0-1.46,2.07,1.76,7.61,3.39,9.54,2.38,2.82,9.98,4.92,12.89,7.18,.64,.5,2.38,1.57,2.24,2.37-.14,.77-2.38,.73-2.79,1.39-.98,1.62,1.14,5.98,.1,7.56-.93,1.42-4.57,2.47-6.26,2.62-1.37,.12-4.22-.41-5.37-1.17-1.21-.8-4.04-3.48-3.34-4.75,1.05-1.91,6.73,1.39,8.71,.47,.89-.42,2.52-2.2,2.35-3.17-.98-5.74-15.94-8.28-19.31-13.03-.83-1.17-.09-5.14-1.47-5.55-2.53-.75-5.29,6.4-7.84,7.09-1.96,.53-6.06-2.34-7.96-1.64-4.65,1.73-12.11,15.74-12.11,15.74,0,0-1.06,5.17-2.37,6.16-1.55,1.17-5.8,.61-7.74,.71-2.86,.14-8.66,.69-11.45,.07-1.85-.4-5.72-1.69-6.85-3.2-2.06-2.76-2.39-10.18-2.02-13.6,.19-1.72,2.46-6.49,2.46-6.49,0,0,8.67-2.53,11.66-2.55,3.24-.03,10,4.32,12.72,2.55,1.51-.99,2.5-5.51,1.54-7.04-.74-1.17-4.63-.12-5.4-1.27-1.54-2.31-.13-9,1.85-10.95,2.3-2.27,10.04-.3,12.79-2,3.29-2.04,5.67-10.58,8.95-12.64,1.98-1.25,6.9-1.53,9.24-1.55,2.11-.02,6.24,1.08,8.34,1.23,.77,.06,2.56,.58,3.06,0,1.97-2.26,.92-10.37-1.68-11.87-2.37-1.37-7.63,5.17-10.14,4.09-2.2-.94-1.68-7.4-3.56-8.87-1.17-.92-5.88-.82-5.88-.82,0,0-1.53-4.6-1.1-6.08,.5-1.71,3.34-4.22,4.81-5.23,2.53-1.73,9.1-2.46,11.41-4.47,1.13-.99,2.94-5.25,2.94-5.25-43.47-38.3-100.42-61.51-162.74-61.79-.19,0-.37,0-.56,0-54.27,0-104.48,17.62-145.32,47.37,0,0,9.45-.87,12.47-.1,1.54,.39,4.07,2.52,5.56,3.07,2.51,.94,8.59,.35,10.47,2.26,.74,.75,.02,3.43,.82,4.11,3.17,2.7,14.29,4.05,16.66,.62,.82-1.19-1.06-4.52-2.26-5.34-3.05-2.09-13.48,3.04-14.79-.41-.43-1.12,3.18-2.12,3.49-3.28,.26-.99-.39-3.31-1.22-3.91-2.69-1.98-12.33,3.17-13.38,0-1.43-4.32,10.28-9.46,14.6-10.89,3.32-1.1,10.86-1.59,13.98,0,2.49,1.27,4.12,7.71,6.57,9.05,2.4,1.31,8.35,1.57,10.91,.62,2.14-.8,4.3-6.03,6.56-6.38,1.37-.21,4.73,1.1,4.95,2.47,.49,3.12-6.13,7.62-9.05,8.84-2.75,1.15-12.54,.21-11.92,.21s-.55,7.15,1.04,8.63c2.79,2.58,12.06,1.75,15.18-.42,.91-.63,.76-3.46,1.66-4.1,2.13-1.53,8.49,1.1,10.47-.62,1.19-1.03,2.13-4.87,1.24-6.16-.89-1.29-5.38,.31-6.17-1.04-.74-1.28,.98-4.53,2.06-5.55,.9-.85,3.5-1.28,4.73-1.43,4.08-.5,15.06-3.06,16.45,.81,1.03,2.88-8.16,5.3-9.07,8.23-.49,1.56,.27,5.25,1.47,6.36,1.75,1.63,7.68,3.05,9.45,1.44,2.13-1.94-2.05-9-.62-11.51,1.26-2.22,6.6-3.98,9.04-4.73,3.86-1.19,12.05-2.46,16.05-1.85,5,.76,13.87,6.14,18.49,8.19,1.18,.52,4.01,1.01,4.71,2.09,1.21,1.85-1.36,7.1,0,8.84,1.18,1.51,6.64,.1,7.42,1.85,.81,1.81-2.01,5.97-3.71,6.99-1.81,1.09-6.32,0-8.42,0-.51,0-1.63-.29-2.06,0-1.77,1.21-1.2,7.01-3.1,8.01-5.45,2.87-23.18,.45-23.96-5.65-.69-5.29,18.26-4.73,18.83-10.03,.25-2.34-4.92-5.43-7.18-6.1-3.92-1.17-12.58,.22-16.24,2.05-.46,.23-.91,1.39-1.42,1.47-.01,0-.04-.03-.05-.03-.11,.02-.19,.27-.26,.35-1.09,1.28-3.15,4.13-4.67,4.86-1.75,.83-6.53-.87-7.72,.65-.6,.77,.01,3.09,.62,3.85,.45,.57,2.31,.49,2.69,1.11,.16,.27,.11,1.04-.11,1.27-1.09,1.15-5.17-.23-6.28,.9-.65,.66,.21,3.02-.46,3.65-1.1,1.03-4.85,1.27-6.02,.32-1.42-1.16,.47-6.27-1.08-7.25-2.38-1.51-8.21,2.15-10.8,3.28-5.85,2.56-19.63,6.99-22.04,12.9-.89,2.18,2.48,9.08,2.48,9.08l6.16,4.02s10.29-.64,12.33,1.7c2.3,2.64-2.67,11.74,0,14.01,1.1,.93,4.54-.06,5.69-.92,2.43-1.82,2.96-8.96,5.25-10.95,2.59-2.25,11.07-1.38,13.1-4.16,2.48-3.39-1.87-13.04,0-16.81,1.02-2.04,5.05-5.03,7.29-5.5,4.43-.93,15.02,.46,17.63,4.16,1.61,2.28-3.1,9.02-1.24,11.1,.79,.88,3.59,.27,4.74,0,3.51-.82,12.95-6.37,12.95-6.37,0,0-1.23,11.44,.62,14.59,.64,1.09,3.24,1.97,4.32,2.63,1.28,.78,4.41,1.8,5.11,3.12,1.02,1.91,.9,6.92-.4,8.65-.75,1-3.99,.59-4.71,1.61-.88,1.22-.81,4.75,0,6.02,1.07,1.66,6.15,1.6,7.18,3.27,.78,1.27,.82,4.88-.21,5.95-.55,.58-2.56,.78-3.16,.27-.08-.06,0-.13-.02-.16-.66-.74-2.84-.87-3.79-1.17-2.49-.77-8.28-1.08-9.96-3.07-.72-.85,.26-3.67-.58-4.41,0,0-.02,0-.02,0-.36-1.16,3.45-1.68,4.01-2.76,.47-.89,.62-3.23,0-4.02-.68-.88-3.35-1.64-4.32-1.08-.84,.48-.34,3.07-1.07,3.71-1.44,1.27-5.66,1.33-7.57,1.17-.2-.02-.59-.37-.76-.25-.08,.05,.06,.3,0,.38-.43,.51-2.04,.71-2.63,.4-1.07-.56-1.27-3.49-2.14-4.32-.49-.47-1.82-.95-2.48-1.08-1.32-.28-4.13-.45-5.4,0-.75,.27-2.12,1.29-2.46,2.01-.48,1.01-.65,3.56,0,4.47,.71,.99,3.43,1.26,4.62,1.54,1.12,.26,4.4-.5,4.56,.64,.04,.28-.79,.28-1.02,.45-1.26,.91-2.61,4.66-4.16,4.61-.74-.02-1.22-1.9-1.84-2.3-.87-.57-3.01-1.32-4.01-1.06-3.64,.92-11.07,6.55-10.95,10.31,.02,.46,1.47,.71,1.43,1.17-.42,4.6-12.51,6.14-16.17,8.95-4.35,3.34-12.8,10.9-15.21,15.83-.78,1.6-1.03,7.05-1.03,7.05,0,0-11.72,7.13-15.26,10.02-2.07,1.69-6.6,5.1-7.55,7.6-1.35,3.56,3.98,13.07,.83,15.2-2.4,1.62-10.49-4.88-10.49-4.88,0,0,1.65-7.31,.08-8.89-5.13-5.18-22.08-1.68-29.18,.01-4.12,.98-15.1,7.65-15.1,7.65,0,0-5.29,8.9-6.57,12.09-.92,2.31-2.8,7.12-2.59,9.59,.21,2.55,2.19,7.79,4.25,9.3,2.42,1.77,8.98,2.14,11.9,1.45,5.53-1.32,13.59-14.66,18.91-12.65,1.52,.57,1.84,4.66,1.66,6.27-.35,3.06-7.14,8.13-5.77,10.9,1.61,3.28,11.96-.26,14.41,2.46,3.73,4.14,1.43,22.24,1.43,22.24,0,0,15.03,5.04,19.74,3.35,4.51-1.62,8-12.95,12.53-14.49,3.67-1.25,11.96,.99,15.22,3.09,1.92,1.24,3.28,6.45,5.35,7.43,3.3,1.57,11.96,1.68,14.59-.86,.78-.75-.53-3.79,.41-4.32,1.94-1.09,6.35,2.42,8.01,3.91,3.14,2.8,5.38,12.13,9.05,14.17,3.41,1.9,12.24-1.77,15.61,.22,2.5,1.47,4.93,7.3,5.76,10.08,.89,2.95-1.02,9.84,.82,12.32,1.77,2.39,8.33,3.17,11.11,4.23,1.54,.59,4.54,2.04,6.16,2.34,5.35,1.01,17.04-2.48,21.78,.21,2.67,1.51,3.97,8.57,6.38,10.47,1.99,1.57,8.39,.9,9.65,3.09,1.11,1.91-.92,6.64-1.86,8.64-1.82,3.87-8.97,9.49-10.58,13.45-2.81,6.93,.51,23.2-3.09,29.76-1.46,2.67-6.66,6.6-9.55,7.56-3.37,1.12-11.09-2.16-14.19-.42-2.06,1.15-4.1,5.91-4.71,8.19,0,.02,0,.06,0,.07,.44,3.92,4.36,11.53,3.5,15.38-.31,1.39-2.63,3.35-3.5,4.47-2.98,3.81-9.27,11.21-11.93,15.26-1.41,2.15-3.06,7.27-4.93,9.05-2.96,2.81-14.7,7.07-14.7,7.07,0,0-7.99-.31-9.67,1.47-.71,.75-.98,3.25-.4,4.1,.99,1.46,5.86,.45,6.78,1.95,.59,.96-.29,3.43-.82,4.42-1,1.86-5.94,3.75-6.08,5.85-.1,1.48,2.37,3.98,3.7,4.64,1.64,.82,6.08-1.15,7.31,.2,.95,1.05-.12,4.26-.41,5.65-.3,1.44-1.6,4.12-1.94,5.55-.27,1.11-1.03,3.45-.63,4.52,1.27,3.3,9.81,5.72,10.81,9.11,.35,1.19-.44,4-1.44,4.73-2.98,2.16-11.28,1.05-14.71-.28-4.53-1.75-11.57-9.02-14.65-12.79-3.65-4.47-10.17-14.42-11.42-20.05-1.05-4.74,1.6-19.36,1.6-19.36,0,0-7.8-8.02-8.63-11.52-1.14-4.82,6.13-15.32,3.5-19.52-.71-1.13-4.33-.38-5.14-1.44-6.39-8.44,0-42.34,0-42.34,0,0-14.39-10.91-15.2-10.91s-6.28-.4-7.6-1.84c-1.38-1.5-.61-6.16-1.45-8.01-3.1-6.82-18.69-23.43-18.69-23.43,0,0,1.57-6.29,1.85-8.43,.45-3.42-1.05-10.75,.61-13.77,1.9-3.46,11.32-5.44,12.94-9.04,1.59-3.54,.96-12.74-1.85-15.42-3.42-3.27-14.66,.69-18.9-1.42-5.02-2.51-14.8-16.87-14.8-16.87,0,0-7.83-2.26-10.48-2.87-1.68-.38-5.76,.15-6.77-1.24-.92-1.25,1.75-4.93,.81-6.16-1.32-1.74-6.99-2.66-8.63-1.23-.66,.57,.69,2.95,0,3.49-4.38,3.43-17.05-2.12-21.58-5.34-3.24-2.3-8.53-9.32-8.68-13.29-.07-1.84,3.63-4.61,3.54-6.44-.3-6.04-11.43-14.33-13.67-19.94-1.37-3.43,.46-12.19-2.35-14.59-1.05-.9-4.63-1.04-5.55,0-2.36,2.69,.62,10.82,1.85,14.18,1.5,4.08,8.59,10.33,9.45,14.59,.29,1.43,.16,4.91-1.03,5.77-1.65,1.18-6.34-.1-8.01-1.23-4.03-2.74-8.58-12.11-9.86-16.81-1.28-4.72,2.6-15.42,0-19.56-1.52-2.41-10.27-4.94-10.27-4.94v-14.08c-12.71,29.74-19.75,62.46-19.75,96.8,0,136.38,110.96,247.34,247.34,247.34,.19,0,.37,0,.56,0,77.1-.09,146-35.82,191.27-91.42h-8.16s1.29-12.54,0-16.44c-1.24-3.76-9.43-12.71-9.43-12.71,0,0,1.9-15.21,0-19.77-.98-2.35-6.15-4.87-7.21-7.18-.86-1.87-1.04-6.21-.62-8.23,1-4.83,9.15-17.48,9.15-17.48l-17.36-30.63s5.36-16.73,2.06-20.77c-2.48-3.04-12.08,.06-15.62-1.63-1.84-.88-3.87-4.98-5.75-5.76-2.42-1.01-8.05-.96-10.49,0-1.69,.66-3.64,4.27-5.33,4.93-4.31,1.69-14.7-2.63-18.5,0-.36,.25-.26,1.39-.62,1.64-2.11,1.46-10.28,0-10.28,0l-23.63-26.91s-2.83-16.69,.19-20.97c.6-.85,3.23-.64,3.9-1.43,1.31-1.56,2.75-6.46,1.45-8.02-.89-1.06-4.44,.84-5.54,0-1.73-1.33-3-6.37-2.27-8.42,2.82-7.94,23.51-12.22,27.35-19.73,1.59-3.11-1.77-10.97,0-13.98,1.94-3.3,9.63-6.66,13.38-7.43,1.33-.27,4.05,.47,5.41,.54,2.75,.14,8.35,.67,11.02,0,2.37-.6,6.26-3.94,8.61-4.63,6.68-1.96,22.65-6.89,27.75-2.16,2.61,2.41-2.18,11.39,0,14.18,3.47,4.46,16.77,3.17,21.9,5.55,1.2,.56,3.05,2.68,4.32,3.08,.95,.31,3.3,.71,4.01,0,1.36-1.36-1.3-6.29,0-7.72,2.13-2.35,9.58-2.08,12.63-1.23,3.61,1,8.48,7.77,12.04,8.95,4.68,1.55,15.13,1.79,19.72,0,.44-.17,1.38-1.27,1.38-1.27-1.95-6.66-4.19-13.19-6.68-19.6Zm-109.58-63.99c.3-1,1.41-2.9,2.27-3.49,1.71-1.16,6.39-2.79,8.12-1.65,2.1,1.39,1.11,7.53,2.05,9.87,.76,1.91,3.11,5.33,4.33,6.98,.65,.88,1.97,2.67,2.87,3.3,1.15,.81,4.89,.68,5.24,2.04,.47,1.86-3.23,4.98-4.93,5.87-2.12,1.12-7.16,.81-9.56,.92-1.8,.09-5.98,1.33-7.19,0-1.44-1.58-.62-6.93,.81-8.53,1.02-1.14,5.09,0,5.98-1.24,.59-.82,.04-3.15-.51-4.01-.88-1.39-4.19-2.6-5.57-3.5-.99-.65-3.35-1.62-3.91-2.67-.46-.87-.28-2.98,0-3.92Zm-20.57,9.02c.64-2.24,3.05-6.56,4.95-7.91,1.39-.99,4.96-1.7,6.66-1.54,1.29,.12,4.08,.95,4.75,2.06,.69,1.15,.23,4.18-.43,5.34-1.54,2.71-7.2,6.25-10.16,7.19-1.37,.44-4.74,1.02-5.76,0-.91-.91-.35-3.9,0-5.14Zm-134.38,30.42c-.94,.88-4.23,1.34-5.14,.43-.64-.63-.06-2.74,.27-3.58,.34-.86,1.39-2.77,2.31-2.87,.97-.11,2.72,1.52,3.08,2.43,.34,.84,.14,2.97-.53,3.59Zm18.07-6.32c-.73,.5-2.86-.28-3.52,.3-.65,.58-.22,2.69-.71,3.4-.46,.65-1.95,1.43-2.71,1.68-1.03,.34-3.48,1.04-4.34,.36-.8-.64,.09-1.5-.25-1.8-.32-.28-1.38,.3-1.68,0-.65-.65-.65-3.01,0-3.66,1.25-1.25,5.62,1,7.08,0,.84-.57,.64-3.19,1.47-3.78,.58-.4,2.11-.12,2.81-.06,.82,.07,2.86-.07,3.22,.67,.35,.71-.72,2.41-1.37,2.86Z"/>
      </g>
      <g class="cuadros">
      <g class="p3">
        <rect class="cls-10" x="479.28" y=".5" width="370.71" height="241.72" rx="14.12" ry="14.12"/>
        <g>
          <rect class="cls-14" x="708.42" y="217.91" width="114.04" height="23.48"/>
          <polygon class="cls-4" points="822.46 241.39 792.7 241.39 792.7 218.02 822.46 217.91 822.46 241.39"/>
        </g>
        <g>
          <path class="cls-2" d="M506.62,177.15v34.85h-5.82v3.78h5.82v23.32h108.75v-21.22h-8.06v-4.62h8.06v-6.93h3.58v-3.15h-4.25v-26.02h-108.08Z"/>
          <polygon class="cls-4" points="586.49 177.25 586.49 238.71 615.37 238.71 615.37 217.49 607.31 217.49 607.31 213.26 615.37 213.4 615.37 206.47 619.02 206.47 618.95 202.89 614.7 202.78 614.7 177.15 586.49 177.25"/>
          <path class="cls-4" d="M588.55,215.28c0,.21-19.68,.39-43.95,.39s-43.95-.17-43.95-.39,19.67-.39,43.95-.39,43.95,.17,43.95,.39Z"/>
          <path class="cls-4" d="M588.55,211.74c0,.21-19.68,.39-43.95,.39s-43.95-.17-43.95-.39,19.67-.39,43.95-.39,43.95,.17,43.95,.39Z"/>
          <path class="cls-4" d="M594.19,202.21c0,.21-19.68,.39-43.95,.39s-43.95-.17-43.95-.39,19.67-.39,43.95-.39,43.95,.17,43.95,.39Z"/>
          <path class="cls-4" d="M594.73,228.17c0,.21-19.68,.39-43.95,.39s-43.95-.17-43.95-.39,19.67-.39,43.95-.39,43.95,.17,43.95,.39Z"/>
        </g>
        <g>
          <path class="cls-8" d="M646.37,149.81c-2.7,.64-44.62,9.03-60.74,15.48-16.12,6.45-22.57,30.96-25.8,76.1h206.37s-1.05-79.04-25.8-84.48c-32.24-7.09-94.04-7.09-94.04-7.09Z"/>
          <g>
            <g>
              <path class="cls-10" d="M701.2,78.87l-11.84,73.05c-2.21,13.64-46.52,14.31-47.86,7.59-1.13-5.68-.25-12.47,.84-19.9,0,0-.06,.63,0,0,0,0-20.11-5.23-18.31-25.68,.87-9.88,4.32-30.09,7.65-48.34,3.58-19.6,21.63-33.14,41.45-31.15l1.97,.2c21.12,3.38,30.06,23.21,26.1,44.23Z"/>
              <path class="cls-5" d="M642.34,139.6s12.8,2.05,27.38-5.19c0,0-8.02,15.19-28.21,11.3l.83-6.12Z"/>
            </g>
            <g>
              <g>
                <path class="cls-5" d="M638.62,86.05c-.21,1.53,.92,2.98,2.52,3.23,1.6,.25,3.06-.79,3.27-2.33,.21-1.53-.92-2.98-2.51-3.23-1.6-.25-3.06,.79-3.27,2.33Z"/>
                <path class="cls-5" d="M668.02,87.93c-.21,1.53,.92,2.98,2.52,3.23,1.6,.25,3.06-.79,3.27-2.33,.21-1.53-.92-2.98-2.51-3.23-1.6-.25-3.06,.79-3.27,2.33Z"/>
                <path class="cls-10" d="M656.19,75.87c-.34-.16-3.99,6.48-8.15,14.83-1.01,2.06-1.97,4.03-2.89,5.91-.39,.88-1.02,1.86-.73,3.1,.16,.62,.7,1.11,1.2,1.3,.5,.21,.95,.26,1.34,.33,3.16,.49,5.14,.7,5.17,.53"/>
              </g>
              <path class="cls-5" d="M666.29,67.36c.22,.88,3.4,.79,7.04,1.61,3.65,.74,6.52,2.12,7.08,1.4,.25-.34-.18-1.2-1.3-2.15-1.11-.94-2.93-1.92-5.11-2.39-2.19-.46-4.25-.32-5.64,.09-1.41,.41-2.15,1.01-2.06,1.43Z"/>
              <path class="cls-5" d="M637.13,67.09c.48,.77,2.72,.25,5.32,.47,2.61,.14,4.75,.96,5.33,.27,.26-.34-.02-1.09-.91-1.86-.88-.77-2.41-1.48-4.2-1.6-1.79-.12-3.41,.37-4.38,1.01-.99,.64-1.37,1.34-1.16,1.72Z"/>
            </g>
            <path class="cls-7" d="M639.35,109.83s8.23,7.77,20.39,.68"/>
          </g>
          <path class="cls-8" d="M713.42,54.74c-2.84-7.27-12.2-14.2-18.44-11.86-.23-.26-.46-.52-.69-.77-.77-6.79-5.17-11.1-11.24-14.69-6.37-3.78-14.63-4.15-21.32-.97-4.47,2.13-8.39,5.77-13.3,6.4-8.09,1.04-15.75-6.45-23.68-4.58-4.7,1.11-8.28,5.81-8.1,10.63,.18,4.82,4.1,9.25,8.87,10-5.3,.77-8.3,7.47-6.34,12.45,1.96,4.98,6.49,7.82,11.84,7.93,0,0,.67-3.69,2.07-6.96,7.41,1.23,15.3-.41,21.5-4.68,5.39-3.71,9.83-9.38,16.25-10.67,4.32-.87,8.89,.5,12.51,3.01,3.63,2.51,6.41,6.06,8.73,9.81-4.95,9.91-3.53,21.66-1.94,32.63,0,.42,.06,.75,.16,1.01,.18,.98,.47,1.95,1.18,2.62,1.51,1.42,4.06,.7,5.65-.64,.21,.45,.36,1.03,.43,1.78,.08,.85,.27,1.82,1.01,2.23,1.08,.59,2.31-.42,3.1-1.36,8.95-10.61,6.68-7.44,10.89-20.66,2.44-7.68,3.79-15.16,.86-22.66Z"/>
          <g>
            <path class="cls-10" d="M696.36,95.97c.36-.12,16.47-10.41,14.26,9.03-1.59,13.95-15.44,9.19-15.41,8.79"/>
            <path class="cls-7" d="M702.48,100.27s-.27-.27-.08-.83c.09-.27,.3-.58,.66-.8,.37-.23,.88-.3,1.39-.18,1.06,.22,1.9,1.33,2.25,2.49,.41,1.17,.55,2.57,.33,3.99-.46,2.79-2.25,5.23-4.34,5.54-1.01,.13-1.79-.28-2.17-.66-.39-.4-.42-.72-.37-.74"/>
          </g>
          <path class="cls-7" d="M620.08,31.11s-.12,.3-.28,.92c-.1,.62-.24,1.55-.09,2.74,.23,2.35,1.6,5.87,5.05,8.55,3.42,2.72,8.84,3.81,14.42,2.96,5.65-.77,11.3-3.49,17.21-5.92,5.88-2.43,11.96-4.07,17.4-3.08,5.43,.92,9.64,4.05,12.41,7.1,2.81,3.09,4.39,6.16,5.3,8.3,.89,2.17,1.2,3.44,1.29,3.42"/>
          <path class="cls-7" d="M695.53,56.56c.04,.14,1.33-.96,3.59-.38,2.19,.56,4.65,2.91,6.86,5.67,2.2,2.81,3.57,5.79,4.33,8.01,.78,2.22,1.01,3.68,1.16,3.66"/>
          <path class="cls-7" d="M691.43,66.01c-.06,.14,1.3,.74,3.3,2.01,2,1.26,4.6,3.3,6.92,6.06,2.31,2.77,3.85,5.68,4.74,7.88,.89,2.19,1.24,3.64,1.39,3.61"/>
          <g>
            <path class="cls-5" d="M705.49,219.66c-.71,.15-8.79-2.38-13.09-1-4.3,1.38,1.34,3.82,5.1,5.45,0,0-.72,1.13-1.97,1.13-1.26,0-18.02-6.2-9.94-9.21,5.93-2.21,14.75-1.17,19.02-.47,1.68,.28,2.8,1.43,2.46,2.61-.2,.67-.64,1.3-1.57,1.5Z"/>
            <path class="cls-1" d="M687.74,224.84c.73-.1,8.4,2.99,12.88,1.92,4.48-1.07,.2-2.16-3.31-4.05,0,0,.88-1.07,2.13-.98s16.05,5.72,7.59,8.14c-6.22,1.78-14.85,.13-18.99-.88-1.63-.39-2.58-1.62-2.07-2.77,.29-.66,.82-1.25,1.78-1.38Z"/>
          </g>
          <path class="cls-7" d="M673.83,167.27s13.82-.77,23.89,13.53c0,0,7.35-16.09,5.78-25.53"/>
          <path class="cls-7" d="M650.27,166.95s-15.49,.06-21.11,9.51c0,0,0-7.66,5.36-21.19"/>
          <path class="cls-7" d="M657.25,168.03s-7.32,17.87-6.98,71.49"/>
          <path class="cls-7" d="M583.2,210.42s-2.81,19.57-2.04,30.98"/>
          <line class="cls-7" x1="719.55" y1="208.13" x2="718.52" y2="241.39"/>
        </g>
      </g>
      <g class="p2">
        <rect class="cls-10" x="591.05" y="438.35" width="429.76" height="280.22" rx="16.37" ry="16.37"/>
        <g class="cls-12">
          <g>
            <path class="cls-14" d="M908.42,691.02c-8.59-4.43-18.72-5.01-28.26-3.43-5.13,.85-10.47,2.38-13.96,6.23-3.49,3.85-4.15,10.63-.14,13.94,2.38,1.97,5.71,2.27,8.8,2.23,7.47-.09,15.76-1.4,21.73,3.09,3.4,2.56,5.67,6.83,9.74,8.09,3.98,1.23,8.48-1.12,10.59-4.71,2.11-3.59,2.18-8.09,1.2-12.14,0,0-1.04-8.83-9.69-13.3Z"/>
            <path class="cls-14" d="M928.11,653c-5.26,7.51-15.47,5.02-20.21,.44-4.74-4.58-6.74-11.22-8.56-17.56-4.16-14.47-8.36-29.65-5.27-44.38,.93-4.41,2.57-8.8,5.67-12.07,3.1-3.27,7.86-5.21,12.21-4.06,5.15,1.36,8.35,6.41,10.66,11.2,6.8,14.11,10.4,29.74,10.45,45.4,.03,7.31-.84,14.98-4.96,21.02"/>
            <path class="cls-14" d="M942.55,663.77c-5.71-6.77-6.79-16.65-4.25-25.13,2.54-8.48,8.28-15.7,14.89-21.6,7.75-6.91,16.86-12.28,26.66-15.73,3.85-1.36,7.92-2.42,11.99-2.04,4.07,.39,8.16,2.47,10.06,6.09,2.81,5.35,.12,11.84-2.79,17.14-5.13,9.33-10.99,18.25-17.51,26.66-5.25,6.77-11.26,13.44-19.26,16.5-8,3.06-16.31,2.7-20.55-2.85"/>
            <path class="cls-4" d="M928.47,766.24c-.1,0-.26-1.21-.48-3.41-.24-2.48-.54-5.6-.91-9.31-.43-3.92-1.01-8.58-2.09-13.65-1.08-5.06-2.78-10.55-4.96-16.11-2.26-5.53-5.01-10.56-8.23-14.58-3.19-4.04-6.91-6.96-10.4-8.65-3.48-1.72-6.6-2.42-8.76-2.73-2.18-.22-3.4-.39-3.4-.49,0-.1,1.22-.11,3.46-.05,2.21,.15,5.47,.71,9.14,2.38,3.68,1.63,7.62,4.6,10.97,8.72,3.38,4.11,6.23,9.24,8.53,14.87,2.22,5.66,3.89,11.21,4.93,16.38,1.03,5.16,1.51,9.88,1.82,13.83,.3,3.95,.41,7.15,.46,9.37,.05,2.21,.02,3.44-.07,3.44Z"/>
            <path class="cls-4" d="M927.83,759.07s-.08-.55-.09-1.58c0-1.19,0-2.69,.01-4.53,.01-3.93,0-9.61-.2-16.63-.35-14.04-1.56-29.15-3.89-50.45-2.21-20.03-5.18-43.34-8.31-58.49-.67-3.45-1.35-6.55-1.98-9.26-.61-2.72-1.13-5.07-1.63-6.97-.43-1.79-.78-3.24-1.06-4.4-.23-1.01-.32-1.55-.28-1.56,.05-.01,.23,.5,.55,1.48,.35,1.14,.78,2.57,1.31,4.34,.58,1.88,1.18,4.21,1.86,6.92,.71,2.7,1.46,5.8,2.19,9.24,3.1,13.73,6.38,32.92,8.74,54.27,2.34,21.34,3.39,40.78,3.49,54.85,.08,7.04-.07,12.73-.25,16.66-.11,1.84-.2,3.34-.28,4.52-.08,1.03-.14,1.57-.19,1.57Z"/>
            <path class="cls-4" d="M927.73,721.59c-.1,0-.08-1.68,.03-4.73,.17-3.04,.59-7.43,1.45-12.81,.91-5.37,2.17-11.74,4.17-18.66,.86-3.17,2.89-10.75,7.8-22.08,6.47-15.36,15.27-27.91,22.92-35.69,1.79-2.06,3.79-3.55,5.39-5.01,.83-.7,1.56-1.4,2.3-1.95,.75-.52,1.45-1,2.09-1.44,2.52-1.72,3.93-2.63,3.98-2.55,.23,.31-5.64,3.76-13.05,11.64-7.38,7.86-15.93,20.33-22.35,35.56-3.58,8.26-6.08,15.63-7.85,21.88-2.05,6.86-3.41,13.16-4.43,18.48-.98,5.32-1.54,9.67-1.88,12.68-.28,3.02-.48,4.69-.58,4.68Z"/>
          </g>
          <g>
            <path class="cls-10" d="M649.89,717.7l-12.88,54.28s66.76,6.29,66.76,4.54v-53.87l-53.88-4.95Z"/>
            <path class="cls-8" d="M720.66,599.5c-23.5,1.81-43.95,33.35-49.15,44.1-8.97,18.55-34.5,74.11-34.5,74.11l70.64,28.31-2.23-49.64"/>
            <path class="cls-8" d="M694.45,688.6s-7.77,96.47-6.33,128.64h191.89s27.37-146.09,14.41-188.84c0,0-22.62-12.95-58.4-20.98-35.78-8.04-105.18-7.58-116.51-7.81"/>
            <path class="cls-15" d="M816.76,814.58l46.99-104.46,5.06,104.46s-46.27-.36-52.05,0Z"/>
            <path class="cls-8" d="M887.12,624.73s18.44,6.94,31.34,21.26c23.17,25.73,10.46,130.52,10.46,130.52,0,0-52.41,.72-72.29-10.84,0,0,5.91-51.22,8.08-60.26"/>
            <path class="cls-10" d="M761.42,481.3s-7.23,5.78-11.21,26.39c-3.98,20.6-11.21,78.08,11.21,85.31,4.94,1.59,14.81,2.44,14.81,2.44-1.71,11.37-4.84,13.24-4.84,13.24,0,0-4.06,9.86,21.97,16.12,26.03,6.27,45.55-16.63,45.55-16.63-5.78-28.68,4.21-50.12,4.21-50.12,0,0,5.12-24.66,5.12-41.94,0-17.28-4.48-30.11-35.86-38.06-31.38-7.95-50.97,3.25-50.97,3.25Z"/>
            <path class="cls-8" d="M841.06,539.67s-10.07,7-11.19-2.87c-1.13-9.87,4.11-37.22,4.11-37.22,0,0-5.92,.72-10-3.33-4.09-4.04-5.24-9.49-5.24-9.49,0,0-37.51,14.64-61.07,1.02,0,0-6.42,10.14-8.51,25.96,0,0-23.17-13.7-3.28-26.98,0,0-8.02-7.49-2.24-15.66,5.79-8.17,14.03-3.74,14.03-3.74,0,0-14.64-22.6,14.94-29,29.59-6.4,39.79,14.02,39.79,14.02,0,0,9.15-6.14,29.28,2.36,20.13,8.5,14.95,28.96,14.95,28.96,0,0,7.85,2.38,9.22,9.87s-6.81,11.57-6.81,11.57c0,0,7.8,7.15,6.96,17.7-.83,10.55-9.37,15.94-9.37,15.94,0,0,2.7,10.27,0,17.42s-15.43,13.28-17.4,6.13c-1.98-7.15,1.83-22.66,1.83-22.66Z"/>
            <path class="cls-7" d="M776.23,595.43c18.46,.67,36.16-6.05,36.16-6.05"/>
            <ellipse class="cls-6" cx="795.53" cy="518.2" rx="2.77" ry="3.09"/>
            <ellipse class="cls-6" cx="764.18" cy="515.61" rx="2.77" ry="3.09"/>
            <path class="cls-7" d="M789.06,500.64s8.25-3.61,16.66,2.49"/>
            <path class="cls-7" d="M772.6,497.98s-7.85-4.4-16.83,.85"/>
            <path class="cls-7" d="M778.67,508.87s-1.24,17.01-14.48,24.18c-18.12,9.81,7.24,17.03,7.24,17.03"/>
            <path class="cls-10" d="M836.02,543.09s12.05-11.79,15.72,3.63c2.41,10.12-14.52,11.79-14.52,11.79"/>
            <path class="cls-7" d="M800.14,558.52c-1.45,.48-16.67,5.56-23.9,4.84-7.23-.72-9.59-4.84-9.59-4.84,0,0-.7,11.64,9.59,12.33,10.29,.68,23.9-12.33,23.9-12.33Z"/>
            <path class="cls-7" d="M851.87,612.87s5.48,26.51-24.88,34.7c0,0-12.05-14.94-19.52-17.35"/>
            <path class="cls-7" d="M785.78,627.81s-14.94,6.27-21.69,13.5c0,0-15.18-17.63-9.64-33.15"/>
            <g>
              <path class="cls-5" d="M845.66,690.55c-.87,.19-10.87-2.95-16.19-1.24s1.65,4.72,6.31,6.74c0,0-.89,1.4-2.44,1.4s-22.28-7.67-12.3-11.4c7.33-2.74,18.24-1.45,23.53-.58,2.08,.34,3.47,1.77,3.04,3.23-.24,.83-.79,1.6-1.94,1.85Z"/>
              <path class="cls-1" d="M823.71,696.95c.9-.13,10.39,3.7,15.93,2.38,5.54-1.32,.25-2.68-4.1-5.01,0,0,1.08-1.33,2.63-1.22,1.54,.11,19.85,7.07,9.38,10.07-7.69,2.2-18.36,.16-23.49-1.09-2.01-.49-3.2-2-2.56-3.43,.36-.81,1.02-1.54,2.2-1.71Z"/>
            </g>
            <path class="cls-5" d="M794.69,594.04s-9.06,7.69-19.23,7.26l.78-5.88s11.61,.02,18.45-1.38Z"/>
            <path class="cls-7" d="M802.95,749.69s-29-13.92-49.71-31.99"/>
            <path class="cls-15" d="M867.72,708.42s-6.32,41.45-4.61,42.9c1.71,1.45,21.96,5.34,21.96,5.34,0,0-15.18-22.45-17.35-48.24Z"/>
            <path class="cls-15" d="M820.91,476.88c-5.11,1.36-25.19,14.3-40.51,9.87-15.32-4.43-19.05-12.94-10.89-15.32,0,0-6.46-10.21,0-18.38,6.46-8.17,30.63,6.81,30.63,6.81,0,0,27.58-6.68,40.86,4.83,13.28,11.51,4.27,17.3,4.27,17.3,0,0,10.03,2.38,9.35,9.19-.68,6.81-4.77,10.13-4.77,10.13,0,0,6.26,6.03,7.21,14.29,.96,8.26-11.8,10.64-11.8,10.64,0,0-9.51-10.23-6.04-17.37l4.78-7.52s-4.5-2.68-4.78-6.77c0,0-5.51,1.7-9.36-4.09-3.85-5.79-8.96-13.62-8.96-13.62Z"/>
          </g>
          <path class="cls-7" d="M774.44,718.04s-2.04-36.56,18.38-90.69"/>
        </g>
      </g>
      <g class="p1">
        <rect class="cls-10" x=".5" y="273.98" width="326.11" height="212.64" rx="12.42" ry="12.42"/>
        <g class="cls-3">
          <g>
            <rect class="cls-4" x="-4.33" y="418.99" width="16.35" height="81.37" transform="translate(-2.46 .03) rotate(-.31)"/>
            <g>
              <rect class="cls-4" x="-201.34" y="500.35" width="298.09" height="13.12"/>
              <rect class="cls-4" x="28.1" y="506.66" width="12.1" height="44.75"/>
            </g>
            <rect class="cls-14" x="11.71" y="388.65" width="16.35" height="111.92" transform="translate(-2.38 .11) rotate(-.31)"/>
            <g>
              <rect class="cls-2" x="28.15" y="409.51" width="25.41" height="90.7" transform="translate(-2.44 .23) rotate(-.31)"/>
              <path class="cls-4" d="M53.14,426.91c0,.24-5.69,.44-12.7,.44s-12.71-.2-12.71-.44,5.69-.44,12.71-.44,12.7,.2,12.7,.44Z"/>
              <path class="cls-4" d="M53.14,423.1c0,.24-5.69,.44-12.7,.44s-12.71-.2-12.71-.44,5.69-.44,12.71-.44,12.7,.2,12.7,.44Z"/>
              <path class="cls-4" d="M53.14,486.49c0,.24-5.69,.44-12.7,.44s-12.71-.2-12.71-.44,5.69-.44,12.71-.44,12.7,.2,12.7,.44Z"/>
              <path class="cls-4" d="M53.14,482.68c0,.24-5.69,.44-12.7,.44s-12.71-.2-12.71-.44,5.69-.44,12.71-.44,12.7,.2,12.7,.44Z"/>
              <path class="cls-4" d="M40.85,474.36c-.24,0-.44-9.15-.44-20.44s.2-20.44,.44-20.44,.44,9.15,.44,20.44-.2,20.44-.44,20.44Z"/>
            </g>
            <rect class="cls-14" x="53.42" y="431.71" width="27.66" height="68.46"/>
            <path class="cls-4" d="M24.04,407.71c0,2.6-2.1,4.7-4.7,4.7s-4.7-2.1-4.7-4.7,2.1-4.7,4.7-4.7,4.7,2.1,4.7,4.7Z"/>
            <rect class="cls-4" x="17.89" y="420.64" width="2.91" height="66.58"/>
          </g>
          <g>
            <rect class="cls-4" x="393.07" y="435.6" width="16.35" height="81.37" transform="translate(-2.55 2.16) rotate(-.31)"/>
            <g>
              <rect class="cls-14" x="251.3" y="435.89" width="42.35" height="44.92" transform="translate(-2.45 1.46) rotate(-.31)"/>
              <rect class="cls-2" x="293.44" y="435.66" width="42.35" height="44.92" transform="translate(-2.45 1.69) rotate(-.31)"/>
              <path class="cls-4" d="M251.24,448.41c28.14,.23,56.36,.07,84.5-.39,.58,0,.58-.9,0-.9-28.14-.16-56.36-.02-84.49,.52-.5,0-.49,.77,0,.77h0Z"/>
            </g>
            <g>
              <rect class="cls-14" x="224.87" y="480.15" width="76.94" height="36.61" transform="translate(-2.67 1.42) rotate(-.31)"/>
              <rect class="cls-2" x="301.45" y="479.74" width="76.94" height="36.61" transform="translate(-2.66 1.83) rotate(-.31)"/>
              <path class="cls-4" d="M224.83,490.54c51.11,.58,102.41,.06,153.52-.76,.58,0,.58-.9,0-.9-51.12-.27-102.41-.24-153.52,.89-.5,.01-.49,.77,0,.77h0Z"/>
            </g>
            <g>
              <rect class="cls-4" x="196.05" y="516.97" width="298.09" height="13.12"/>
              <rect class="cls-4" x="244.86" y="523.27" width="12.1" height="44.75"/>
              <rect class="cls-4" x="425.5" y="523.27" width="12.1" height="44.75"/>
            </g>
            <rect class="cls-14" x="409.11" y="405.26" width="16.35" height="111.92" transform="translate(-2.47 2.24) rotate(-.31)"/>
            <g>
              <rect class="cls-2" x="425.54" y="426.12" width="25.41" height="90.7" transform="translate(-2.52 2.36) rotate(-.31)"/>
              <path class="cls-4" d="M450.54,443.52c0,.24-5.69,.44-12.7,.44s-12.71-.2-12.71-.44,5.69-.44,12.71-.44,12.7,.2,12.7,.44Z"/>
              <path class="cls-4" d="M450.54,439.71c0,.24-5.69,.44-12.7,.44s-12.71-.2-12.71-.44,5.69-.44,12.71-.44,12.7,.2,12.7,.44Z"/>
              <path class="cls-4" d="M450.54,503.1c0,.24-5.69,.44-12.7,.44s-12.71-.2-12.71-.44,5.69-.44,12.71-.44,12.7,.2,12.7,.44Z"/>
              <path class="cls-4" d="M450.54,499.29c0,.24-5.69,.44-12.7,.44s-12.71-.2-12.71-.44,5.69-.44,12.71-.44,12.7,.2,12.7,.44Z"/>
              <path class="cls-4" d="M438.24,490.98c-.24,0-.44-9.15-.44-20.44s.2-20.44,.44-20.44,.44,9.15,.44,20.44-.2,20.44-.44,20.44Z"/>
            </g>
            <rect class="cls-14" x="450.82" y="448.32" width="27.66" height="68.46"/>
            <path class="cls-4" d="M421.44,424.32c0,2.6-2.1,4.7-4.7,4.7s-4.7-2.1-4.7-4.7,2.1-4.7,4.7-4.7,4.7,2.1,4.7,4.7Z"/>
            <rect class="cls-4" x="415.29" y="437.25" width="2.91" height="66.58"/>
          </g>
          <g>
            <g>
              <path class="cls-8" d="M175.74,301.34c.22-3.83,3.41-7.05,7.07-8.21,3.66-1.15,7.67-.57,11.31,.64,7.95,2.64,14.63,8.04,21.12,13.34,10.07,8.22,19.84,19.5,23.69,31.92,2.9,9.35,3.73,15.46,.76,25.4-2.63,8.8-4.71,17.33-4.19,24.68,.83,11.63,2.24,14.37,5.23,25.78,1.87,7.14-4.49,25.81-4.49,25.81l-40.24-15.39c-14.36-6.75-45.28-19.35-45.28-19.35l25.03-104.63Z"/>
              <g>
                <g>
                  <path class="cls-10" d="M198.37,437.77c-.06-9.79-.16-16.6-.15-16.53,0,0,17.57-4.05,21.11-29.11,1.76-12.46,2.68-32.27,1.34-48.91-1.2-14.98-11.45-33.2-26.36-31.36l-46.44,12.59c-4.53,.56-6.05,4.42-5.88,8.98l-.34,2.14,3.4,71.53-1.46,30.43c.59,13.59,14.04,25.95,27.64,26.58h0c15.04,.69,27.25-11.28,27.16-26.34Z"/>
                  <path class="cls-6" d="M210.15,363.17c.09,1.69-1.27,3.16-3.04,3.29-1.76,.12-3.26-1.14-3.35-2.83-.09-1.69,1.27-3.16,3.03-3.29,1.77-.13,3.27,1.14,3.36,2.83Z"/>
                  <path class="cls-6" d="M177.87,362.79c.09,1.69-1.27,3.16-3.03,3.29-1.76,.12-3.26-1.14-3.35-2.83-.09-1.69,1.27-3.16,3.03-3.29,1.77-.13,3.27,1.14,3.36,2.83Z"/>
                  <path class="cls-10" d="M193.06,351.77c.38-.15,3.76,7.42,7.54,16.9,.91,2.34,1.78,4.57,2.61,6.7,.35,.99,.94,2.12,.52,3.45-.23,.66-.86,1.15-1.43,1.31-.56,.18-1.06,.2-1.49,.23-2.34,.15-4.09,.36-5.68,.11"/>
                  <path class="cls-5" d="M197.95,420.86s-14.16,1.16-28.35-7.04c0,0,7.37,14.75,28.43,12.42l-.08-5.37Z"/>
                </g>
                <path class="cls-5" d="M182.39,342.19c-.4,.91-3.81,.23-7.88,.44-4.08,.13-7.41,1.09-7.89,.21-.21-.42,.42-1.26,1.79-2.08,1.37-.82,3.51-1.53,5.95-1.64,2.44-.1,4.63,.44,6.06,1.14,1.44,.7,2.14,1.49,1.96,1.92Z"/>
                <path class="cls-5" d="M215.33,343.72c-.7,.8-3.53,.03-6.91,.05-3.38-.08-6.23,.63-6.91-.17-.3-.39,.14-1.19,1.38-1.95,1.22-.76,3.27-1.4,5.59-1.38,2.32,.02,4.35,.7,5.54,1.48,1.21,.79,1.61,1.58,1.3,1.97Z"/>
              </g>
              <path class="cls-8" d="M192.23,316.09l-36.46,21.91s-1.13,16.61-7.77,32.79c-6.73-5.75-10.89,5.33-12.9-3.19-.11-.44,1.85,17.88,8.9,18.45l1.16,19.92-34.78-8.55s1.87-24.15,7.8-38.81c3.69-9.11,5.64-16.75,9.29-25.88,2.76-6.91,7.65-17.24,11.34-22.16,7.9-10.56,37.15-11.03,37.15-11.03,12.9,3.04,4.21,1.59,15.07,9.19l3.71,9.96"/>
              <path class="cls-13" d="M195.1,388.9c-1.25-1.06-4.67-1.92-7.34-.4h0c-.08,.03-.16,.06-.22,.09-1.3,.62-2.3,1.96-2.28,3.4,.02,1.32,.88,2.53,2.02,3.19,1.14,.66,2.52,.81,3.83,.67,1.69-.18,3.4-.91,4.36-2.31,.96-1.4,.93-3.53-.37-4.63Z"/>
              <path class="cls-7" d="M198.49,390.96c.08,.11-.6,.81-2.02,1.43-1.4,.62-3.62,1.04-5.98,.49-2.35-.56-4.14-1.94-5.12-3.12-1-1.19-1.29-2.12-1.17-2.18"/>
              <path class="cls-8" d="M221.3,372.08l5.18-20.95c4.65-6.42,1.02-16.89-2.28-24.09-3.3-7.21-9.58-12.73-16.58-16.45-6.99-3.73-14.72-5.83-22.42-7.73,2.85,9.34,10.05,18.36,18.47,23.31,0,0,12.76,8.72,15.06,19,2.51,11.24,2.56,26.92,2.56,26.92Z"/>
              <path class="cls-10" d="M148.01,370.65c.03-5.27-5.61-9.09-10.4-6.71-2.63,1.3-4.74,4.1-4.81,9.69-.2,14.9,11.87,12.46,13.97,12.23"/>
              <path class="cls-10" d="M142.46,369.06c-.06-.3-.23-.65-.58-.94-.36-.3-.89-.45-1.46-.4-1.17,.06-2.24,1.1-2.8,2.27-.62,1.17-1,2.62-.97,4.14,.06,3,1.58,5.84,3.77,6.49"/>
              <path class="cls-10" d="M136.46,386.7c-.1,2.88,2.15,5.29,5.03,5.38s5.29-2.15,5.38-5.03c.1-2.88-2.15-5.29-5.03-5.38s-5.29,2.15-5.38,5.03Z"/>
            </g>
            <g>
              <path class="cls-8" d="M185.2,443.08s8.3-5.82,9.44-4.9c2.33,1.88,7.58,5.3,17.87,8.73,15.32,5.11,27.06,3.96,32.17,36.45v9l-155.6-2.04,.36-11.23c-4.6-42.37,35.71-39.05,43.37-46.6,.16-.16-.1,.21,0,0l6.96-5.71s-3.9-14.31,45.43,16.31Z"/>
              <polygon class="cls-10" points="193.06 468.36 190.64 436.19 144.54 410.3 142.6 421.5 171.48 446.4 193.06 468.36"/>
              <polygon class="cls-10" points="192.09 466.82 190.64 436.19 198.47 430.52 203.47 441.72 196.72 451.76 192.09 466.82"/>
            </g>
            <path class="cls-10" d="M181.47,454.31c14.85-13.23,22.71-17.87,22.71-17.87l2.82,11.88s-6.05,3.89-17.77,16.92c-1.99-4.03-5.41-6.29-7.76-10.93Z"/>
            <path class="cls-10" d="M218.12,515.59c-3.11-13.37-23.67-58.93-37.64-71.37-14.85-13.23-37.89-29.33-37.89-29.33l-2.82,11.88s20.49,11.72,32.2,24.74c11.71,13.02,32.59,45.36,40.77,64.09h5.37Z"/>
            <path class="cls-5" d="M229.29,471.61c-.58,.13-7.27-1.97-10.83-.83-3.56,1.14,1.1,3.16,4.22,4.51,0,0-.59,.93-1.63,.93s-14.9-5.13-8.22-7.62c4.9-1.83,12.2-.97,15.73-.39,1.39,.23,2.32,1.18,2.03,2.16-.16,.56-.53,1.07-1.3,1.24Z"/>
            <path class="cls-1" d="M214.62,475.9c.6-.08,6.95,2.48,10.65,1.59,3.71-.88,.17-1.79-2.74-3.35,0,0,.73-.89,1.76-.81,1.03,.07,13.27,4.73,6.27,6.73-5.14,1.47-12.28,.1-15.7-.73-1.35-.33-2.14-1.34-1.71-2.29,.24-.54,.68-1.03,1.47-1.14Z"/>
          </g>
        </g>
      </g>
      </g>
    </g>
  </g>
</svg>