<?xml version="1.0" encoding="UTF-8"?>
<svg id="Capa_2" data-name="Capa 2" xmlns="http://www.w3.org/2000/svg" viewBox="0 0 1096.85 768.51">
  <defs>
    <style>
      .cls-1, .cls-2 {
        fill: #ea5518;
      }

      .cls-3, .cls-4, .cls-5 {
        fill: #fff;
      }

      .cls-2, .cls-6, .cls-7, .cls-8, .cls-5 {
        stroke: #003188;
        stroke-miterlimit: 10;
      }

      .cls-9, .cls-8 {
        fill: #003188;
      }

      .cls-6 {
        fill: none;
      }

      .cls-7 {
        fill: #cae0ff;
      }

      .cls-4 {
        opacity: .2;
      }

      .cls-10 {
        fill: #acceef;
      }
    </style>
  </defs>
  <g id="Capa_2-2" data-name="Capa 2">
    <g>
      <path class="cls-3" d="M161.08,767.13s-139-80.1-82.59-204.88,305.91-48,304.81-152.26c-1.09-104.26-208.03-77.84-124.29-243.66,83.73-165.83,426.94-12.26,543.43,47.49s333.54,311.71,203.31,440.03-18.42,114.16-18.42,114.16l-826.25-.87Z"/>
      <path class="cls-7" d="M605.36,457.94c33.19,2.55,65.62,41.36,76.34,54.38s52.6,66.38,52.6,66.38l-73.28,63.57-34.14-47.49"/>
      <path class="cls-7" d="M642.38,583.82s10.98,136.27,8.94,181.72H380.25s-38.67-206.37-20.35-266.77c0,0,31.96-18.29,82.5-29.64s148.58-10.71,164.58-11.03"/>
      <path class="cls-10" d="M469.61,761.77l-66.38-147.57-7.15,147.57s65.36-.51,73.53,0Z"/>
      <polygon class="cls-7" points="611.7 708.84 552.98 725.14 549 710.7 607.72 694.4 611.7 708.84"/>
      <path class="cls-5" d="M677.53,686.39l-8.43,2.33h0c-.24-.86-1.13-1.37-1.99-1.13l-56.94,15.69-.92-3.32,56.95-15.69c.86-.24,1.37-1.13,1.13-1.99h0s8.43-2.32,8.43-2.32l1.77,6.43Z"/>
      <g>
        <path class="cls-5" d="M411.39,676.15l3.32,25.44s14.84,.48,95.51,8.65c0,0,22.97-20.43,44.16-19.4s45.19-.51,43.15,3.06-8.17,7.15-26.55,10.21-20.29,11.74-8.36,15.83c11.93,4.09,31.34-5.11,31.34-5.11l14.5-5.62s-2.24,10.72-7.35,15.83c0,0-8.44,21.96-17.75,24.51s-73.13,2.55-73.13,2.55c0,0-61.37-.3-101.71,1.99s-77.57,9.82-82.19-63.51"/>
        <path class="cls-6" d="M581.79,731.59s10.04-2.06,19.32-6.53"/>
        <line class="cls-6" x1="393.52" y1="699.48" x2="414.71" y2="701.59"/>
      </g>
      <path class="cls-7" d="M370.21,493.59s-26.05,9.8-44.27,30.03c-32.74,36.34-14.78,184.38-14.78,184.38,0,0,74.04,1.02,102.13-15.32,0,0-8.35-72.36-11.41-85.12"/>
      <path class="cls-5" d="M547.77,290.96s10.21,8.17,15.83,37.28,15.83,110.3-15.83,120.51c-6.98,2.25-20.93,3.44-20.93,3.44,2.41,16.06,6.83,18.7,6.83,18.7,0,0,5.73,13.93-31.03,22.78s-64.34-23.49-64.34-23.49c8.17-40.51-5.95-70.8-5.95-70.8,0,0-7.24-34.84-7.24-59.24s6.33-42.53,50.65-53.77,72,4.6,72,4.6Z"/>
      <path class="cls-6" d="M526.85,452.2c-26.08,.94-51.08-8.55-51.08-8.55"/>
      <path class="cls-7" d="M434.53,298.6s-22.47,4.09-26.55,30.98,8.51,46.64,13.96,52.77c0,0,10.89-13.62,21.11-4.09,0,0,11.23-12.26,14.3-34.72,2.85-20.92-5.11-35.4-5.11-35.4,0,0,31.66,3.74,78.3-9.53,46.64-13.28,45.28-33.02,45.28-33.02,0,0-31.66-17.36-83.74-8.17-38.58,6.81-51.58,26.14-55.72,35.7,0,0-4.74-4.06-5.23-8.82l3.41,14.32Z"/>
      <ellipse class="cls-8" cx="499.6" cy="343.1" rx="3.91" ry="4.37"/>
      <ellipse class="cls-8" cx="543.87" cy="339.43" rx="3.91" ry="4.37"/>
      <path class="cls-6" d="M508.73,318.29s-11.65-5.1-23.54,3.52"/>
      <path class="cls-6" d="M531.99,314.53s11.1-6.22,23.77,1.2"/>
      <path class="cls-6" d="M523.41,329.92s3.84,31.66,20.46,44.94-10.23,13.28-10.23,13.28"/>
      <path class="cls-5" d="M442.39,378.26s-17.02-16.65-22.21,5.13c-3.4,14.3,20.5,16.66,20.5,16.66"/>
      <path class="cls-6" d="M493.09,400.05c2.04,.68,18.72,10.89,28.94,9.87s18.38-9.87,18.38-9.87"/>
      <path class="cls-6" d="M420,476.84s-7.74,37.45,35.15,49.02c0,0,17.02-21.11,27.57-24.51"/>
      <path class="cls-6" d="M513.36,497.94s21.11,8.85,30.64,19.06c0,0,21.44-24.91,13.62-46.83"/>
      <g>
        <polygon class="cls-5" points="356.45 756.41 127.37 756.41 82.18 583.82 311.26 583.82 356.45 756.41"/>
        <polygon class="cls-5" points="356.45 756.41 127.37 756.41 127.75 767.13 356.84 767.13 356.45 756.41"/>
        <polygon class="cls-5" points="356.45 756.41 481.08 756.41 481.46 767.13 356.84 767.13 356.45 756.41"/>
        <circle class="cls-10" cx="202.05" cy="670.11" r="22.82"/>
      </g>
      <path class="cls-9" d="M614.42,558.66c-1.23,.27-15.36-4.17-22.88-1.75s2.33,6.67,8.91,9.52c0,0-1.25,1.97-3.45,1.97s-31.48-10.84-17.37-16.1c10.36-3.86,25.77-2.05,33.23-.82,2.93,.49,4.9,2.49,4.3,4.56-.34,1.18-1.12,2.27-2.75,2.62Z"/>
      <path class="cls-1" d="M583.41,567.7c1.27-.18,14.68,5.23,22.51,3.36,7.83-1.87,.35-3.78-5.79-7.08,0,0,1.53-1.87,3.71-1.72,2.18,.16,28.04,9.99,13.25,14.22-10.86,3.11-25.94,.22-33.18-1.54-2.85-.69-4.51-2.83-3.62-4.84,.51-1.15,1.44-2.18,3.11-2.41Z"/>
      <g>
        <rect class="cls-5" x="226.49" y=".5" width="266.55" height="174.31" rx="7.5" ry="7.5"/>
        <polyline class="cls-6" points="245.38 110.46 266.32 89.88 284.36 99.56 311.93 42.71 338.83 107.2 362.66 85.95 416.44 147.05 465.46 91.6 482.83 116.73"/>
        <path class="cls-1" d="M421.71,36.21c11.14,0,20.4,8.07,22.25,18.69h11.06c-1.93-16.68-16.11-29.63-33.31-29.63s-31.38,12.95-33.31,29.63h11.05c1.85-10.62,11.12-18.69,22.26-18.69Z"/>
        <path class="cls-10" d="M421.71,81.4c-11.14,0-20.4-8.06-22.25-18.67h-11.06c1.94,16.67,16.12,29.62,33.31,29.62s31.37-12.95,33.31-29.62h-11.07c-1.85,10.61-11.1,18.67-22.24,18.67Z"/>
      </g>
      <g>
        <rect class="cls-5" x="823.91" y="236.33" width="222.13" height="19.15"/>
        <rect class="cls-5" x="823.91" y="255.48" width="19.15" height="512.53"/>
        <rect class="cls-5" x="1026.89" y="255.48" width="19.15" height="512.53"/>
        <g>
          <rect class="cls-5" x="843.06" y="298.19" width="183.83" height="61.71"/>
          <rect class="cls-5" x="843.06" y="292.8" width="183.83" height="10.78"/>
          <rect class="cls-5" x="843.06" y="356.59" width="183.83" height="10.78"/>
          <rect class="cls-5" x="853.53" y="316.7" width="15.57" height="9.28"/>
          <rect class="cls-2" x="853.53" y="334.67" width="15.57" height="9.28"/>
          <rect class="cls-5" x="878.55" y="316.7" width="15.57" height="9.28"/>
          <rect class="cls-5" x="878.55" y="334.67" width="15.57" height="9.28"/>
          <rect class="cls-2" x="903.57" y="316.7" width="15.57" height="9.28"/>
          <rect class="cls-5" x="903.57" y="334.67" width="15.57" height="9.28"/>
          <rect class="cls-2" x="928.6" y="316.7" width="15.57" height="9.28"/>
          <rect class="cls-5" x="928.6" y="334.67" width="15.57" height="9.28"/>
          <rect class="cls-5" x="953.62" y="316.7" width="15.57" height="9.28"/>
          <rect class="cls-5" x="953.62" y="334.67" width="15.57" height="9.28"/>
          <rect class="cls-5" x="978.64" y="316.7" width="15.57" height="9.28"/>
          <rect class="cls-2" x="978.64" y="334.67" width="15.57" height="9.28"/>
          <rect class="cls-2" x="1003.66" y="316.7" width="15.57" height="9.28"/>
          <rect class="cls-5" x="1003.66" y="334.67" width="15.57" height="9.28"/>
        </g>
        <g>
          <rect class="cls-5" x="843.06" y="418.54" width="183.83" height="61.71"/>
          <rect class="cls-5" x="843.06" y="413.15" width="183.83" height="10.78"/>
          <rect class="cls-5" x="843.06" y="476.94" width="183.83" height="10.78"/>
          <rect class="cls-5" x="853.53" y="437.05" width="15.57" height="9.28"/>
          <rect class="cls-2" x="853.53" y="455.01" width="15.57" height="9.28"/>
          <rect class="cls-5" x="878.55" y="437.05" width="15.57" height="9.28"/>
          <rect class="cls-5" x="878.55" y="455.01" width="15.57" height="9.28"/>
          <rect class="cls-2" x="903.57" y="437.05" width="15.57" height="9.28"/>
          <rect class="cls-5" x="903.57" y="455.01" width="15.57" height="9.28"/>
          <rect class="cls-2" x="928.6" y="437.05" width="15.57" height="9.28"/>
          <rect class="cls-5" x="928.6" y="455.01" width="15.57" height="9.28"/>
          <rect class="cls-5" x="953.62" y="437.05" width="15.57" height="9.28"/>
          <rect class="cls-5" x="953.62" y="455.01" width="15.57" height="9.28"/>
          <rect class="cls-5" x="978.64" y="437.05" width="15.57" height="9.28"/>
          <rect class="cls-2" x="978.64" y="455.01" width="15.57" height="9.28"/>
          <rect class="cls-2" x="1003.66" y="437.05" width="15.57" height="9.28"/>
          <rect class="cls-5" x="1003.66" y="455.01" width="15.57" height="9.28"/>
        </g>
        <g>
          <rect class="cls-5" x="843.06" y="538.89" width="183.83" height="61.71"/>
          <rect class="cls-5" x="843.06" y="533.5" width="183.83" height="10.78"/>
          <rect class="cls-5" x="843.06" y="597.28" width="183.83" height="10.78"/>
          <rect class="cls-5" x="853.53" y="557.39" width="15.57" height="9.28"/>
          <rect class="cls-2" x="853.53" y="575.36" width="15.57" height="9.28"/>
          <rect class="cls-5" x="878.55" y="557.39" width="15.57" height="9.28"/>
          <rect class="cls-5" x="878.55" y="575.36" width="15.57" height="9.28"/>
          <rect class="cls-2" x="903.57" y="557.39" width="15.57" height="9.28"/>
          <rect class="cls-5" x="903.57" y="575.36" width="15.57" height="9.28"/>
          <rect class="cls-2" x="928.6" y="557.39" width="15.57" height="9.28"/>
          <rect class="cls-5" x="928.6" y="575.36" width="15.57" height="9.28"/>
          <rect class="cls-5" x="953.62" y="557.39" width="15.57" height="9.28"/>
          <rect class="cls-5" x="953.62" y="575.36" width="15.57" height="9.28"/>
          <rect class="cls-5" x="978.64" y="557.39" width="15.57" height="9.28"/>
          <rect class="cls-2" x="978.64" y="575.36" width="15.57" height="9.28"/>
          <rect class="cls-2" x="1003.66" y="557.39" width="15.57" height="9.28"/>
          <rect class="cls-5" x="1003.66" y="575.36" width="15.57" height="9.28"/>
        </g>
        <g>
          <rect class="cls-5" x="843.06" y="659.23" width="183.83" height="61.71"/>
          <rect class="cls-5" x="843.06" y="653.84" width="183.83" height="10.78"/>
          <rect class="cls-5" x="843.06" y="717.63" width="183.83" height="10.78"/>
          <rect class="cls-5" x="853.53" y="677.74" width="15.57" height="9.28"/>
          <rect class="cls-2" x="853.53" y="695.71" width="15.57" height="9.28"/>
          <rect class="cls-5" x="878.55" y="677.74" width="15.57" height="9.28"/>
          <rect class="cls-5" x="878.55" y="695.71" width="15.57" height="9.28"/>
          <rect class="cls-2" x="903.57" y="677.74" width="15.57" height="9.28"/>
          <rect class="cls-5" x="903.57" y="695.71" width="15.57" height="9.28"/>
          <rect class="cls-2" x="928.6" y="677.74" width="15.57" height="9.28"/>
          <rect class="cls-5" x="928.6" y="695.71" width="15.57" height="9.28"/>
          <rect class="cls-5" x="953.62" y="677.74" width="15.57" height="9.28"/>
          <rect class="cls-5" x="953.62" y="695.71" width="15.57" height="9.28"/>
          <rect class="cls-5" x="978.64" y="677.74" width="15.57" height="9.28"/>
          <rect class="cls-2" x="978.64" y="695.71" width="15.57" height="9.28"/>
          <rect class="cls-2" x="1003.66" y="677.74" width="15.57" height="9.28"/>
          <rect class="cls-5" x="1003.66" y="695.71" width="15.57" height="9.28"/>
        </g>
      </g>
      <g>
        <path class="cls-5" d="M747.86,530.32s-13.24-9.11-9.15-29.76,30.32-34.62,38.38-23.62,28.23,48.58,7.86,59.82-37.09-6.43-37.09-6.43Z"/>
        <path class="cls-5" d="M745.18,527.9l-10.16,55.64-3-2.85-65.16,56.53c-.76,.66,62.33,76.56,91.44,47.96s31.74-153.62,31.74-153.62"/>
      </g>
      <line class="cls-6" x1="730.03" y1="611.82" x2="735.02" y2="583.54"/>
      <g>
        <rect class="cls-7" x="771" y="452.46" width="13.79" height="112.05" transform="translate(-78.58 147.75) rotate(-10.33)"/>
        <path class="cls-5" d="M780.97,459.11c-16.48,1.98-35.84,3.6-27.38,10.22,8.46,6.62,26.15,7.99,31.85,6.24,5.7-1.74,6-17.72-4.47-16.46Z"/>
        <path class="cls-5" d="M745.53,531.99c0-3.57-28.6-15.83-15.32-34.21,13.28-18.38,38.3-32.72,38.81-27.6s-15.32,31.17-15.32,31.17"/>
        <path class="cls-5" d="M790.73,506.75c-10.05,11.55-22.35,24.67-11.86,23.5,10.49-1.18,23.71-11.41,26.45-16.06,2.74-4.65-8.21-14.78-14.59-7.44Z"/>
        <path class="cls-5" d="M785.15,487.94c-10.21,13.08-22.71,27.96-12.05,26.63,10.66-1.33,24.1-12.93,26.88-18.19s-8.34-16.74-14.83-8.43Z"/>
        <circle class="cls-7" cx="755.13" cy="407.01" r="50.63"/>
        <circle class="cls-5" cx="755.13" cy="407.01" r="41.31"/>
        <line class="cls-6" x1="781.44" y1="405.02" x2="766.8" y2="423.19"/>
        <line class="cls-6" x1="784.95" y1="413.44" x2="777.1" y2="423.19"/>
        <path class="cls-5" d="M778.7,472.06c-10.21,13.08-22.71,27.96-12.05,26.63,10.66-1.33,24.1-12.93,26.88-18.19s-8.34-16.74-14.83-8.43Z"/>
      </g>
      <g>
        <rect class="cls-5" x="65.03" y="300.85" width="251.1" height="41.91"/>
        <rect class="cls-1" x="72.31" y="306.25" width="40.32" height="31.11"/>
        <polygon class="cls-4" points="96.18 306.25 87.67 306.25 73.37 337.36 81.88 337.36 96.18 306.25"/>
        <polygon class="cls-4" points="118.99 306.25 110.48 306.25 96.18 337.36 104.69 337.36 118.99 306.25"/>
        <polygon class="cls-4" points="141.8 306.25 133.29 306.25 118.99 337.36 127.5 337.36 141.8 306.25"/>
        <polygon class="cls-4" points="164.61 306.25 156.1 306.25 141.8 337.36 150.31 337.36 164.61 306.25"/>
        <polygon class="cls-4" points="187.42 306.25 178.9 306.25 164.61 337.36 173.12 337.36 187.42 306.25"/>
        <polygon class="cls-4" points="210.22 306.25 201.71 306.25 187.42 337.36 195.93 337.36 210.22 306.25"/>
        <polygon class="cls-4" points="233.03 306.25 224.52 306.25 210.22 337.36 218.73 337.36 233.03 306.25"/>
        <polygon class="cls-4" points="255.84 306.25 247.33 306.25 233.03 337.36 241.54 337.36 255.84 306.25"/>
        <polygon class="cls-4" points="278.65 306.25 270.14 306.25 255.84 337.36 264.35 337.36 278.65 306.25"/>
        <polygon class="cls-4" points="301.46 306.25 292.95 306.25 278.65 337.36 287.16 337.36 301.46 306.25"/>
      </g>
      <path class="cls-10" d="M425.12,369.94s-9.13-17.7-7.77-34.72,20.77-31.66,20.77-31.66c0,0,7.15-25.38,45.62-37.11s77.28,5.11,77.28,5.11c0,0-51.4,32.34-107.57,32.68l-7.83-.34s14.3,30.66-4.43,61.8c0,0-8.85-2.75-16.06,4.24Z"/>
      <path class="cls-9" d="M500.78,450.24s12.8,10.87,27.17,10.26l-1.1-8.3s-16.41,.02-26.06-1.95Z"/>
      <path class="cls-6" d="M489.11,670.11s40.97-19.66,70.22-45.19"/>
      <path class="cls-10" d="M397.61,611.82s8.93,58.55,6.51,60.6-31.02,7.55-31.02,7.55c0,0,21.45-31.72,24.51-68.14Z"/>
      <path class="cls-6" d="M456.5,300.85s12.94-2.95,25.19-16.91"/>
      <path class="cls-6" d="M473.16,302.87s19.83-9.39,26.43-18.92"/>
      <path class="cls-6" d="M497.43,297.1s19.83-9.39,26.43-18.92"/>
      <line class="cls-6" y1="768.01" x2="1096.85" y2="768.01"/>
    </g>
  </g>
</svg>